{
.appVersion = "3058";
classes = (
{

glyphs = (
{
glyphname = .notdef;
layers = (
{
layerId = "BA838D9B-820F-4674-98D0-BE3E112EAB76";
paths = (
{
closed = 1;
nodes = (
"542 699 LINE",
"20 699 LINE",
"20 -135 LINE",
"542 -135 LINE"
);
},
{
closed = 1;
nodes = (
"104 89 OFFCURVE",
"155 128 OFFCURVE",
"167 140 CURVE SMOOTH",
"198 172 OFFCURVE",
"242 196 OFFCURVE",
"252 196 CURVE SMOOTH",
"275 196 OFFCURVE",
"287 161 OFFCURVE",
"287 130 CURVE SMOOTH",
"287 112 OFFCURVE",
"314 101 OFFCURVE",
"326 101 CURVE SMOOTH",
"347 101 OFFCURVE",
"374 86 OFFCURVE",
"374 68 CURVE SMOOTH",
"374 38 OFFCURVE",
"321 28 OFFCURVE",
"296 4 CURVE SMOOTH",
"264 -26 OFFCURVE",
"236 -53 OFFCURVE",
"224 -53 CURVE SMOOTH",
"209 -53 OFFCURVE",
"198 -26 OFFCURVE",
"194 -7 CURVE",
"189 13 OFFCURVE",
"167 52 OFFCURVE",
"149 52 CURVE SMOOTH",
"144 52 OFFCURVE",
"142 51 OFFCURVE",
"139 50 CURVE",
"135 49 OFFCURVE",
"132 47 OFFCURVE",
"126 47 CURVE SMOOTH",
"119 47 OFFCURVE",
"104 62 OFFCURVE",
"104 71 CURVE SMOOTH"
);
},
{
closed = 1;
nodes = (
"113 263 OFFCURVE",
"134 298 OFFCURVE",
"164 331 CURVE SMOOTH",
"183 352 OFFCURVE",
"195 387 OFFCURVE",
"236 387 CURVE SMOOTH",
"257 387 OFFCURVE",
"317 365 OFFCURVE",
"329 365 CURVE SMOOTH",
"339 365 OFFCURVE",
"348 370 OFFCURVE",
"348 380 CURVE SMOOTH",
"348 389 OFFCURVE",
"318 404 OFFCURVE",
"293 425 CURVE SMOOTH",
"270 443 OFFCURVE",
"252 467 OFFCURVE",
"252 490 CURVE SMOOTH",
"252 511 OFFCURVE",
"269 541 OFFCURVE",
"285 568 CURVE SMOOTH",
"303 599 OFFCURVE",
"324 629 OFFCURVE",
"345 629 CURVE SMOOTH",
"359 629 OFFCURVE",
"377 613 OFFCURVE",
"377 601 CURVE SMOOTH",
"377 589 OFFCURVE",
"363 577 OFFCURVE",
"363 560 CURVE SMOOTH",
"363 542 OFFCURVE",
"396 523 OFFCURVE",
"422 518 CURVE",
"461 512 OFFCURVE",
"471 482 OFFCURVE",
"471 448 CURVE SMOOTH",
"471 386 OFFCURVE",
"443 306 OFFCURVE",
"416 271 CURVE SMOOTH",
"391 239 OFFCURVE",
"299 223 OFFCURVE",
"264 223 CURVE SMOOTH",
"240 223 OFFCURVE",
"213 236 OFFCURVE",
"185 236 CURVE SMOOTH",
"164 236 OFFCURVE",
"149 229 OFFCURVE",
"138 229 CURVE SMOOTH",
"131 229 OFFCURVE",
"113 236 OFFCURVE",
"113 256 CURVE SMOOTH"
);
}
);
width = 562;
}
);
},
{
glyphname = ampersand;
layers = (
{
layerId = "BA838D9B-820F-4674-98D0-BE3E112EAB76";
paths = (
{
closed = 1;
nodes = (
"165 502 OFFCURVE",
"139 546 OFFCURVE",
"100 546 CURVE SMOOTH",
"87 546 OFFCURVE",
"84 531 OFFCURVE",
"69 516 CURVE SMOOTH",
"51 498 OFFCURVE",
"30 485 OFFCURVE",
"30 470 CURVE SMOOTH",
"30 456 OFFCURVE",
"37 451 OFFCURVE",
"62 422 CURVE",
"76 408 OFFCURVE",
"81 402 OFFCURVE",
"106 402 CURVE SMOOTH",
"128 402 OFFCURVE",
"164 463 OFFCURVE",
"189 463 CURVE SMOOTH",
"214 463 OFFCURVE",
"232 431 OFFCURVE",
"232 394 CURVE SMOOTH",
"232 361 OFFCURVE",
"207 305 OFFCURVE",
"175 305 CURVE SMOOTH",
"151 305 OFFCURVE",
"142 321 OFFCURVE",
"120 321 CURVE SMOOTH",
"101 321 OFFCURVE",
"90 288 OFFCURVE",
"90 268 CURVE SMOOTH",
"90 244 OFFCURVE",
"111 222 OFFCURVE",
"139 222 CURVE SMOOTH",
"154 222 OFFCURVE",
"173 224 OFFCURVE",
"189 224 CURVE SMOOTH",
"198 224 OFFCURVE",
"211 205 OFFCURVE",
"211 188 CURVE SMOOTH",
"211 105 LINE SMOOTH",
"211 53 OFFCURVE",
"187 47 OFFCURVE",
"187 30 CURVE SMOOTH",
"187 14 OFFCURVE",
"228 11 OFFCURVE",
"261 11 CURVE SMOOTH",
"289 11 OFFCURVE",
"317 -14 OFFCURVE",
"337 -14 CURVE SMOOTH",
"356 -14 OFFCURVE",
"351 -1 OFFCURVE",
"378 27 CURVE SMOOTH",
"382 31 OFFCURVE",
"402 53 OFFCURVE",
"402 59 CURVE SMOOTH",
"402 70 OFFCURVE",
"392 72 OFFCURVE",
"376 72 CURVE SMOOTH",
"326 72 OFFCURVE",
"317 98 OFFCURVE",
"317 137 CURVE SMOOTH",
"317 205 LINE SMOOTH",
"317 224 OFFCURVE",
"331 243 OFFCURVE",
"360 243 CURVE SMOOTH",
"378 243 OFFCURVE",
"404 258 OFFCURVE",
"404 268 CURVE SMOOTH",
"404 275 OFFCURVE",
"398 289 OFFCURVE",
"378 294 CURVE SMOOTH",
"357 299 OFFCURVE",
"326 311 OFFCURVE",
"326 346 CURVE SMOOTH",
"326 397 OFFCURVE",
"353 511 OFFCURVE",
"353 530 CURVE SMOOTH",
"353 542 OFFCURVE",
"357 558 OFFCURVE",
"340 558 CURVE SMOOTH",
"328 558 OFFCURVE",
"314 541 OFFCURVE",
"296 531 CURVE",
"268 517 OFFCURVE",
"228 502 OFFCURVE",
"207 502 CURVE SMOOTH"
);
}
);
width = 434;
}
);
unicode = 0026;
},
{
glyphname = numbersign;
layers = (
{
layerId = "BA838D9B-820F-4674-98D0-BE3E112EAB76";
paths = (
{
closed = 1;
nodes = (
"542 699 LINE",
"20 699 LINE",
"20 -135 LINE",
"542 -135 LINE"
);
},
{
closed = 1;
nodes = (
"104 89 OFFCURVE",
"155 128 OFFCURVE",
"167 140 CURVE SMOOTH",
"198 172 OFFCURVE",
"242 196 OFFCURVE",
"252 196 CURVE SMOOTH",
"275 196 OFFCURVE",
"287 161 OFFCURVE",
"287 130 CURVE SMOOTH",
"287 112 OFFCURVE",
"314 101 OFFCURVE",
"326 101 CURVE SMOOTH",
"347 101 OFFCURVE",
"374 86 OFFCURVE",
"374 68 CURVE SMOOTH",
"374 38 OFFCURVE",
"321 28 OFFCURVE",
"296 4 CURVE SMOOTH",
"264 -26 OFFCURVE",
"236 -53 OFFCURVE",
"224 -53 CURVE SMOOTH",
"209 -53 OFFCURVE",
"198 -26 OFFCURVE",
"194 -7 CURVE",
"189 13 OFFCURVE",
"167 52 OFFCURVE",
"149 52 CURVE SMOOTH",
"144 52 OFFCURVE",
"142 51 OFFCURVE",
"139 50 CURVE",
"135 49 OFFCURVE",
"132 47 OFFCURVE",
"126 47 CURVE SMOOTH",
"119 47 OFFCURVE",
"104 62 OFFCURVE",
"104 71 CURVE SMOOTH"
);
},
{
closed = 1;
nodes = (
"113 263 OFFCURVE",
"134 298 OFFCURVE",
"164 331 CURVE SMOOTH",
"183 352 OFFCURVE",
"195 387 OFFCURVE",
"236 387 CURVE SMOOTH",
"257 387 OFFCURVE",
"317 365 OFFCURVE",
"329 365 CURVE SMOOTH",
"339 365 OFFCURVE",
"348 370 OFFCURVE",
"348 380 CURVE SMOOTH",
"348 389 OFFCURVE",
"318 404 OFFCURVE",
"293 425 CURVE SMOOTH",
"270 443 OFFCURVE",
"252 467 OFFCURVE",
"252 490 CURVE SMOOTH",
"252 511 OFFCURVE",
"269 541 OFFCURVE",
"285 568 CURVE SMOOTH",
"303 599 OFFCURVE",
"324 629 OFFCURVE",
"345 629 CURVE SMOOTH",
"359 629 OFFCURVE",
"377 613 OFFCURVE",
"377 601 CURVE SMOOTH",
"377 589 OFFCURVE",
"363 577 OFFCURVE",
"363 560 CURVE SMOOTH",
"363 542 OFFCURVE",
"396 523 OFFCURVE",
"422 518 CURVE",
"461 512 OFFCURVE",
"471 482 OFFCURVE",
"471 448 CURVE SMOOTH",
"471 386 OFFCURVE",
"443 306 OFFCURVE",
"416 271 CURVE SMOOTH",
"391 239 OFFCURVE",
"299 223 OFFCURVE",
"264 223 CURVE SMOOTH",
"240 223 OFFCURVE",
"213 236 OFFCURVE",
"185 236 CURVE SMOOTH",
"164 236 OFFCURVE",
"149 229 OFFCURVE",
"138 229 CURVE SMOOTH",
"131 229 OFFCURVE",
"113 236 OFFCURVE",
"113 256 CURVE SMOOTH"
);
}
);
width = 562;
}
);
unicode = 0023;
},
{
glyphname = comma;
layers = (
{
layerId = "BA838D9B-820F-4674-98D0-BE3E112EAB76";
paths = (
{
closed = 1;
nodes = (
"13 105 OFFCURVE",
"29 67 OFFCURVE",
"34 66 CURVE",
"44 61 OFFCURVE",
"53 49 OFFCURVE",
"53 43 CURVE SMOOTH",
"53 29 OFFCURVE",
"43 6 OFFCURVE",
"34 2 CURVE",
"25 -3 OFFCURVE",
"10 -10 OFFCURVE",
"10 -20 CURVE SMOOTH",
"10 -29 OFFCURVE",
"19 -41 OFFCURVE",
"34 -41 CURVE SMOOTH",
"46 -41 OFFCURVE",
"62 -28 OFFCURVE",
"79 -21 CURVE SMOOTH",
"124 -4 OFFCURVE",
"178 40 OFFCURVE",
"178 82 CURVE SMOOTH",
"178 99 OFFCURVE",
"145 144 OFFCURVE",
"114 144 CURVE SMOOTH",
"63 144 LINE SMOOTH",
"47 144 OFFCURVE",
"13 123 OFFCURVE",
"13 111 CURVE SMOOTH"
);
}
);
width = 188;
}
);
unicode = 002C;
},
{
glyphname = hyphen;
lastChange = "2015-02-26 08:47:43 +0000";
layers = (
{
layerId = "BA838D9B-820F-4674-98D0-BE3E112EAB76";
paths = (
{
closed = 1;
nodes = (
"21 122 LINE",
"197 246 LINE",
"198 252 OFFCURVE",
"199 273 OFFCURVE",
"199 284 CURVE SMOOTH",
"199 295 OFFCURVE",
"198 306 OFFCURVE",
"197 311 CURVE",
"21 185 LINE",
"21 178 OFFCURVE",
"20 161 OFFCURVE",
"20 147 CURVE SMOOTH",
"20 140 OFFCURVE",
"20 134 OFFCURVE",
"21 132 CURVE"
);
},
{
closed = 1;
nodes = (
"197 400 LINE",
"198 407 OFFCURVE",
"199 418 OFFCURVE",
"199 429 CURVE SMOOTH",
"199 440 OFFCURVE",
"198 460 OFFCURVE",
"197 465 CURVE",
"20 339 LINE",
"20 292 LINE",
"20 285 OFFCURVE",
"20 279 OFFCURVE",
"21 277 CURVE"
);
}
);
width = 219;
}
);
unicode = 002D;
},
{
glyphname = period;
lastChange = "2021-01-24 06:13:53 +0000";
layers = (
{
layerId = "BA838D9B-820F-4674-98D0-BE3E112EAB76";
paths = (
{
closed = 1;
nodes = (
"127 -9 OFFCURVE",
"148 22 OFFCURVE",
"160 37 CURVE SMOOTH",
"177 58 OFFCURVE",
"204 68 OFFCURVE",
"204 82 CURVE SMOOTH",
"204 119 OFFCURVE",
"171 125 OFFCURVE",
"150 140 CURVE SMOOTH",
"138 149 OFFCURVE",
"117 180 OFFCURVE",
"104 180 CURVE SMOOTH",
"89 180 OFFCURVE",
"75 154 OFFCURVE",
"68 135 CURVE SMOOTH",
"63 121 OFFCURVE",
"25 90 OFFCURVE",
"25 73 CURVE SMOOTH",
"25 56 OFFCURVE",
"60 51 OFFCURVE",
"69 40 CURVE",
"80 24 OFFCURVE",
"102 -9 OFFCURVE",
"113 -9 CURVE SMOOTH"
);
}
);
width = 229;
}
);
unicode = 002E;
},
{
glyphname = slash;
layers = (
{
layerId = "BA838D9B-820F-4674-98D0-BE3E112EAB76";
paths = (
{
closed = 1;
nodes = (
"160 546 LINE",
"20 -32 LINE",
"90 10 LINE",
"230 546 LINE"
);
}
);
width = 250;
}
);
unicode = 002F;
},
{
glyphname = colon;
layers = (
{
layerId = "BA838D9B-820F-4674-98D0-BE3E112EAB76";
paths = (
{
closed = 1;
nodes = (
"141 238 OFFCURVE",
"130 200 OFFCURVE",
"118 182 CURVE SMOOTH",
"106 165 OFFCURVE",
"78 153 OFFCURVE",
"78 139 CURVE SMOOTH",
"78 123 OFFCURVE",
"99 107 OFFCURVE",
"115 86 CURVE SMOOTH",
"144 46 OFFCURVE",
"157 0 OFFCURVE",
"175 0 CURVE SMOOTH",
"193 0 OFFCURVE",
"199 24 OFFCURVE",
"199 41 CURVE SMOOTH",
"199 51 OFFCURVE",
"195 60 OFFCURVE",
"195 67 CURVE SMOOTH",
"195 81 OFFCURVE",
"214 101 OFFCURVE",
"227 109 CURVE",
"232 114 OFFCURVE",
"256 139 OFFCURVE",
"256 146 CURVE SMOOTH",
"256 160 OFFCURVE",
"244 167 OFFCURVE",
"232 172 CURVE",
"214 182 OFFCURVE",
"186 206 OFFCURVE",
"183 216 CURVE",
"181 226 OFFCURVE",
"164 238 OFFCURVE",
"154 238 CURVE SMOOTH"
);
},
{
closed = 1;
nodes = (
"172 321 OFFCURVE",
"195 360 OFFCURVE",
"207 375 CURVE SMOOTH",
"224 396 OFFCURVE",
"259 408 OFFCURVE",
"259 422 CURVE SMOOTH",
"259 431 OFFCURVE",
"248 443 OFFCURVE",
"234 451 CURVE SMOOTH",
"207 466 OFFCURVE",
"179 466 OFFCURVE",
"175 499 CURVE",
"174 514 OFFCURVE",
"154 538 OFFCURVE",
"141 538 CURVE SMOOTH",
"126 538 OFFCURVE",
"113 499 OFFCURVE",
"113 479 CURVE SMOOTH",
"113 464 OFFCURVE",
"70 430 OFFCURVE",
"70 413 CURVE SMOOTH",
"70 396 OFFCURVE",
"95 381 OFFCURVE",
"104 370 CURVE",
"115 354 OFFCURVE",
"147 321 OFFCURVE",
"158 321 CURVE SMOOTH"
);
}
);
width = 330;
}
);
unicode = 003A;
},
{
glyphname = semicolon;
layers = (
{
layerId = "BA838D9B-820F-4674-98D0-BE3E112EAB76";
paths = (
{
closed = 1;
nodes = (
"141 238 OFFCURVE",
"130 200 OFFCURVE",
"118 182 CURVE SMOOTH",
"106 165 OFFCURVE",
"78 153 OFFCURVE",
"78 139 CURVE SMOOTH",
"78 123 OFFCURVE",
"99 107 OFFCURVE",
"115 86 CURVE SMOOTH",
"122 77 OFFCURVE",
"123 66 OFFCURVE",
"123 53 CURVE SMOOTH",
"122 19 OFFCURVE",
"94 -13 OFFCURVE",
"94 -29 CURVE SMOOTH",
"94 -33 OFFCURVE",
"98 -44 OFFCURVE",
"106 -44 CURVE SMOOTH",
"114 -44 OFFCURVE",
"123 -40 OFFCURVE",
"128 -37 CURVE",
"152 -24 OFFCURVE",
"188 11 OFFCURVE",
"216 50 CURVE SMOOTH",
"239 82 OFFCURVE",
"256 117 OFFCURVE",
"256 146 CURVE SMOOTH",
"256 160 OFFCURVE",
"244 167 OFFCURVE",
"232 172 CURVE",
"214 182 OFFCURVE",
"186 206 OFFCURVE",
"183 216 CURVE",
"181 226 OFFCURVE",
"164 238 OFFCURVE",
"154 238 CURVE SMOOTH"
);
},
{
closed = 1;
nodes = (
"172 321 OFFCURVE",
"195 360 OFFCURVE",
"207 375 CURVE SMOOTH",
"224 396 OFFCURVE",
"259 408 OFFCURVE",
"259 422 CURVE SMOOTH",
"259 431 OFFCURVE",
"248 443 OFFCURVE",
"234 451 CURVE SMOOTH",
"207 466 OFFCURVE",
"179 466 OFFCURVE",
"175 499 CURVE",
"174 514 OFFCURVE",
"154 538 OFFCURVE",
"141 538 CURVE SMOOTH",
"126 538 OFFCURVE",
"113 499 OFFCURVE",
"113 479 CURVE SMOOTH",
"113 464 OFFCURVE",
"70 430 OFFCURVE",
"70 413 CURVE SMOOTH",
"70 396 OFFCURVE",
"95 381 OFFCURVE",
"104 370 CURVE",
"115 354 OFFCURVE",
"147 321 OFFCURVE",
"158 321 CURVE SMOOTH"
);
}
);
width = 330;
}
);
unicode = 003B;
},
{
glyphname = question;
layers = (
{
layerId = "BA838D9B-820F-4674-98D0-BE3E112EAB76";
paths = (
{
closed = 1;
nodes = (
"11 101 OFFCURVE",
"26 86 OFFCURVE",
"33 86 CURVE SMOOTH",
"39 86 OFFCURVE",
"42 88 OFFCURVE",
"46 89 CURVE",
"49 90 OFFCURVE",
"51 91 OFFCURVE",
"56 91 CURVE SMOOTH",
"74 91 OFFCURVE",
"96 52 OFFCURVE",
"101 32 CURVE",
"105 13 OFFCURVE",
"116 -14 OFFCURVE",
"131 -14 CURVE SMOOTH",
"143 -14 OFFCURVE",
"171 13 OFFCURVE",
"203 43 CURVE SMOOTH",
"228 67 OFFCURVE",
"281 77 OFFCURVE",
"281 107 CURVE SMOOTH",
"281 125 OFFCURVE",
"254 140 OFFCURVE",
"233 140 CURVE SMOOTH",
"221 140 OFFCURVE",
"194 151 OFFCURVE",
"194 169 CURVE SMOOTH",
"194 200 OFFCURVE",
"182 235 OFFCURVE",
"159 235 CURVE SMOOTH",
"149 235 OFFCURVE",
"105 211 OFFCURVE",
"74 179 CURVE SMOOTH",
"62 167 OFFCURVE",
"11 128 OFFCURVE",
"11 110 CURVE SMOOTH"
);
},
{
closed = 1;
nodes = (
"20 275 OFFCURVE",
"38 268 OFFCURVE",
"45 268 CURVE SMOOTH",
"56 268 OFFCURVE",
"71 275 OFFCURVE",
"92 275 CURVE SMOOTH",
"120 275 OFFCURVE",
"147 262 OFFCURVE",
"171 262 CURVE SMOOTH",
"206 262 OFFCURVE",
"298 278 OFFCURVE",
"323 310 CURVE SMOOTH",
"350 345 OFFCURVE",
"378 425 OFFCURVE",
"378 487 CURVE SMOOTH",
"378 521 OFFCURVE",
"368 551 OFFCURVE",
"329 557 CURVE",
"303 562 OFFCURVE",
"270 581 OFFCURVE",
"270 599 CURVE SMOOTH",
"270 616 OFFCURVE",
"284 628 OFFCURVE",
"284 640 CURVE SMOOTH",
"284 652 OFFCURVE",
"266 668 OFFCURVE",
"252 668 CURVE SMOOTH",
"231 668 OFFCURVE",
"210 638 OFFCURVE",
"192 607 CURVE SMOOTH",
"176 580 OFFCURVE",
"159 550 OFFCURVE",
"159 529 CURVE SMOOTH",
"159 506 OFFCURVE",
"177 482 OFFCURVE",
"200 464 CURVE SMOOTH",
"225 443 OFFCURVE",
"255 428 OFFCURVE",
"255 419 CURVE SMOOTH",
"255 409 OFFCURVE",
"246 404 OFFCURVE",
"236 404 CURVE SMOOTH",
"224 404 OFFCURVE",
"164 426 OFFCURVE",
"143 426 CURVE SMOOTH",
"102 426 OFFCURVE",
"90 391 OFFCURVE",
"71 370 CURVE SMOOTH",
"41 337 OFFCURVE",
"20 302 OFFCURVE",
"20 295 CURVE SMOOTH"
);
}
);
width = 398;
}
);
unicode = 003F;
},
{
glyphname = one;
layers = (
{
layerId = "BA838D9B-820F-4674-98D0-BE3E112EAB76";
paths = (
{
closed = 1;
nodes = (
"215 579 OFFCURVE",
"232 624 OFFCURVE",
"232 645 CURVE SMOOTH",
"232 679 OFFCURVE",
"213 716 OFFCURVE",
"162 716 CURVE SMOOTH",
"121 716 OFFCURVE",
"78 674 OFFCURVE",
"78 645 CURVE SMOOTH",
"78 631 OFFCURVE",
"92 626 OFFCURVE",
"112 626 CURVE SMOOTH",
"125 626 OFFCURVE",
"135 635 OFFCURVE",
"146 635 CURVE SMOOTH",
"153 635 OFFCURVE",
"167 618 OFFCURVE",
"167 609 CURVE SMOOTH",
"167 596 OFFCURVE",
"174 579 OFFCURVE",
"192 579 CURVE SMOOTH"
);
},
{
closed = 1;
nodes = (
"200 487 OFFCURVE",
"184 501 OFFCURVE",
"164 515 CURVE",
"147 528 OFFCURVE",
"131 546 OFFCURVE",
"106 546 CURVE SMOOTH",
"93 546 OFFCURVE",
"78 528 OFFCURVE",
"57 514 CURVE",
"37 499 OFFCURVE",
"20 475 OFFCURVE",
"20 454 CURVE SMOOTH",
"20 440 OFFCURVE",
"57 429 OFFCURVE",
"57 375 CURVE SMOOTH",
"57 128 LINE SMOOTH",
"57 83 OFFCURVE",
"45 75 OFFCURVE",
"45 64 CURVE SMOOTH",
"45 35 OFFCURVE",
"57 31 OFFCURVE",
"78 17 CURVE SMOOTH",
"95 5 OFFCURVE",
"111 -14 OFFCURVE",
"136 -14 CURVE SMOOTH",
"145 -14 OFFCURVE",
"164 5 OFFCURVE",
"184 19 CURVE SMOOTH",
"205 33 OFFCURVE",
"222 43 OFFCURVE",
"222 61 CURVE SMOOTH",
"222 72 OFFCURVE",
"212 83 OFFCURVE",
"205 83 CURVE SMOOTH",
"192 83 OFFCURVE",
"166 99 OFFCURVE",
"166 133 CURVE SMOOTH",
"166 375 LINE SMOOTH",
"166 437 OFFCURVE",
"200 439 OFFCURVE",
"200 457 CURVE SMOOTH"
);
}
);
width = 252;
}
);
unicode = 0031;
},
{
glyphname = two;
layers = (
{
layerId = "BA838D9B-820F-4674-98D0-BE3E112EAB76";
paths = (
{
closed = 1;
nodes = (
"215 579 OFFCURVE",
"232 624 OFFCURVE",
"232 645 CURVE SMOOTH",
"232 679 OFFCURVE",
"213 716 OFFCURVE",
"162 716 CURVE SMOOTH",
"121 716 OFFCURVE",
"78 674 OFFCURVE",
"78 645 CURVE SMOOTH",
"78 631 OFFCURVE",
"92 626 OFFCURVE",
"112 626 CURVE SMOOTH",
"125 626 OFFCURVE",
"135 635 OFFCURVE",
"146 635 CURVE SMOOTH",
"153 635 OFFCURVE",
"167 618 OFFCURVE",
"167 609 CURVE SMOOTH",
"167 596 OFFCURVE",
"174 579 OFFCURVE",
"192 579 CURVE SMOOTH"
);
},
{
closed = 1;
nodes = (
"200 487 OFFCURVE",
"184 501 OFFCURVE",
"164 515 CURVE",
"147 528 OFFCURVE",
"131 546 OFFCURVE",
"106 546 CURVE SMOOTH",
"93 546 OFFCURVE",
"78 528 OFFCURVE",
"57 514 CURVE",
"37 499 OFFCURVE",
"20 475 OFFCURVE",
"20 454 CURVE SMOOTH",
"20 440 OFFCURVE",
"57 429 OFFCURVE",
"57 375 CURVE SMOOTH",
"57 128 LINE SMOOTH",
"57 83 OFFCURVE",
"45 75 OFFCURVE",
"45 64 CURVE SMOOTH",
"45 35 OFFCURVE",
"57 31 OFFCURVE",
"78 17 CURVE SMOOTH",
"95 5 OFFCURVE",
"111 -14 OFFCURVE",
"136 -14 CURVE SMOOTH",
"145 -14 OFFCURVE",
"164 5 OFFCURVE",
"184 19 CURVE SMOOTH",
"205 33 OFFCURVE",
"222 43 OFFCURVE",
"222 61 CURVE SMOOTH",
"222 72 OFFCURVE",
"212 83 OFFCURVE",
"205 83 CURVE SMOOTH",
"192 83 OFFCURVE",
"166 99 OFFCURVE",
"166 133 CURVE SMOOTH",
"166 375 LINE SMOOTH",
"166 437 OFFCURVE",
"200 439 OFFCURVE",
"200 457 CURVE SMOOTH"
);
},
{
closed = 1;
nodes = (
"459 579 OFFCURVE",
"476 624 OFFCURVE",
"476 644 CURVE SMOOTH",
"476 679 OFFCURVE",
"458 716 OFFCURVE",
"406 716 CURVE SMOOTH",
"366 716 OFFCURVE",
"322 674 OFFCURVE",
"322 644 CURVE SMOOTH",
"322 630 OFFCURVE",
"338 626 OFFCURVE",
"356 626 CURVE SMOOTH",
"369 626 OFFCURVE",
"380 635 OFFCURVE",
"391 635 CURVE SMOOTH",
"397 635 OFFCURVE",
"411 618 OFFCURVE",
"411 609 CURVE SMOOTH",
"411 596 OFFCURVE",
"419 579 OFFCURVE",
"436 579 CURVE SMOOTH"
);
},
{
closed = 1;
nodes = (
"445 487 OFFCURVE",
"430 501 OFFCURVE",
"409 515 CURVE SMOOTH",
"392 527 OFFCURVE",
"375 546 OFFCURVE",
"350 546 CURVE SMOOTH",
"338 546 OFFCURVE",
"322 527 OFFCURVE",
"302 513 CURVE SMOOTH",
"281 499 OFFCURVE",
"264 474 OFFCURVE",
"264 454 CURVE SMOOTH",
"264 440 OFFCURVE",
"302 429 OFFCURVE",
"302 375 CURVE SMOOTH",
"302 128 LINE SMOOTH",
"302 39 OFFCURVE",
"278 -49 OFFCURVE",
"233 -117 CURVE",
"228 -124 OFFCURVE",
"224 -131 OFFCURVE",
"224 -135 CURVE SMOOTH",
"224 -157 OFFCURVE",
"242 -160 OFFCURVE",
"252 -160 CURVE SMOOTH",
"253 -160 OFFCURVE",
"260 -159 OFFCURVE",
"266 -151 CURVE",
"291 -123 OFFCURVE",
"339 -58 OFFCURVE",
"355 -47 CURVE SMOOTH",
"375 -33 OFFCURVE",
"456 20 OFFCURVE",
"456 41 CURVE SMOOTH",
"456 52 OFFCURVE",
"450 66 OFFCURVE",
"442 66 CURVE SMOOTH",
"433 66 OFFCURVE",
"411 98 OFFCURVE",
"411 133 CURVE SMOOTH",
"411 375 LINE SMOOTH",
"411 437 OFFCURVE",
"445 439 OFFCURVE",
"445 457 CURVE SMOOTH"
);
}
);
width = 496;
}
);
unicode = 0032;
},
{
glyphname = three;
layers = (
{
layerId = "BA838D9B-820F-4674-98D0-BE3E112EAB76";
paths = (
{
closed = 1;
nodes = (
"465 579 OFFCURVE",
"482 624 OFFCURVE",
"482 645 CURVE SMOOTH",
"482 679 OFFCURVE",
"463 716 OFFCURVE",
"412 716 CURVE SMOOTH",
"371 716 OFFCURVE",
"328 674 OFFCURVE",
"328 645 CURVE SMOOTH",
"328 631 OFFCURVE",
"342 626 OFFCURVE",
"362 626 CURVE SMOOTH",
"375 626 OFFCURVE",
"385 635 OFFCURVE",
"396 635 CURVE SMOOTH",
"403 635 OFFCURVE",
"417 618 OFFCURVE",
"417 609 CURVE SMOOTH",
"417 596 OFFCURVE",
"424 579 OFFCURVE",
"442 579 CURVE SMOOTH"
);
},
{
closed = 1;
nodes = (
"450 487 OFFCURVE",
"434 501 OFFCURVE",
"414 515 CURVE",
"397 528 OFFCURVE",
"381 546 OFFCURVE",
"356 546 CURVE SMOOTH",
"343 546 OFFCURVE",
"328 528 OFFCURVE",
"307 514 CURVE",
"287 499 OFFCURVE",
"270 475 OFFCURVE",
"270 454 CURVE SMOOTH",
"270 440 OFFCURVE",
"307 429 OFFCURVE",
"307 375 CURVE SMOOTH",
"307 128 LINE SMOOTH",
"307 83 OFFCURVE",
"295 75 OFFCURVE",
"295 64 CURVE SMOOTH",
"295 35 OFFCURVE",
"307 31 OFFCURVE",
"328 17 CURVE SMOOTH",
"345 5 OFFCURVE",
"361 -14 OFFCURVE",
"386 -14 CURVE SMOOTH",
"395 -14 OFFCURVE",
"414 5 OFFCURVE",
"434 19 CURVE SMOOTH",
"455 33 OFFCURVE",
"472 43 OFFCURVE",
"472 61 CURVE SMOOTH",
"472 72 OFFCURVE",
"462 83 OFFCURVE",
"455 83 CURVE SMOOTH",
"442 83 OFFCURVE",
"416 99 OFFCURVE",
"416 133 CURVE SMOOTH",
"416 375 LINE SMOOTH",
"416 437 OFFCURVE",
"450 439 OFFCURVE",
"450 457 CURVE SMOOTH"
);
},
{
closed = 1;
nodes = (
"215 579 OFFCURVE",
"232 624 OFFCURVE",
"232 645 CURVE SMOOTH",
"232 679 OFFCURVE",
"213 716 OFFCURVE",
"162 716 CURVE SMOOTH",
"121 716 OFFCURVE",
"78 674 OFFCURVE",
"78 645 CURVE SMOOTH",
"78 631 OFFCURVE",
"92 626 OFFCURVE",
"112 626 CURVE SMOOTH",
"125 626 OFFCURVE",
"135 635 OFFCURVE",
"146 635 CURVE SMOOTH",
"153 635 OFFCURVE",
"167 618 OFFCURVE",
"167 609 CURVE SMOOTH",
"167 596 OFFCURVE",
"174 579 OFFCURVE",
"192 579 CURVE SMOOTH"
);
},
{
closed = 1;
nodes = (
"200 487 OFFCURVE",
"184 501 OFFCURVE",
"164 515 CURVE",
"147 528 OFFCURVE",
"131 546 OFFCURVE",
"106 546 CURVE SMOOTH",
"93 546 OFFCURVE",
"78 528 OFFCURVE",
"57 514 CURVE",
"37 499 OFFCURVE",
"20 475 OFFCURVE",
"20 454 CURVE SMOOTH",
"20 440 OFFCURVE",
"57 429 OFFCURVE",
"57 375 CURVE SMOOTH",
"57 128 LINE SMOOTH",
"57 83 OFFCURVE",
"45 75 OFFCURVE",
"45 64 CURVE SMOOTH",
"45 35 OFFCURVE",
"57 31 OFFCURVE",
"78 17 CURVE SMOOTH",
"95 5 OFFCURVE",
"111 -14 OFFCURVE",
"136 -14 CURVE SMOOTH",
"145 -14 OFFCURVE",
"164 5 OFFCURVE",
"184 19 CURVE SMOOTH",
"205 33 OFFCURVE",
"222 43 OFFCURVE",
"222 61 CURVE SMOOTH",
"222 72 OFFCURVE",
"212 83 OFFCURVE",
"205 83 CURVE SMOOTH",
"192 83 OFFCURVE",
"166 99 OFFCURVE",
"166 133 CURVE SMOOTH",
"166 375 LINE SMOOTH",
"166 437 OFFCURVE",
"200 439 OFFCURVE",
"200 457 CURVE SMOOTH"
);
},
{
closed = 1;
nodes = (
"709 579 OFFCURVE",
"726 624 OFFCURVE",
"726 644 CURVE SMOOTH",
"726 679 OFFCURVE",
"708 716 OFFCURVE",
"656 716 CURVE SMOOTH",
"616 716 OFFCURVE",
"572 674 OFFCURVE",
"572 644 CURVE SMOOTH",
"572 630 OFFCURVE",
"588 626 OFFCURVE",
"606 626 CURVE SMOOTH",
"619 626 OFFCURVE",
"630 635 OFFCURVE",
"641 635 CURVE SMOOTH",
"647 635 OFFCURVE",
"661 618 OFFCURVE",
"661 609 CURVE SMOOTH",
"661 596 OFFCURVE",
"669 579 OFFCURVE",
"686 579 CURVE SMOOTH"
);
},
{
closed = 1;
nodes = (
"695 487 OFFCURVE",
"680 501 OFFCURVE",
"659 515 CURVE SMOOTH",
"642 527 OFFCURVE",
"625 546 OFFCURVE",
"600 546 CURVE SMOOTH",
"588 546 OFFCURVE",
"572 527 OFFCURVE",
"552 513 CURVE SMOOTH",
"531 499 OFFCURVE",
"514 474 OFFCURVE",
"514 454 CURVE SMOOTH",
"514 440 OFFCURVE",
"552 429 OFFCURVE",
"552 375 CURVE SMOOTH",
"552 128 LINE SMOOTH",
"552 39 OFFCURVE",
"528 -49 OFFCURVE",
"483 -117 CURVE",
"478 -124 OFFCURVE",
"474 -131 OFFCURVE",
"474 -135 CURVE SMOOTH",
"474 -157 OFFCURVE",
"492 -160 OFFCURVE",
"502 -160 CURVE SMOOTH",
"503 -160 OFFCURVE",
"510 -159 OFFCURVE",
"516 -151 CURVE",
"541 -123 OFFCURVE",
"589 -58 OFFCURVE",
"605 -47 CURVE SMOOTH",
"625 -33 OFFCURVE",
"706 20 OFFCURVE",
"706 41 CURVE SMOOTH",
"706 52 OFFCURVE",
"700 66 OFFCURVE",
"692 66 CURVE SMOOTH",
"683 66 OFFCURVE",
"661 98 OFFCURVE",
"661 133 CURVE SMOOTH",
"661 375 LINE SMOOTH",
"661 437 OFFCURVE",
"695 439 OFFCURVE",
"695 457 CURVE SMOOTH"
);
}
);
width = 746;
}
);
unicode = 0033;
},
{
glyphname = four;
layers = (
{
layerId = "BA838D9B-820F-4674-98D0-BE3E112EAB76";
paths = (
{
closed = 1;
nodes = (
"215 579 OFFCURVE",
"232 624 OFFCURVE",
"232 645 CURVE SMOOTH",
"232 679 OFFCURVE",
"213 716 OFFCURVE",
"162 716 CURVE SMOOTH",
"121 716 OFFCURVE",
"78 674 OFFCURVE",
"78 645 CURVE SMOOTH",
"78 631 OFFCURVE",
"92 626 OFFCURVE",
"112 626 CURVE SMOOTH",
"125 626 OFFCURVE",
"135 635 OFFCURVE",
"146 635 CURVE SMOOTH",
"153 635 OFFCURVE",
"167 618 OFFCURVE",
"167 609 CURVE SMOOTH",
"167 596 OFFCURVE",
"174 579 OFFCURVE",
"192 579 CURVE SMOOTH"
);
},
{
closed = 1;
nodes = (
"200 487 OFFCURVE",
"184 501 OFFCURVE",
"164 515 CURVE",
"147 528 OFFCURVE",
"131 546 OFFCURVE",
"106 546 CURVE SMOOTH",
"93 546 OFFCURVE",
"78 528 OFFCURVE",
"57 514 CURVE",
"37 499 OFFCURVE",
"20 475 OFFCURVE",
"20 454 CURVE SMOOTH",
"20 440 OFFCURVE",
"57 429 OFFCURVE",
"57 375 CURVE SMOOTH",
"57 128 LINE SMOOTH",
"57 83 OFFCURVE",
"45 75 OFFCURVE",
"45 64 CURVE SMOOTH",
"45 35 OFFCURVE",
"57 31 OFFCURVE",
"78 17 CURVE SMOOTH",
"95 5 OFFCURVE",
"111 -14 OFFCURVE",
"136 -14 CURVE SMOOTH",
"145 -14 OFFCURVE",
"164 5 OFFCURVE",
"184 19 CURVE SMOOTH",
"205 33 OFFCURVE",
"222 43 OFFCURVE",
"222 61 CURVE SMOOTH",
"222 72 OFFCURVE",
"212 83 OFFCURVE",
"205 83 CURVE SMOOTH",
"192 83 OFFCURVE",
"166 99 OFFCURVE",
"166 133 CURVE SMOOTH",
"166 375 LINE SMOOTH",
"166 437 OFFCURVE",
"200 439 OFFCURVE",
"200 457 CURVE SMOOTH"
);
},
{
closed = 1;
nodes = (
"660 374 LINE SMOOTH",
"660 410 OFFCURVE",
"676 433 OFFCURVE",
"676 461 CURVE SMOOTH",
"676 479 OFFCURVE",
"659 482 OFFCURVE",
"638 503 CURVE",
"626 518 OFFCURVE",
"613 546 OFFCURVE",
"595 546 CURVE SMOOTH",
"585 546 OFFCURVE",
"567 533 OFFCURVE",
"546 514 CURVE SMOOTH",
"526 496 OFFCURVE",
"498 482 OFFCURVE",
"498 461 CURVE SMOOTH",
"498 447 OFFCURVE",
"520 438 OFFCURVE",
"528 438 CURVE SMOOTH",
"548 438 OFFCURVE",
"551 390 OFFCURVE",
"551 374 CURVE SMOOTH",
"551 149 LINE",
"549 107 OFFCURVE",
"546 71 OFFCURVE",
"506 71 CURVE SMOOTH",
"471 71 OFFCURVE",
"431 84 OFFCURVE",
"431 148 CURVE SMOOTH",
"431 374 LINE SMOOTH",
"431 410 OFFCURVE",
"446 433 OFFCURVE",
"446 461 CURVE SMOOTH",
"446 479 OFFCURVE",
"429 482 OFFCURVE",
"409 503 CURVE",
"397 518 OFFCURVE",
"384 546 OFFCURVE",
"365 546 CURVE SMOOTH",
"356 546 OFFCURVE",
"337 533 OFFCURVE",
"317 514 CURVE SMOOTH",
"297 496 OFFCURVE",
"269 482 OFFCURVE",
"269 461 CURVE SMOOTH",
"269 447 OFFCURVE",
"290 438 OFFCURVE",
"298 438 CURVE SMOOTH",
"319 438 OFFCURVE",
"322 390 OFFCURVE",
"322 374 CURVE SMOOTH",
"322 134 LINE SMOOTH",
"322 89 OFFCURVE",
"290 71 OFFCURVE",
"290 59 CURVE SMOOTH",
"290 37 OFFCURVE",
"322 26 OFFCURVE",
"342 20 CURVE SMOOTH",
"362 14 OFFCURVE",
"457 -32 OFFCURVE",
"482 -32 CURVE SMOOTH",
"507 -32 OFFCURVE",
"542 3 OFFCURVE",
"579 31 CURVE SMOOTH",
"623 64 OFFCURVE",
"670 93 OFFCURVE",
"670 113 CURVE SMOOTH",
"670 134 OFFCURVE",
"660 162 OFFCURVE",
"660 182 CURVE SMOOTH"
);
}
);
width = 696;
}
);
unicode = 0034;
},
{
glyphname = five;
layers = (
{
layerId = "BA838D9B-820F-4674-98D0-BE3E112EAB76";
paths = (
{
closed = 1;
nodes = (
"411 374 LINE SMOOTH",
"411 410 OFFCURVE",
"427 433 OFFCURVE",
"427 461 CURVE SMOOTH",
"427 479 OFFCURVE",
"410 482 OFFCURVE",
"389 503 CURVE",
"377 518 OFFCURVE",
"364 546 OFFCURVE",
"346 546 CURVE SMOOTH",
"336 546 OFFCURVE",
"318 533 OFFCURVE",
"297 514 CURVE SMOOTH",
"277 496 OFFCURVE",
"249 482 OFFCURVE",
"249 461 CURVE SMOOTH",
"249 447 OFFCURVE",
"271 438 OFFCURVE",
"279 438 CURVE SMOOTH",
"299 438 OFFCURVE",
"302 390 OFFCURVE",
"302 374 CURVE SMOOTH",
"302 149 LINE",
"300 107 OFFCURVE",
"297 71 OFFCURVE",
"257 71 CURVE SMOOTH",
"222 71 OFFCURVE",
"182 84 OFFCURVE",
"182 148 CURVE SMOOTH",
"182 374 LINE SMOOTH",
"182 410 OFFCURVE",
"197 433 OFFCURVE",
"197 461 CURVE SMOOTH",
"197 479 OFFCURVE",
"180 482 OFFCURVE",
"160 503 CURVE",
"148 518 OFFCURVE",
"135 546 OFFCURVE",
"116 546 CURVE SMOOTH",
"107 546 OFFCURVE",
"88 533 OFFCURVE",
"68 514 CURVE SMOOTH",
"48 496 OFFCURVE",
"20 482 OFFCURVE",
"20 461 CURVE SMOOTH",
"20 447 OFFCURVE",
"41 438 OFFCURVE",
"49 438 CURVE SMOOTH",
"70 438 OFFCURVE",
"73 390 OFFCURVE",
"73 374 CURVE SMOOTH",
"73 134 LINE SMOOTH",
"73 89 OFFCURVE",
"41 71 OFFCURVE",
"41 59 CURVE SMOOTH",
"41 37 OFFCURVE",
"73 26 OFFCURVE",
"93 20 CURVE SMOOTH",
"113 14 OFFCURVE",
"208 -32 OFFCURVE",
"233 -32 CURVE SMOOTH",
"258 -32 OFFCURVE",
"293 3 OFFCURVE",
"330 31 CURVE SMOOTH",
"374 64 OFFCURVE",
"421 93 OFFCURVE",
"421 113 CURVE SMOOTH",
"421 134 OFFCURVE",
"411 162 OFFCURVE",
"411 182 CURVE SMOOTH"
);
}
);
width = 447;
}
);
unicode = 0035;
},
{
glyphname = six;
layers = (
{
layerId = "BA838D9B-820F-4674-98D0-BE3E112EAB76";
paths = (
{
closed = 1;
nodes = (
"411 374 LINE SMOOTH",
"411 410 OFFCURVE",
"427 433 OFFCURVE",
"427 461 CURVE SMOOTH",
"427 479 OFFCURVE",
"410 482 OFFCURVE",
"389 503 CURVE",
"377 518 OFFCURVE",
"364 546 OFFCURVE",
"346 546 CURVE SMOOTH",
"336 546 OFFCURVE",
"318 533 OFFCURVE",
"297 514 CURVE SMOOTH",
"277 496 OFFCURVE",
"249 482 OFFCURVE",
"249 461 CURVE SMOOTH",
"249 447 OFFCURVE",
"271 438 OFFCURVE",
"279 438 CURVE SMOOTH",
"299 438 OFFCURVE",
"302 390 OFFCURVE",
"302 374 CURVE SMOOTH",
"302 149 LINE",
"300 107 OFFCURVE",
"297 71 OFFCURVE",
"257 71 CURVE SMOOTH",
"222 71 OFFCURVE",
"182 84 OFFCURVE",
"182 148 CURVE SMOOTH",
"182 374 LINE SMOOTH",
"182 410 OFFCURVE",
"197 433 OFFCURVE",
"197 461 CURVE SMOOTH",
"197 479 OFFCURVE",
"180 482 OFFCURVE",
"160 503 CURVE",
"148 518 OFFCURVE",
"135 546 OFFCURVE",
"116 546 CURVE SMOOTH",
"107 546 OFFCURVE",
"88 533 OFFCURVE",
"68 514 CURVE SMOOTH",
"48 496 OFFCURVE",
"20 482 OFFCURVE",
"20 461 CURVE SMOOTH",
"20 447 OFFCURVE",
"41 438 OFFCURVE",
"49 438 CURVE SMOOTH",
"70 438 OFFCURVE",
"73 390 OFFCURVE",
"73 374 CURVE SMOOTH",
"73 134 LINE SMOOTH",
"73 89 OFFCURVE",
"41 71 OFFCURVE",
"41 59 CURVE SMOOTH",
"41 37 OFFCURVE",
"73 26 OFFCURVE",
"93 20 CURVE SMOOTH",
"113 14 OFFCURVE",
"208 -32 OFFCURVE",
"233 -32 CURVE SMOOTH",
"258 -32 OFFCURVE",
"293 3 OFFCURVE",
"330 31 CURVE SMOOTH",
"374 64 OFFCURVE",
"421 93 OFFCURVE",
"421 113 CURVE SMOOTH",
"421 134 OFFCURVE",
"411 162 OFFCURVE",
"411 182 CURVE SMOOTH"
);
},
{
closed = 1;
nodes = (
"662 579 OFFCURVE",
"679 624 OFFCURVE",
"679 645 CURVE SMOOTH",
"679 679 OFFCURVE",
"660 716 OFFCURVE",
"609 716 CURVE SMOOTH",
"568 716 OFFCURVE",
"525 674 OFFCURVE",
"525 645 CURVE SMOOTH",
"525 631 OFFCURVE",
"539 626 OFFCURVE",
"559 626 CURVE SMOOTH",
"572 626 OFFCURVE",
"582 635 OFFCURVE",
"593 635 CURVE SMOOTH",
"600 635 OFFCURVE",
"614 618 OFFCURVE",
"614 609 CURVE SMOOTH",
"614 596 OFFCURVE",
"621 579 OFFCURVE",
"639 579 CURVE SMOOTH"
);
},
{
closed = 1;
nodes = (
"647 487 OFFCURVE",
"631 501 OFFCURVE",
"611 515 CURVE",
"594 528 OFFCURVE",
"578 546 OFFCURVE",
"553 546 CURVE SMOOTH",
"540 546 OFFCURVE",
"525 528 OFFCURVE",
"504 514 CURVE",
"484 499 OFFCURVE",
"467 475 OFFCURVE",
"467 454 CURVE SMOOTH",
"467 440 OFFCURVE",
"504 429 OFFCURVE",
"504 375 CURVE SMOOTH",
"504 128 LINE SMOOTH",
"504 83 OFFCURVE",
"492 75 OFFCURVE",
"492 64 CURVE SMOOTH",
"492 35 OFFCURVE",
"504 31 OFFCURVE",
"525 17 CURVE SMOOTH",
"542 5 OFFCURVE",
"558 -14 OFFCURVE",
"583 -14 CURVE SMOOTH",
"592 -14 OFFCURVE",
"611 5 OFFCURVE",
"631 19 CURVE SMOOTH",
"652 33 OFFCURVE",
"669 43 OFFCURVE",
"669 61 CURVE SMOOTH",
"669 72 OFFCURVE",
"659 83 OFFCURVE",
"652 83 CURVE SMOOTH",
"639 83 OFFCURVE",
"613 99 OFFCURVE",
"613 133 CURVE SMOOTH",
"613 375 LINE SMOOTH",
"613 437 OFFCURVE",
"647 439 OFFCURVE",
"647 457 CURVE SMOOTH"
);
}
);
width = 699;
}
);
unicode = 0036;
},
{
glyphname = seven;
layers = (
{
layerId = "BA838D9B-820F-4674-98D0-BE3E112EAB76";
paths = (
{
closed = 1;
nodes = (
"411 374 LINE SMOOTH",
"411 410 OFFCURVE",
"427 433 OFFCURVE",
"427 461 CURVE SMOOTH",
"427 479 OFFCURVE",
"410 482 OFFCURVE",
"389 503 CURVE",
"377 518 OFFCURVE",
"364 546 OFFCURVE",
"346 546 CURVE SMOOTH",
"336 546 OFFCURVE",
"318 533 OFFCURVE",
"297 514 CURVE SMOOTH",
"277 496 OFFCURVE",
"249 482 OFFCURVE",
"249 461 CURVE SMOOTH",
"249 447 OFFCURVE",
"271 438 OFFCURVE",
"279 438 CURVE SMOOTH",
"299 438 OFFCURVE",
"302 390 OFFCURVE",
"302 374 CURVE SMOOTH",
"302 149 LINE",
"300 107 OFFCURVE",
"297 71 OFFCURVE",
"257 71 CURVE SMOOTH",
"222 71 OFFCURVE",
"182 84 OFFCURVE",
"182 148 CURVE SMOOTH",
"182 374 LINE SMOOTH",
"182 410 OFFCURVE",
"197 433 OFFCURVE",
"197 461 CURVE SMOOTH",
"197 479 OFFCURVE",
"180 482 OFFCURVE",
"160 503 CURVE",
"148 518 OFFCURVE",
"135 546 OFFCURVE",
"116 546 CURVE SMOOTH",
"107 546 OFFCURVE",
"88 533 OFFCURVE",
"68 514 CURVE SMOOTH",
"48 496 OFFCURVE",
"20 482 OFFCURVE",
"20 461 CURVE SMOOTH",
"20 447 OFFCURVE",
"41 438 OFFCURVE",
"49 438 CURVE SMOOTH",
"70 438 OFFCURVE",
"73 390 OFFCURVE",
"73 374 CURVE SMOOTH",
"73 134 LINE SMOOTH",
"73 89 OFFCURVE",
"41 71 OFFCURVE",
"41 59 CURVE SMOOTH",
"41 37 OFFCURVE",
"73 26 OFFCURVE",
"93 20 CURVE SMOOTH",
"113 14 OFFCURVE",
"208 -32 OFFCURVE",
"233 -32 CURVE SMOOTH",
"258 -32 OFFCURVE",
"293 3 OFFCURVE",
"330 31 CURVE SMOOTH",
"374 64 OFFCURVE",
"421 93 OFFCURVE",
"421 113 CURVE SMOOTH",
"421 134 OFFCURVE",
"411 162 OFFCURVE",
"411 182 CURVE SMOOTH"
);
},
{
closed = 1;
nodes = (
"662 579 OFFCURVE",
"679 624 OFFCURVE",
"679 645 CURVE SMOOTH",
"679 679 OFFCURVE",
"660 716 OFFCURVE",
"609 716 CURVE SMOOTH",
"568 716 OFFCURVE",
"525 674 OFFCURVE",
"525 645 CURVE SMOOTH",
"525 631 OFFCURVE",
"539 626 OFFCURVE",
"559 626 CURVE SMOOTH",
"572 626 OFFCURVE",
"582 635 OFFCURVE",
"593 635 CURVE SMOOTH",
"600 635 OFFCURVE",
"614 618 OFFCURVE",
"614 609 CURVE SMOOTH",
"614 596 OFFCURVE",
"621 579 OFFCURVE",
"639 579 CURVE SMOOTH"
);
},
{
closed = 1;
nodes = (
"647 487 OFFCURVE",
"631 501 OFFCURVE",
"611 515 CURVE",
"594 528 OFFCURVE",
"578 546 OFFCURVE",
"553 546 CURVE SMOOTH",
"540 546 OFFCURVE",
"525 528 OFFCURVE",
"504 514 CURVE",
"484 499 OFFCURVE",
"467 475 OFFCURVE",
"467 454 CURVE SMOOTH",
"467 440 OFFCURVE",
"504 429 OFFCURVE",
"504 375 CURVE SMOOTH",
"504 128 LINE SMOOTH",
"504 83 OFFCURVE",
"492 75 OFFCURVE",
"492 64 CURVE SMOOTH",
"492 35 OFFCURVE",
"504 31 OFFCURVE",
"525 17 CURVE SMOOTH",
"542 5 OFFCURVE",
"558 -14 OFFCURVE",
"583 -14 CURVE SMOOTH",
"592 -14 OFFCURVE",
"611 5 OFFCURVE",
"631 19 CURVE SMOOTH",
"652 33 OFFCURVE",
"669 43 OFFCURVE",
"669 61 CURVE SMOOTH",
"669 72 OFFCURVE",
"659 83 OFFCURVE",
"652 83 CURVE SMOOTH",
"639 83 OFFCURVE",
"613 99 OFFCURVE",
"613 133 CURVE SMOOTH",
"613 375 LINE SMOOTH",
"613 437 OFFCURVE",
"647 439 OFFCURVE",
"647 457 CURVE SMOOTH"
);
},
{
closed = 1;
nodes = (
"906 579 OFFCURVE",
"923 624 OFFCURVE",
"923 644 CURVE SMOOTH",
"923 679 OFFCURVE",
"905 716 OFFCURVE",
"853 716 CURVE SMOOTH",
"813 716 OFFCURVE",
"769 674 OFFCURVE",
"769 644 CURVE SMOOTH",
"769 630 OFFCURVE",
"785 626 OFFCURVE",
"803 626 CURVE SMOOTH",
"816 626 OFFCURVE",
"827 635 OFFCURVE",
"838 635 CURVE SMOOTH",
"844 635 OFFCURVE",
"858 618 OFFCURVE",
"858 609 CURVE SMOOTH",
"858 596 OFFCURVE",
"866 579 OFFCURVE",
"883 579 CURVE SMOOTH"
);
},
{
closed = 1;
nodes = (
"892 487 OFFCURVE",
"877 501 OFFCURVE",
"856 515 CURVE SMOOTH",
"839 527 OFFCURVE",
"822 546 OFFCURVE",
"797 546 CURVE SMOOTH",
"785 546 OFFCURVE",
"769 527 OFFCURVE",
"749 513 CURVE SMOOTH",
"728 499 OFFCURVE",
"711 474 OFFCURVE",
"711 454 CURVE SMOOTH",
"711 440 OFFCURVE",
"749 429 OFFCURVE",
"749 375 CURVE SMOOTH",
"749 128 LINE SMOOTH",
"749 39 OFFCURVE",
"725 -49 OFFCURVE",
"680 -117 CURVE",
"675 -124 OFFCURVE",
"671 -131 OFFCURVE",
"671 -135 CURVE SMOOTH",
"671 -157 OFFCURVE",
"689 -160 OFFCURVE",
"699 -160 CURVE SMOOTH",
"700 -160 OFFCURVE",
"707 -159 OFFCURVE",
"713 -151 CURVE",
"738 -123 OFFCURVE",
"786 -58 OFFCURVE",
"802 -47 CURVE SMOOTH",
"822 -33 OFFCURVE",
"903 20 OFFCURVE",
"903 41 CURVE SMOOTH",
"903 52 OFFCURVE",
"897 66 OFFCURVE",
"889 66 CURVE SMOOTH",
"880 66 OFFCURVE",
"858 98 OFFCURVE",
"858 133 CURVE SMOOTH",
"858 375 LINE SMOOTH",
"858 437 OFFCURVE",
"892 439 OFFCURVE",
"892 457 CURVE SMOOTH"
);
}
);
width = 943;
}
);
unicode = 0037;
},
{
glyphname = eight;
layers = (
{
layerId = "BA838D9B-820F-4674-98D0-BE3E112EAB76";
paths = (
{
closed = 1;
nodes = (
"411 374 LINE SMOOTH",
"411 410 OFFCURVE",
"427 433 OFFCURVE",
"427 461 CURVE SMOOTH",
"427 479 OFFCURVE",
"410 482 OFFCURVE",
"389 503 CURVE",
"377 518 OFFCURVE",
"364 546 OFFCURVE",
"346 546 CURVE SMOOTH",
"336 546 OFFCURVE",
"318 533 OFFCURVE",
"297 514 CURVE SMOOTH",
"277 496 OFFCURVE",
"249 482 OFFCURVE",
"249 461 CURVE SMOOTH",
"249 447 OFFCURVE",
"271 438 OFFCURVE",
"279 438 CURVE SMOOTH",
"299 438 OFFCURVE",
"302 390 OFFCURVE",
"302 374 CURVE SMOOTH",
"302 149 LINE",
"300 107 OFFCURVE",
"297 71 OFFCURVE",
"257 71 CURVE SMOOTH",
"222 71 OFFCURVE",
"182 84 OFFCURVE",
"182 148 CURVE SMOOTH",
"182 374 LINE SMOOTH",
"182 410 OFFCURVE",
"197 433 OFFCURVE",
"197 461 CURVE SMOOTH",
"197 479 OFFCURVE",
"180 482 OFFCURVE",
"160 503 CURVE",
"148 518 OFFCURVE",
"135 546 OFFCURVE",
"116 546 CURVE SMOOTH",
"107 546 OFFCURVE",
"88 533 OFFCURVE",
"68 514 CURVE SMOOTH",
"48 496 OFFCURVE",
"20 482 OFFCURVE",
"20 461 CURVE SMOOTH",
"20 447 OFFCURVE",
"41 438 OFFCURVE",
"49 438 CURVE SMOOTH",
"70 438 OFFCURVE",
"73 390 OFFCURVE",
"73 374 CURVE SMOOTH",
"73 134 LINE SMOOTH",
"73 89 OFFCURVE",
"41 71 OFFCURVE",
"41 59 CURVE SMOOTH",
"41 37 OFFCURVE",
"73 26 OFFCURVE",
"93 20 CURVE SMOOTH",
"113 14 OFFCURVE",
"208 -32 OFFCURVE",
"233 -32 CURVE SMOOTH",
"258 -32 OFFCURVE",
"293 3 OFFCURVE",
"330 31 CURVE SMOOTH",
"374 64 OFFCURVE",
"421 93 OFFCURVE",
"421 113 CURVE SMOOTH",
"421 134 OFFCURVE",
"411 162 OFFCURVE",
"411 182 CURVE SMOOTH"
);
},
{
closed = 1;
nodes = (
"912 579 OFFCURVE",
"929 624 OFFCURVE",
"929 645 CURVE SMOOTH",
"929 679 OFFCURVE",
"910 716 OFFCURVE",
"859 716 CURVE SMOOTH",
"818 716 OFFCURVE",
"775 674 OFFCURVE",
"775 645 CURVE SMOOTH",
"775 631 OFFCURVE",
"789 626 OFFCURVE",
"809 626 CURVE SMOOTH",
"822 626 OFFCURVE",
"832 635 OFFCURVE",
"843 635 CURVE SMOOTH",
"850 635 OFFCURVE",
"864 618 OFFCURVE",
"864 609 CURVE SMOOTH",
"864 596 OFFCURVE",
"871 579 OFFCURVE",
"889 579 CURVE SMOOTH"
);
},
{
closed = 1;
nodes = (
"897 487 OFFCURVE",
"881 501 OFFCURVE",
"861 515 CURVE",
"844 528 OFFCURVE",
"828 546 OFFCURVE",
"803 546 CURVE SMOOTH",
"790 546 OFFCURVE",
"775 528 OFFCURVE",
"754 514 CURVE",
"734 499 OFFCURVE",
"717 475 OFFCURVE",
"717 454 CURVE SMOOTH",
"717 440 OFFCURVE",
"754 429 OFFCURVE",
"754 375 CURVE SMOOTH",
"754 128 LINE SMOOTH",
"754 83 OFFCURVE",
"742 75 OFFCURVE",
"742 64 CURVE SMOOTH",
"742 35 OFFCURVE",
"754 31 OFFCURVE",
"775 17 CURVE SMOOTH",
"792 5 OFFCURVE",
"808 -14 OFFCURVE",
"833 -14 CURVE SMOOTH",
"842 -14 OFFCURVE",
"861 5 OFFCURVE",
"881 19 CURVE SMOOTH",
"902 33 OFFCURVE",
"919 43 OFFCURVE",
"919 61 CURVE SMOOTH",
"919 72 OFFCURVE",
"909 83 OFFCURVE",
"902 83 CURVE SMOOTH",
"889 83 OFFCURVE",
"863 99 OFFCURVE",
"863 133 CURVE SMOOTH",
"863 375 LINE SMOOTH",
"863 437 OFFCURVE",
"897 439 OFFCURVE",
"897 457 CURVE SMOOTH"
);
},
{
closed = 1;
nodes = (
"662 579 OFFCURVE",
"679 624 OFFCURVE",
"679 645 CURVE SMOOTH",
"679 679 OFFCURVE",
"660 716 OFFCURVE",
"609 716 CURVE SMOOTH",
"568 716 OFFCURVE",
"525 674 OFFCURVE",
"525 645 CURVE SMOOTH",
"525 631 OFFCURVE",
"539 626 OFFCURVE",
"559 626 CURVE SMOOTH",
"572 626 OFFCURVE",
"582 635 OFFCURVE",
"593 635 CURVE SMOOTH",
"600 635 OFFCURVE",
"614 618 OFFCURVE",
"614 609 CURVE SMOOTH",
"614 596 OFFCURVE",
"621 579 OFFCURVE",
"639 579 CURVE SMOOTH"
);
},
{
closed = 1;
nodes = (
"647 487 OFFCURVE",
"631 501 OFFCURVE",
"611 515 CURVE",
"594 528 OFFCURVE",
"578 546 OFFCURVE",
"553 546 CURVE SMOOTH",
"540 546 OFFCURVE",
"525 528 OFFCURVE",
"504 514 CURVE",
"484 499 OFFCURVE",
"467 475 OFFCURVE",
"467 454 CURVE SMOOTH",
"467 440 OFFCURVE",
"504 429 OFFCURVE",
"504 375 CURVE SMOOTH",
"504 128 LINE SMOOTH",
"504 83 OFFCURVE",
"492 75 OFFCURVE",
"492 64 CURVE SMOOTH",
"492 35 OFFCURVE",
"504 31 OFFCURVE",
"525 17 CURVE SMOOTH",
"542 5 OFFCURVE",
"558 -14 OFFCURVE",
"583 -14 CURVE SMOOTH",
"592 -14 OFFCURVE",
"611 5 OFFCURVE",
"631 19 CURVE SMOOTH",
"652 33 OFFCURVE",
"669 43 OFFCURVE",
"669 61 CURVE SMOOTH",
"669 72 OFFCURVE",
"659 83 OFFCURVE",
"652 83 CURVE SMOOTH",
"639 83 OFFCURVE",
"613 99 OFFCURVE",
"613 133 CURVE SMOOTH",
"613 375 LINE SMOOTH",
"613 437 OFFCURVE",
"647 439 OFFCURVE",
"647 457 CURVE SMOOTH"
);
},
{
closed = 1;
nodes = (
"1156 579 OFFCURVE",
"1173 624 OFFCURVE",
"1173 644 CURVE SMOOTH",
"1173 679 OFFCURVE",
"1155 716 OFFCURVE",
"1103 716 CURVE SMOOTH",
"1063 716 OFFCURVE",
"1019 674 OFFCURVE",
"1019 644 CURVE SMOOTH",
"1019 630 OFFCURVE",
"1035 626 OFFCURVE",
"1053 626 CURVE SMOOTH",
"1066 626 OFFCURVE",
"1077 635 OFFCURVE",
"1088 635 CURVE SMOOTH",
"1094 635 OFFCURVE",
"1108 618 OFFCURVE",
"1108 609 CURVE SMOOTH",
"1108 596 OFFCURVE",
"1116 579 OFFCURVE",
"1133 579 CURVE SMOOTH"
);
},
{
closed = 1;
nodes = (
"1142 487 OFFCURVE",
"1127 501 OFFCURVE",
"1106 515 CURVE SMOOTH",
"1089 527 OFFCURVE",
"1072 546 OFFCURVE",
"1047 546 CURVE SMOOTH",
"1035 546 OFFCURVE",
"1019 527 OFFCURVE",
"999 513 CURVE SMOOTH",
"978 499 OFFCURVE",
"961 474 OFFCURVE",
"961 454 CURVE SMOOTH",
"961 440 OFFCURVE",
"999 429 OFFCURVE",
"999 375 CURVE SMOOTH",
"999 128 LINE SMOOTH",
"999 39 OFFCURVE",
"975 -49 OFFCURVE",
"930 -117 CURVE",
"925 -124 OFFCURVE",
"921 -131 OFFCURVE",
"921 -135 CURVE SMOOTH",
"921 -157 OFFCURVE",
"939 -160 OFFCURVE",
"949 -160 CURVE SMOOTH",
"950 -160 OFFCURVE",
"957 -159 OFFCURVE",
"963 -151 CURVE",
"988 -123 OFFCURVE",
"1036 -58 OFFCURVE",
"1052 -47 CURVE SMOOTH",
"1072 -33 OFFCURVE",
"1153 20 OFFCURVE",
"1153 41 CURVE SMOOTH",
"1153 52 OFFCURVE",
"1147 66 OFFCURVE",
"1139 66 CURVE SMOOTH",
"1130 66 OFFCURVE",
"1108 98 OFFCURVE",
"1108 133 CURVE SMOOTH",
"1108 375 LINE SMOOTH",
"1108 437 OFFCURVE",
"1142 439 OFFCURVE",
"1142 457 CURVE SMOOTH"
);
}
);
width = 1193;
}
);
unicode = 0038;
},
{
glyphname = nine;
lastChange = "2015-02-26 08:48:42 +0000";
layers = (
{
layerId = "BA838D9B-820F-4674-98D0-BE3E112EAB76";
paths = (
{
closed = 1;
nodes = (
"215 579 OFFCURVE",
"232 624 OFFCURVE",
"232 645 CURVE SMOOTH",
"232 679 OFFCURVE",
"213 716 OFFCURVE",
"162 716 CURVE SMOOTH",
"121 716 OFFCURVE",
"78 674 OFFCURVE",
"78 645 CURVE SMOOTH",
"78 631 OFFCURVE",
"92 626 OFFCURVE",
"112 626 CURVE SMOOTH",
"125 626 OFFCURVE",
"135 635 OFFCURVE",
"146 635 CURVE SMOOTH",
"153 635 OFFCURVE",
"167 618 OFFCURVE",
"167 609 CURVE SMOOTH",
"167 596 OFFCURVE",
"174 579 OFFCURVE",
"192 579 CURVE SMOOTH"
);
},
{
closed = 1;
nodes = (
"200 487 OFFCURVE",
"184 501 OFFCURVE",
"164 515 CURVE",
"147 528 OFFCURVE",
"131 546 OFFCURVE",
"106 546 CURVE SMOOTH",
"93 546 OFFCURVE",
"78 528 OFFCURVE",
"57 514 CURVE",
"37 499 OFFCURVE",
"20 475 OFFCURVE",
"20 454 CURVE SMOOTH",
"20 440 OFFCURVE",
"57 429 OFFCURVE",
"57 375 CURVE SMOOTH",
"57 128 LINE SMOOTH",
"57 83 OFFCURVE",
"45 75 OFFCURVE",
"45 64 CURVE SMOOTH",
"45 35 OFFCURVE",
"57 31 OFFCURVE",
"78 17 CURVE SMOOTH",
"95 5 OFFCURVE",
"111 -14 OFFCURVE",
"136 -14 CURVE SMOOTH",
"145 -14 OFFCURVE",
"164 5 OFFCURVE",
"184 19 CURVE SMOOTH",
"205 33 OFFCURVE",
"222 43 OFFCURVE",
"222 61 CURVE SMOOTH",
"222 72 OFFCURVE",
"212 83 OFFCURVE",
"205 83 CURVE SMOOTH",
"192 83 OFFCURVE",
"166 99 OFFCURVE",
"166 133 CURVE SMOOTH",
"166 375 LINE SMOOTH",
"166 437 OFFCURVE",
"200 439 OFFCURVE",
"200 457 CURVE SMOOTH"
);
},
{
closed = 1;
nodes = (
"353 47 OFFCURVE",
"393 -14 OFFCURVE",
"418 -14 CURVE SMOOTH",
"446 -14 OFFCURVE",
"490 -8 OFFCURVE",
"504 12 CURVE SMOOTH",
"518 32 OFFCURVE",
"562 65 OFFCURVE",
"562 85 CURVE SMOOTH",
"562 96 OFFCURVE",
"556 99 OFFCURVE",
"548 99 CURVE SMOOTH",
"538 99 OFFCURVE",
"509 68 OFFCURVE",
"485 68 CURVE SMOOTH",
"451 68 OFFCURVE",
"434 107 OFFCURVE",
"434 160 CURVE SMOOTH",
"434 196 LINE SMOOTH",
"434 210 OFFCURVE",
"451 223 OFFCURVE",
"473 223 CURVE SMOOTH",
"501 223 LINE SMOOTH",
"529 223 OFFCURVE",
"535 213 OFFCURVE",
"552 213 CURVE SMOOTH",
"560 213 OFFCURVE",
"573 249 OFFCURVE",
"573 268 CURVE SMOOTH",
"573 288 OFFCURVE",
"570 301 OFFCURVE",
"552 301 CURVE SMOOTH",
"487 301 LINE SMOOTH",
"470 301 OFFCURVE",
"434 302 OFFCURVE",
"434 322 CURVE SMOOTH",
"434 430 LINE",
"476 430 LINE SMOOTH",
"485 430 OFFCURVE",
"499 427 OFFCURVE",
"503 424 CURVE",
"518 411 OFFCURVE",
"521 402 OFFCURVE",
"543 402 CURVE SMOOTH",
"565 402 OFFCURVE",
"585 436 OFFCURVE",
"585 464 CURVE SMOOTH",
"585 468 OFFCURVE",
"579 546 OFFCURVE",
"531 546 CURVE SMOOTH",
"520 546 OFFCURVE",
"515 525 OFFCURVE",
"504 508 CURVE SMOOTH",
"493 492 OFFCURVE",
"481 479 OFFCURVE",
"467 479 CURVE SMOOTH",
"440 479 LINE SMOOTH",
"421 479 OFFCURVE",
"404 497 OFFCURVE",
"398 508 CURVE SMOOTH",
"389 524 OFFCURVE",
"387 546 OFFCURVE",
"362 546 CURVE SMOOTH",
"350 546 OFFCURVE",
"337 516 OFFCURVE",
"317 502 CURVE SMOOTH",
"297 488 OFFCURVE",
"272 477 OFFCURVE",
"272 457 CURVE SMOOTH",
"272 443 OFFCURVE",
"325 433 OFFCURVE",
"325 379 CURVE SMOOTH",
"325 335 LINE SMOOTH",
"325 305 OFFCURVE",
"309 297 OFFCURVE",
"303 293 CURVE",
"290 283 OFFCURVE",
"272 274 OFFCURVE",
"272 263 CURVE SMOOTH",
"272 244 OFFCURVE",
"294 235 OFFCURVE",
"314 235 CURVE SMOOTH",
"320 235 OFFCURVE",
"325 213 OFFCURVE",
"325 202 CURVE SMOOTH",
"325 156 OFFCURVE",
"314 122 OFFCURVE",
"300 92 CURVE SMOOTH",
"282 52 OFFCURVE",
"261 19 OFFCURVE",
"261 -22 CURVE SMOOTH",
"261 -39 OFFCURVE",
"270 -75 OFFCURVE",
"279 -89 CURVE SMOOTH",
"314 -141 OFFCURVE",
"357 -172 OFFCURVE",
"420 -172 CURVE SMOOTH",
"465 -172 OFFCURVE",
"513 -152 OFFCURVE",
"548 -122 CURVE",
"556 -116 OFFCURVE",
"556 -110 OFFCURVE",
"556 -99 CURVE SMOOTH",
"556 -93 OFFCURVE",
"545 -89 OFFCURVE",
"535 -89 CURVE SMOOTH",
"528 -89 OFFCURVE",
"445 -123 OFFCURVE",
"406 -123 CURVE SMOOTH",
"348 -123 OFFCURVE",
"301 -80 OFFCURVE",
"301 -10 CURVE SMOOTH",
"301 12 OFFCURVE",
"306 47 OFFCURVE",
"333 47 CURVE SMOOTH"
);
}
);
width = 605;
}
);
unicode = 0039;
},
{
glyphname = zero;
layers = (
{
layerId = "BA838D9B-820F-4674-98D0-BE3E112EAB76";
paths = (
{
closed = 1;
nodes = (
"542 699 LINE",
"20 699 LINE",
"20 -135 LINE",
"542 -135 LINE"
);
},
{
closed = 1;
nodes = (
"104 89 OFFCURVE",
"155 128 OFFCURVE",
"167 140 CURVE SMOOTH",
"198 172 OFFCURVE",
"242 196 OFFCURVE",
"252 196 CURVE SMOOTH",
"275 196 OFFCURVE",
"287 161 OFFCURVE",
"287 130 CURVE SMOOTH",
"287 112 OFFCURVE",
"314 101 OFFCURVE",
"326 101 CURVE SMOOTH",
"347 101 OFFCURVE",
"374 86 OFFCURVE",
"374 68 CURVE SMOOTH",
"374 38 OFFCURVE",
"321 28 OFFCURVE",
"296 4 CURVE SMOOTH",
"264 -26 OFFCURVE",
"236 -53 OFFCURVE",
"224 -53 CURVE SMOOTH",
"209 -53 OFFCURVE",
"198 -26 OFFCURVE",
"194 -7 CURVE",
"189 13 OFFCURVE",
"167 52 OFFCURVE",
"149 52 CURVE SMOOTH",
"144 52 OFFCURVE",
"142 51 OFFCURVE",
"139 50 CURVE",
"135 49 OFFCURVE",
"132 47 OFFCURVE",
"126 47 CURVE SMOOTH",
"119 47 OFFCURVE",
"104 62 OFFCURVE",
"104 71 CURVE SMOOTH"
);
},
{
closed = 1;
nodes = (
"113 263 OFFCURVE",
"134 298 OFFCURVE",
"164 331 CURVE SMOOTH",
"183 352 OFFCURVE",
"195 387 OFFCURVE",
"236 387 CURVE SMOOTH",
"257 387 OFFCURVE",
"317 365 OFFCURVE",
"329 365 CURVE SMOOTH",
"339 365 OFFCURVE",
"348 370 OFFCURVE",
"348 380 CURVE SMOOTH",
"348 389 OFFCURVE",
"318 404 OFFCURVE",
"293 425 CURVE SMOOTH",
"270 443 OFFCURVE",
"252 467 OFFCURVE",
"252 490 CURVE SMOOTH",
"252 511 OFFCURVE",
"269 541 OFFCURVE",
"285 568 CURVE SMOOTH",
"303 599 OFFCURVE",
"324 629 OFFCURVE",
"345 629 CURVE SMOOTH",
"359 629 OFFCURVE",
"377 613 OFFCURVE",
"377 601 CURVE SMOOTH",
"377 589 OFFCURVE",
"363 577 OFFCURVE",
"363 560 CURVE SMOOTH",
"363 542 OFFCURVE",
"396 523 OFFCURVE",
"422 518 CURVE",
"461 512 OFFCURVE",
"471 482 OFFCURVE",
"471 448 CURVE SMOOTH",
"471 386 OFFCURVE",
"443 306 OFFCURVE",
"416 271 CURVE SMOOTH",
"391 239 OFFCURVE",
"299 223 OFFCURVE",
"264 223 CURVE SMOOTH",
"240 223 OFFCURVE",
"213 236 OFFCURVE",
"185 236 CURVE SMOOTH",
"164 236 OFFCURVE",
"149 229 OFFCURVE",
"138 229 CURVE SMOOTH",
"131 229 OFFCURVE",
"113 236 OFFCURVE",
"113 256 CURVE SMOOTH"
);
}
);
width = 562;
}
);
unicode = 0030;
},
{
glyphname = exclam;
layers = (
{
layerId = "BA838D9B-820F-4674-98D0-BE3E112EAB76";
paths = (
{
closed = 1;
nodes = (
"177 371 OFFCURVE",
"198 402 OFFCURVE",
"210 417 CURVE SMOOTH",
"227 438 OFFCURVE",
"254 448 OFFCURVE",
"254 462 CURVE SMOOTH",
"254 499 OFFCURVE",
"221 505 OFFCURVE",
"200 520 CURVE SMOOTH",
"188 529 OFFCURVE",
"167 560 OFFCURVE",
"154 560 CURVE SMOOTH",
"139 560 OFFCURVE",
"125 534 OFFCURVE",
"118 515 CURVE SMOOTH",
"113 501 OFFCURVE",
"75 470 OFFCURVE",
"75 453 CURVE SMOOTH",
"75 436 OFFCURVE",
"110 431 OFFCURVE",
"119 420 CURVE",
"130 404 OFFCURVE",
"152 371 OFFCURVE",
"163 371 CURVE SMOOTH"
);
}
);
width = 330;
}
);
unicode = 0021;
},
{
glyphname = A;
lastChange = "2015-02-26 08:52:00 +0000";
layers = (
{
anchors = (
{
name = ogonek;
position = "{681, 10}";
},
{
name = top;
position = "{459, 599}";
}
);
layerId = "BA838D9B-820F-4674-98D0-BE3E112EAB76";
paths = (
{
closed = 1;
nodes = (
"187 436 OFFCURVE",
"166 431 OFFCURVE",
"166 415 CURVE SMOOTH",
"166 393 OFFCURVE",
"187 365 OFFCURVE",
"187 353 CURVE SMOOTH",
"187 282 OFFCURVE",
"187 225 OFFCURVE",
"155 140 CURVE SMOOTH",
"128 72 OFFCURVE",
"123 30 OFFCURVE",
"66 -39 CURVE",
"58 -50 OFFCURVE",
"20 -70 OFFCURVE",
"20 -84 CURVE SMOOTH",
"20 -98 OFFCURVE",
"25 -111 OFFCURVE",
"47 -111 CURVE SMOOTH",
"88 -111 OFFCURVE",
"120 -83 OFFCURVE",
"153 -58 CURVE SMOOTH",
"195 -26 OFFCURVE",
"234 6 OFFCURVE",
"258 70 CURVE SMOOTH",
"290 158 OFFCURVE",
"312 268 OFFCURVE",
"312 345 CURVE SMOOTH",
"312 382 OFFCURVE",
"353 418 OFFCURVE",
"376 418 CURVE",
"376 253 OFFCURVE",
"373 186 OFFCURVE",
"306 37 CURVE",
"298 22 OFFCURVE",
"265 -22 OFFCURVE",
"256 -31 CURVE",
"244 -44 OFFCURVE",
"237 -47 OFFCURVE",
"237 -62 CURVE SMOOTH",
"237 -70 OFFCURVE",
"245 -76 OFFCURVE",
"251 -76 CURVE SMOOTH",
"259 -76 OFFCURVE",
"276 -55 OFFCURVE",
"292 -36 CURVE",
"326 8 OFFCURVE",
"347 52 OFFCURVE",
"368 95 CURVE",
"375 108 OFFCURVE",
"392 123 OFFCURVE",
"410 123 CURVE",
"526 136 LINE",
"545 136 OFFCURVE",
"552 125 OFFCURVE",
"552 120 CURVE SMOOTH",
"552 108 OFFCURVE",
"548 69 OFFCURVE",
"548 56 CURVE SMOOTH",
"548 41 OFFCURVE",
"570 30 OFFCURVE",
"595 14 CURVE SMOOTH",
"613 2 OFFCURVE",
"632 -14 OFFCURVE",
"648 -14 CURVE SMOOTH",
"669 -14 OFFCURVE",
"685 -2 OFFCURVE",
"702 28 CURVE SMOOTH",
"715 50 OFFCURVE",
"737 58 OFFCURVE",
"737 81 CURVE SMOOTH",
"737 89 OFFCURVE",
"733 105 OFFCURVE",
"727 105 CURVE SMOOTH",
"718 105 OFFCURVE",
"715 95 OFFCURVE",
"707 95 CURVE SMOOTH",
"685 95 OFFCURVE",
"661 134 OFFCURVE",
"661 164 CURVE SMOOTH",
"661 424 LINE",
"666 452 OFFCURVE",
"680 449 OFFCURVE",
"680 476 CURVE SMOOTH",
"680 488 OFFCURVE",
"661 512 OFFCURVE",
"661 534 CURVE SMOOTH",
"661 577 LINE SMOOTH",
"661 591 OFFCURVE",
"678 608 OFFCURVE",
"678 626 CURVE SMOOTH",
"678 640 OFFCURVE",
"673 652 OFFCURVE",
"654 652 CURVE SMOOTH",
"638 652 OFFCURVE",
"615 640 OFFCURVE",
"599 633 CURVE SMOOTH",
"583 626 OFFCURVE",
"513 619 OFFCURVE",
"476 619 CURVE SMOOTH",
"403 619 OFFCURVE",
"359 633 OFFCURVE",
"316 646 CURVE SMOOTH",
"279 657 OFFCURVE",
"241 668 OFFCURVE",
"186 668 CURVE SMOOTH",
"130 668 OFFCURVE",
"45 590 OFFCURVE",
"45 526 CURVE SMOOTH",
"45 493 OFFCURVE",
"61 449 OFFCURVE",
"77 449 CURVE SMOOTH",
"94 449 OFFCURVE",
"133 457 OFFCURVE",
"133 477 CURVE SMOOTH",
"133 494 OFFCURVE",
"127 521 OFFCURVE",
"127 534 CURVE SMOOTH",
"127 548 OFFCURVE",
"149 558 OFFCURVE",
"189 558 CURVE SMOOTH",
"242 558 OFFCURVE",
"289 515 OFFCURVE",
"328 515 CURVE SMOOTH",
"378 515 OFFCURVE",
"403 546 OFFCURVE",
"456 546 CURVE SMOOTH",
"496 546 LINE SMOOTH",
"512 546 OFFCURVE",
"537 534 OFFCURVE",
"537 530 CURVE SMOOTH",
"537 513 LINE SMOOTH",
"537 499 OFFCURVE",
"513 493 OFFCURVE",
"501 493 CURVE SMOOTH",
"435 493 OFFCURVE",
"380 459 OFFCURVE",
"315 451 CURVE",
"298 451 OFFCURVE",
"219 436 OFFCURVE",
"198 436 CURVE SMOOTH"
);
},
{
closed = 1;
nodes = (
"412 411 OFFCURVE",
"415 431 OFFCURVE",
"425 432 CURVE",
"445 435 OFFCURVE",
"467 440 OFFCURVE",
"490 440 CURVE SMOOTH",
"507 440 OFFCURVE",
"521 440 OFFCURVE",
"532 438 CURVE",
"540 438 OFFCURVE",
"552 431 OFFCURVE",
"552 420 CURVE SMOOTH",
"552 349 LINE SMOOTH",
"552 328 OFFCURVE",
"542 318 OFFCURVE",
"531 318 CURVE",
"435 306 OFFCURVE",
"432 304 OFFCURVE",
"429 304 CURVE SMOOTH",
"421 304 OFFCURVE",
"414 312 OFFCURVE",
"414 325 CURVE SMOOTH",
"414 340 OFFCURVE",
"412 371 OFFCURVE",
"412 398 CURVE SMOOTH"
);
},
{
closed = 1;
nodes = (
"552 242 LINE",
"552 206 LINE SMOOTH",
"552 190 OFFCURVE",
"543 189 OFFCURVE",
"531 187 CURVE SMOOTH",
"413 171 LINE",
"402 171 OFFCURVE",
"396 182 OFFCURVE",
"396 186 CURVE",
"403 218 LINE",
"403 222 OFFCURVE",
"409 228 OFFCURVE",
"418 228 CURVE"
);
}
);
width = 757;
}
);
unicode = 0041;
},
{
glyphname = B;
layers = (
{
layerId = "BA838D9B-820F-4674-98D0-BE3E112EAB76";
paths = (
{
closed = 1;
nodes = (
"241 123 OFFCURVE",
"245 111 OFFCURVE",
"257 111 CURVE SMOOTH",
"267 111 OFFCURVE",
"286 124 OFFCURVE",
"307 136 CURVE SMOOTH",
"330 149 OFFCURVE",
"372 179 OFFCURVE",
"416 202 CURVE SMOOTH",
"469 228 OFFCURVE",
"583 288 OFFCURVE",
"631 288 CURVE SMOOTH",
"637 288 OFFCURVE",
"644 288 OFFCURVE",
"649 287 CURVE",
"645 228 OFFCURVE",
"629 161 OFFCURVE",
"604 114 CURVE SMOOTH",
"598 102 OFFCURVE",
"579 86 OFFCURVE",
"563 86 CURVE SMOOTH",
"514 86 OFFCURVE",
"513 133 OFFCURVE",
"458 133 CURVE SMOOTH",
"397 133 OFFCURVE",
"266 71 OFFCURVE",
"224 71 CURVE SMOOTH",
"204 71 OFFCURVE",
"187 116 OFFCURVE",
"187 136 CURVE SMOOTH",
"187 181 OFFCURVE",
"201 239 OFFCURVE",
"201 297 CURVE SMOOTH",
"201 528 LINE SMOOTH",
"201 571 OFFCURVE",
"217 634 OFFCURVE",
"217 677 CURVE SMOOTH",
"217 702 OFFCURVE",
"212 707 OFFCURVE",
"196 707 CURVE SMOOTH",
"160 707 OFFCURVE",
"157 651 OFFCURVE",
"123 651 CURVE SMOOTH",
"96 651 OFFCURVE",
"29 617 OFFCURVE",
"29 588 CURVE SMOOTH",
"29 573 OFFCURVE",
"53 570 OFFCURVE",
"76 560 CURVE",
"96 553 OFFCURVE",
"117 540 OFFCURVE",
"117 510 CURVE SMOOTH",
"117 461 OFFCURVE",
"81 442 OFFCURVE",
"62 442 CURVE SMOOTH",
"39 442 OFFCURVE",
"34 432 OFFCURVE",
"34 425 CURVE SMOOTH",
"34 407 OFFCURVE",
"46 403 OFFCURVE",
"62 403 CURVE SMOOTH",
"92 403 OFFCURVE",
"115 368 OFFCURVE",
"115 344 CURVE SMOOTH",
"115 294 OFFCURVE",
"93 262 OFFCURVE",
"78 262 CURVE SMOOTH",
"51 262 OFFCURVE",
"45 253 OFFCURVE",
"45 242 CURVE SMOOTH",
"45 225 OFFCURVE",
"61 214 OFFCURVE",
"78 214 CURVE SMOOTH",
"89 214 OFFCURVE",
"109 181 OFFCURVE",
"109 156 CURVE SMOOTH",
"109 105 OFFCURVE",
"100 77 OFFCURVE",
"31 30 CURVE SMOOTH",
"22 24 OFFCURVE",
"20 12 OFFCURVE",
"20 0 CURVE SMOOTH",
"20 -17 OFFCURVE",
"38 -23 OFFCURVE",
"50 -23 CURVE SMOOTH",
"75 -23 OFFCURVE",
"109 -3 OFFCURVE",
"135 8 CURVE SMOOTH",
"181 28 OFFCURVE",
"226 33 OFFCURVE",
"254 33 CURVE SMOOTH",
"298 33 OFFCURVE",
"357 27 OFFCURVE",
"404 19 CURVE SMOOTH",
"441 13 OFFCURVE",
"494 -14 OFFCURVE",
"532 -14 CURVE SMOOTH",
"569 -14 OFFCURVE",
"573 9 OFFCURVE",
"601 42 CURVE",
"672 65 OFFCURVE",
"739 209 OFFCURVE",
"739 292 CURVE SMOOTH",
"739 389 OFFCURVE",
"733 461 OFFCURVE",
"688 539 CURVE SMOOTH",
"667 575 OFFCURVE",
"588 615 OFFCURVE",
"546 615 CURVE SMOOTH",
"517 615 OFFCURVE",
"508 601 OFFCURVE",
"497 573 CURVE",
"490 547 LINE",
"452 539 OFFCURVE",
"405 511 OFFCURVE",
"372 489 CURVE",
"372 621 LINE SMOOTH",
"372 641 OFFCURVE",
"388 665 OFFCURVE",
"415 665 CURVE SMOOTH",
"436 665 OFFCURVE",
"458 654 OFFCURVE",
"482 638 CURVE",
"494 629 OFFCURVE",
"508 621 OFFCURVE",
"519 621 CURVE SMOOTH",
"527 621 OFFCURVE",
"527 654 OFFCURVE",
"543 674 CURVE",
"563 701 OFFCURVE",
"602 732 OFFCURVE",
"602 738 CURVE SMOOTH",
"602 757 OFFCURVE",
"560 773 OFFCURVE",
"536 773 CURVE SMOOTH",
"518 773 OFFCURVE",
"497 762 OFFCURVE",
"482 762 CURVE SMOOTH",
"444 762 OFFCURVE",
"421 808 OFFCURVE",
"393 808 CURVE SMOOTH",
"366 808 OFFCURVE",
"326 732 OFFCURVE",
"270 732 CURVE SMOOTH",
"252 732 OFFCURVE",
"235 729 OFFCURVE",
"235 704 CURVE SMOOTH",
"235 679 OFFCURVE",
"284 649 OFFCURVE",
"284 593 CURVE SMOOTH",
"284 247 LINE SMOOTH",
"284 211 OFFCURVE",
"241 148 OFFCURVE",
"241 134 CURVE SMOOTH"
);
},
{
closed = 1;
nodes = (
"448 346 OFFCURVE",
"567 397 OFFCURVE",
"638 418 CURVE",
"644 398 OFFCURVE",
"647 373 OFFCURVE",
"648 341 CURVE",
"569 321 OFFCURVE",
"441 275 OFFCURVE",
"363 230 CURVE",
"368 253 OFFCURVE",
"370 278 OFFCURVE",
"372 301 CURVE"
);
},
{
closed = 1;
nodes = (
"559 432 OFFCURVE",
"448 395 OFFCURVE",
"372 356 CURVE",
"372 442 LINE",
"419 475 OFFCURVE",
"490 507 OFFCURVE",
"530 507 CURVE SMOOTH",
"557 507 OFFCURVE",
"601 479 OFFCURVE",
"622 451 CURVE"
);
}
);
width = 759;
}
);
unicode = 0042;
},
{
glyphname = C;
lastChange = "2015-02-26 08:53:03 +0000";
layers = (
{
layerId = "BA838D9B-820F-4674-98D0-BE3E112EAB76";
paths = (
{
closed = 1;
nodes = (
"212 583 OFFCURVE",
"205 573 OFFCURVE",
"199 566 CURVE SMOOTH",
"165 527 OFFCURVE",
"148 495 OFFCURVE",
"116 495 CURVE SMOOTH",
"112 495 OFFCURVE",
"109 498 OFFCURVE",
"106 501 CURVE SMOOTH",
"103 504 OFFCURVE",
"100 507 OFFCURVE",
"99 507 CURVE SMOOTH",
"81 507 OFFCURVE",
"48 471 OFFCURVE",
"48 456 CURVE SMOOTH",
"48 438 OFFCURVE",
"131 426 OFFCURVE",
"131 370 CURVE SMOOTH",
"131 348 OFFCURVE",
"126 332 OFFCURVE",
"115 314 CURVE SMOOTH",
"98 284 OFFCURVE",
"92 296 OFFCURVE",
"60 268 CURVE",
"51 261 OFFCURVE",
"38 250 OFFCURVE",
"38 234 CURVE SMOOTH",
"38 229 OFFCURVE",
"46 223 OFFCURVE",
"53 223 CURVE SMOOTH",
"90 223 OFFCURVE",
"116 191 OFFCURVE",
"116 153 CURVE SMOOTH",
"116 103 OFFCURVE",
"87 56 OFFCURVE",
"43 22 CURVE SMOOTH",
"24 8 OFFCURVE",
"20 -15 OFFCURVE",
"20 -31 CURVE SMOOTH",
"20 -45 OFFCURVE",
"37 -53 OFFCURVE",
"63 -53 CURVE SMOOTH",
"145 -53 OFFCURVE",
"237 47 OFFCURVE",
"321 47 CURVE SMOOTH",
"372 47 OFFCURVE",
"452 41 OFFCURVE",
"499 30 CURVE",
"545 17 OFFCURVE",
"530 -14 OFFCURVE",
"577 -14 CURVE SMOOTH",
"611 -14 OFFCURVE",
"619 61 OFFCURVE",
"641 89 CURVE SMOOTH",
"650 101 OFFCURVE",
"656 125 OFFCURVE",
"656 136 CURVE SMOOTH",
"656 144 OFFCURVE",
"655 148 OFFCURVE",
"652 148 CURVE SMOOTH",
"630 148 OFFCURVE",
"616 133 OFFCURVE",
"595 133 CURVE SMOOTH",
"552 133 OFFCURVE",
"550 162 OFFCURVE",
"510 162 CURVE SMOOTH",
"466 162 OFFCURVE",
"425 136 OFFCURVE",
"349 115 CURVE SMOOTH",
"310 105 OFFCURVE",
"285 89 OFFCURVE",
"243 89 CURVE SMOOTH",
"223 89 OFFCURVE",
"213 116 OFFCURVE",
"213 153 CURVE SMOOTH",
"213 190 LINE",
"240 540 LINE",
"240 554 LINE SMOOTH",
"240 567 OFFCURVE",
"232 583 OFFCURVE",
"221 583 CURVE SMOOTH"
);
},
{
closed = 1;
nodes = (
"658 694 OFFCURVE",
"653 707 OFFCURVE",
"641 707 CURVE SMOOTH",
"627 707 OFFCURVE",
"619 727 OFFCURVE",
"611 727 CURVE SMOOTH",
"567 727 OFFCURVE",
"555 707 OFFCURVE",
"502 707 CURVE SMOOTH",
"460 707 OFFCURVE",
"391 637 OFFCURVE",
"350 637 CURVE SMOOTH",
"326 637 OFFCURVE",
"301 624 OFFCURVE",
"301 607 CURVE SMOOTH",
"301 537 OFFCURVE",
"307 498 OFFCURVE",
"307 442 CURVE SMOOTH",
"307 382 OFFCURVE",
"288 261 OFFCURVE",
"288 209 CURVE SMOOTH",
"288 164 OFFCURVE",
"252 156 OFFCURVE",
"252 122 CURVE SMOOTH",
"252 114 OFFCURVE",
"260 111 OFFCURVE",
"272 111 CURVE SMOOTH",
"280 111 OFFCURVE",
"289 117 OFFCURVE",
"293 122 CURVE",
"321 153 OFFCURVE",
"332 148 OFFCURVE",
"372 175 CURVE SMOOTH",
"393 189 OFFCURVE",
"416 220 OFFCURVE",
"416 259 CURVE SMOOTH",
"416 552 LINE SMOOTH",
"416 579 OFFCURVE",
"438 612 OFFCURVE",
"463 612 CURVE SMOOTH",
"508 612 OFFCURVE",
"555 594 OFFCURVE",
"589 594 CURVE SMOOTH",
"616 594 OFFCURVE",
"620 605 OFFCURVE",
"636 646 CURVE",
"641 657 OFFCURVE",
"658 671 OFFCURVE",
"658 680 CURVE SMOOTH"
);
}
);
width = 678;
}
);
unicode = 0043;
},
{
glyphname = D;
layers = (
{
layerId = "BA838D9B-820F-4674-98D0-BE3E112EAB76";
paths = (
{
closed = 1;
nodes = (
"159 496 OFFCURVE",
"148 412 OFFCURVE",
"74 412 CURVE SMOOTH",
"52 412 OFFCURVE",
"31 392 OFFCURVE",
"31 379 CURVE SMOOTH",
"31 353 OFFCURVE",
"110 325 OFFCURVE",
"110 264 CURVE SMOOTH",
"110 184 LINE SMOOTH",
"110 133 OFFCURVE",
"62 80 OFFCURVE",
"62 27 CURVE SMOOTH",
"62 -2 OFFCURVE",
"67 -44 OFFCURVE",
"90 -44 CURVE SMOOTH",
"115 -44 OFFCURVE",
"132 -17 OFFCURVE",
"154 3 CURVE",
"207 41 OFFCURVE",
"288 58 OFFCURVE",
"366 58 CURVE SMOOTH",
"413 58 OFFCURVE",
"458 50 OFFCURVE",
"494 36 CURVE",
"538 17 OFFCURVE",
"556 -14 OFFCURVE",
"605 -14 CURVE SMOOTH",
"639 -14 OFFCURVE",
"670 17 OFFCURVE",
"703 50 CURVE SMOOTH",
"734 81 OFFCURVE",
"801 76 OFFCURVE",
"801 142 CURVE SMOOTH",
"801 159 OFFCURVE",
"778 184 OFFCURVE",
"778 201 CURVE SMOOTH",
"778 329 LINE SMOOTH",
"778 371 OFFCURVE",
"795 404 OFFCURVE",
"795 445 CURVE SMOOTH",
"795 576 OFFCURVE",
"591 718 OFFCURVE",
"432 718 CURVE SMOOTH",
"406 718 OFFCURVE",
"380 715 OFFCURVE",
"354 711 CURVE SMOOTH",
"321 706 OFFCURVE",
"288 699 OFFCURVE",
"258 699 CURVE SMOOTH",
"190 699 OFFCURVE",
"135 711 OFFCURVE",
"71 711 CURVE SMOOTH",
"43 711 OFFCURVE",
"20 676 OFFCURVE",
"20 630 CURVE SMOOTH",
"20 604 OFFCURVE",
"51 576 OFFCURVE",
"77 576 CURVE SMOOTH",
"127 576 OFFCURVE",
"218 615 OFFCURVE",
"271 615 CURVE SMOOTH",
"315 615 OFFCURVE",
"363 615 OFFCURVE",
"411 607 CURVE",
"379 549 LINE",
"349 540 OFFCURVE",
"319 534 OFFCURVE",
"288 534 CURVE SMOOTH",
"272 534 OFFCURVE",
"266 512 OFFCURVE",
"266 490 CURVE SMOOTH",
"266 438 OFFCURVE",
"294 388 OFFCURVE",
"294 339 CURVE SMOOTH",
"294 290 OFFCURVE",
"282 250 OFFCURVE",
"265 222 CURVE SMOOTH",
"257 209 OFFCURVE",
"229 170 OFFCURVE",
"229 159 CURVE SMOOTH",
"229 148 OFFCURVE",
"243 147 OFFCURVE",
"258 147 CURVE SMOOTH",
"265 147 OFFCURVE",
"272 150 OFFCURVE",
"280 154 CURVE",
"315 164 OFFCURVE",
"350 198 OFFCURVE",
"382 215 CURVE",
"481 273 OFFCURVE",
"577 334 OFFCURVE",
"681 379 CURVE",
"686 357 OFFCURVE",
"691 334 OFFCURVE",
"693 312 CURVE",
"630 284 OFFCURVE",
"528 223 OFFCURVE",
"425 154 CURVE",
"413 148 OFFCURVE",
"340 123 OFFCURVE",
"288 101 CURVE SMOOTH",
"258 89 OFFCURVE",
"255 75 OFFCURVE",
"233 75 CURVE SMOOTH",
"221 75 OFFCURVE",
"185 95 OFFCURVE",
"185 111 CURVE SMOOTH",
"185 201 OFFCURVE",
"226 292 OFFCURVE",
"226 378 CURVE SMOOTH",
"226 398 OFFCURVE",
"223 496 OFFCURVE",
"202 496 CURVE SMOOTH"
);
},
{
closed = 1;
nodes = (
"628 505 OFFCURVE",
"648 474 OFFCURVE",
"662 438 CURVE",
"600 381 OFFCURVE",
"486 326 OFFCURVE",
"335 231 CURVE",
"357 270 OFFCURVE",
"380 319 OFFCURVE",
"400 376 CURVE SMOOTH",
"415 420 OFFCURVE",
"416 496 OFFCURVE",
"416 549 CURVE",
"449 601 LINE",
"500 588 OFFCURVE",
"552 568 OFFCURVE",
"600 529 CURVE SMOOTH"
);
},
{
closed = 1;
nodes = (
"595 115 OFFCURVE",
"586 156 OFFCURVE",
"506 161 CURVE",
"563 203 OFFCURVE",
"634 249 OFFCURVE",
"693 276 CURVE",
"692 215 OFFCURVE",
"686 115 OFFCURVE",
"648 115 CURVE SMOOTH"
);
}
);
width = 821;
}
);
unicode = 0044;
},
{
glyphname = E;
layers = (
{
layerId = "BA838D9B-820F-4674-98D0-BE3E112EAB76";
paths = (
{
closed = 1;
nodes = (
"210 583 OFFCURVE",
"205 573 OFFCURVE",
"199 566 CURVE SMOOTH",
"165 527 OFFCURVE",
"148 495 OFFCURVE",
"116 495 CURVE SMOOTH",
"109 495 OFFCURVE",
"102 507 OFFCURVE",
"99 507 CURVE SMOOTH",
"81 507 OFFCURVE",
"48 471 OFFCURVE",
"48 456 CURVE SMOOTH",
"48 438 OFFCURVE",
"131 426 OFFCURVE",
"131 370 CURVE SMOOTH",
"131 348 OFFCURVE",
"126 332 OFFCURVE",
"115 314 CURVE SMOOTH",
"98 284 OFFCURVE",
"92 296 OFFCURVE",
"60 268 CURVE",
"51 261 OFFCURVE",
"38 250 OFFCURVE",
"38 234 CURVE SMOOTH",
"38 229 OFFCURVE",
"46 223 OFFCURVE",
"53 223 CURVE SMOOTH",
"84 223 OFFCURVE",
"116 187 OFFCURVE",
"116 153 CURVE SMOOTH",
"116 103 OFFCURVE",
"87 56 OFFCURVE",
"43 22 CURVE SMOOTH",
"24 8 OFFCURVE",
"20 -6 OFFCURVE",
"20 -31 CURVE SMOOTH",
"20 -48 OFFCURVE",
"37 -53 OFFCURVE",
"63 -53 CURVE SMOOTH",
"145 -53 OFFCURVE",
"237 47 OFFCURVE",
"321 47 CURVE SMOOTH",
"372 47 OFFCURVE",
"452 41 OFFCURVE",
"499 30 CURVE",
"545 17 OFFCURVE",
"530 -14 OFFCURVE",
"577 -14 CURVE SMOOTH",
"611 -14 OFFCURVE",
"619 61 OFFCURVE",
"641 89 CURVE SMOOTH",
"650 101 OFFCURVE",
"656 125 OFFCURVE",
"656 136 CURVE SMOOTH",
"656 144 OFFCURVE",
"655 148 OFFCURVE",
"652 148 CURVE SMOOTH",
"630 148 OFFCURVE",
"616 133 OFFCURVE",
"595 133 CURVE SMOOTH",
"552 133 OFFCURVE",
"550 162 OFFCURVE",
"510 162 CURVE SMOOTH",
"466 162 OFFCURVE",
"425 136 OFFCURVE",
"349 115 CURVE SMOOTH",
"310 105 OFFCURVE",
"285 89 OFFCURVE",
"243 89 CURVE SMOOTH",
"226 89 OFFCURVE",
"211 113 OFFCURVE",
"211 138 CURVE SMOOTH",
"211 153 OFFCURVE",
"211 171 OFFCURVE",
"213 190 CURVE SMOOTH",
"240 540 LINE",
"240 549 LINE SMOOTH",
"240 570 OFFCURVE",
"225 583 OFFCURVE",
"219 583 CURVE SMOOTH"
);
},
{
closed = 1;
nodes = (
"658 694 OFFCURVE",
"655 707 OFFCURVE",
"641 707 CURVE SMOOTH",
"627 707 OFFCURVE",
"614 727 OFFCURVE",
"608 727 CURVE SMOOTH",
"564 727 OFFCURVE",
"555 707 OFFCURVE",
"502 707 CURVE SMOOTH",
"460 707 OFFCURVE",
"391 637 OFFCURVE",
"350 637 CURVE SMOOTH",
"326 637 OFFCURVE",
"301 624 OFFCURVE",
"301 607 CURVE SMOOTH",
"301 537 OFFCURVE",
"307 498 OFFCURVE",
"307 442 CURVE SMOOTH",
"307 382 OFFCURVE",
"288 261 OFFCURVE",
"288 209 CURVE SMOOTH",
"288 164 OFFCURVE",
"253 154 OFFCURVE",
"253 123 CURVE SMOOTH",
"253 114 OFFCURVE",
"260 111 OFFCURVE",
"272 111 CURVE SMOOTH",
"280 111 OFFCURVE",
"289 115 OFFCURVE",
"294 123 CURVE SMOOTH",
"314 155 OFFCURVE",
"332 148 OFFCURVE",
"372 175 CURVE SMOOTH",
"393 189 OFFCURVE",
"414 220 OFFCURVE",
"414 259 CURVE SMOOTH",
"414 332 LINE SMOOTH",
"414 353 OFFCURVE",
"453 385 OFFCURVE",
"475 385 CURVE SMOOTH",
"594 385 LINE SMOOTH",
"625 385 OFFCURVE",
"641 409 OFFCURVE",
"641 441 CURVE SMOOTH",
"641 462 OFFCURVE",
"641 497 OFFCURVE",
"614 497 CURVE SMOOTH",
"597 497 OFFCURVE",
"580 495 OFFCURVE",
"563 493 CURVE SMOOTH",
"539 490 OFFCURVE",
"515 485 OFFCURVE",
"492 485 CURVE SMOOTH",
"438 485 OFFCURVE",
"405 509 OFFCURVE",
"405 552 CURVE SMOOTH",
"405 579 OFFCURVE",
"438 612 OFFCURVE",
"463 612 CURVE SMOOTH",
"486 612 OFFCURVE",
"510 608 OFFCURVE",
"532 603 CURVE",
"553 599 OFFCURVE",
"573 594 OFFCURVE",
"589 594 CURVE SMOOTH",
"616 594 OFFCURVE",
"620 605 OFFCURVE",
"636 646 CURVE",
"641 657 OFFCURVE",
"658 671 OFFCURVE",
"658 680 CURVE SMOOTH"
);
}
);
width = 678;
}
);
unicode = 0045;
},
{
glyphname = F;
layers = (
{
layerId = "BA838D9B-820F-4674-98D0-BE3E112EAB76";
paths = (
{
closed = 1;
nodes = (
"551 708 OFFCURVE",
"534 744 OFFCURVE",
"523 744 CURVE SMOOTH",
"495 744 OFFCURVE",
"498 712 OFFCURVE",
"461 712 CURVE SMOOTH",
"438 712 OFFCURVE",
"419 718 OFFCURVE",
"398 723 CURVE SMOOTH",
"381 727 OFFCURVE",
"362 731 OFFCURVE",
"336 732 CURVE",
"307 730 OFFCURVE",
"252 697 OFFCURVE",
"232 683 CURVE SMOOTH",
"211 669 OFFCURVE",
"183 636 OFFCURVE",
"140 636 CURVE",
"94 634 OFFCURVE",
"52 602 OFFCURVE",
"52 592 CURVE SMOOTH",
"52 577 OFFCURVE",
"60 564 OFFCURVE",
"69 553 CURVE SMOOTH",
"85 534 OFFCURVE",
"107 519 OFFCURVE",
"107 495 CURVE SMOOTH",
"107 474 OFFCURVE",
"85 436 OFFCURVE",
"63 432 CURVE",
"41 427 OFFCURVE",
"27 414 OFFCURVE",
"27 405 CURVE SMOOTH",
"27 382 OFFCURVE",
"51 380 OFFCURVE",
"73 369 CURVE SMOOTH",
"94 358 OFFCURVE",
"116 336 OFFCURVE",
"116 311 CURVE SMOOTH",
"116 258 OFFCURVE",
"93 232 OFFCURVE",
"71 221 CURVE SMOOTH",
"44 207 OFFCURVE",
"27 204 OFFCURVE",
"27 188 CURVE SMOOTH",
"27 162 OFFCURVE",
"48 144 OFFCURVE",
"68 127 CURVE",
"88 112 OFFCURVE",
"107 96 OFFCURVE",
"107 74 CURVE SMOOTH",
"107 -4 OFFCURVE",
"59 -32 OFFCURVE",
"41 -43 CURVE SMOOTH",
"27 -52 OFFCURVE",
"20 -79 OFFCURVE",
"20 -94 CURVE SMOOTH",
"20 -118 OFFCURVE",
"35 -135 OFFCURVE",
"49 -135 CURVE SMOOTH",
"67 -135 OFFCURVE",
"77 -117 OFFCURVE",
"99 -117 CURVE SMOOTH",
"133 -117 OFFCURVE",
"227 -93 OFFCURVE",
"282 -33 CURVE SMOOTH",
"338 29 OFFCURVE",
"355 135 OFFCURVE",
"358 196 CURVE",
"358 315 LINE SMOOTH",
"358 383 OFFCURVE",
"366 385 OFFCURVE",
"388 385 CURVE SMOOTH",
"459 385 LINE SMOOTH",
"491 385 OFFCURVE",
"506 408 OFFCURVE",
"506 441 CURVE SMOOTH",
"506 461 OFFCURVE",
"506 497 OFFCURVE",
"480 497 CURVE SMOOTH",
"468 497 OFFCURVE",
"459 494 OFFCURVE",
"449 491 CURVE SMOOTH",
"438 488 OFFCURVE",
"425 485 OFFCURVE",
"405 485 CURVE SMOOTH",
"374 485 OFFCURVE",
"358 504 OFFCURVE",
"358 552 CURVE SMOOTH",
"358 578 OFFCURVE",
"397 603 OFFCURVE",
"422 603 CURVE SMOOTH",
"442 603 OFFCURVE",
"449 601 OFFCURVE",
"454 599 CURVE",
"460 597 OFFCURVE",
"460 594 OFFCURVE",
"470 594 CURVE SMOOTH",
"480 594 OFFCURVE",
"503 603 OFFCURVE",
"523 633 CURVE",
"530 642 OFFCURVE",
"551 672 OFFCURVE",
"551 689 CURVE SMOOTH"
);
},
{
closed = 1;
nodes = (
"186 -32 LINE SMOOTH",
"225 23 OFFCURVE",
"247 120 OFFCURVE",
"247 251 CURVE SMOOTH",
"247 371 OFFCURVE",
"225 471 OFFCURVE",
"225 586 CURVE SMOOTH",
"225 595 OFFCURVE",
"241 608 OFFCURVE",
"261 608 CURVE SMOOTH",
"272 608 OFFCURVE",
"291 600 OFFCURVE",
"291 584 CURVE SMOOTH",
"291 520 OFFCURVE",
"298 455 OFFCURVE",
"303 390 CURVE SMOOTH",
"306 347 OFFCURVE",
"309 304 OFFCURVE",
"309 262 CURVE SMOOTH",
"309 170 OFFCURVE",
"297 82 OFFCURVE",
"249 1 CURVE",
"235 -16 OFFCURVE",
"206 -36 OFFCURVE",
"177 -44 CURVE"
);
}
);
width = 541;
}
);
unicode = 0046;
},
{
glyphname = G;
layers = (
{
layerId = "BA838D9B-820F-4674-98D0-BE3E112EAB76";
paths = (
{
closed = 1;
nodes = (
"530 61 OFFCURVE",
"555 41 OFFCURVE",
"577 17 CURVE SMOOTH",
"602 -9 OFFCURVE",
"622 -39 OFFCURVE",
"655 -39 CURVE SMOOTH",
"679 -39 OFFCURVE",
"699 -19 OFFCURVE",
"729 0 CURVE SMOOTH",
"761 20 OFFCURVE",
"802 38 OFFCURVE",
"822 52 CURVE SMOOTH",
"906 111 OFFCURVE",
"924 161 OFFCURVE",
"924 257 CURVE SMOOTH",
"924 431 OFFCURVE",
"799 596 OFFCURVE",
"643 596 CURVE SMOOTH",
"635 596 OFFCURVE",
"625 594 OFFCURVE",
"612 590 CURVE SMOOTH",
"560 575 OFFCURVE",
"478 536 OFFCURVE",
"428 510 CURVE",
"431 543 OFFCURVE",
"434 577 OFFCURVE",
"434 608 CURVE SMOOTH",
"434 633 OFFCURVE",
"470 647 OFFCURVE",
"499 647 CURVE SMOOTH",
"552 647 OFFCURVE",
"610 618 OFFCURVE",
"657 618 CURVE SMOOTH",
"707 618 OFFCURVE",
"714 640 OFFCURVE",
"785 692 CURVE SMOOTH",
"796 700 OFFCURVE",
"852 734 OFFCURVE",
"852 746 CURVE SMOOTH",
"852 755 OFFCURVE",
"830 761 OFFCURVE",
"816 761 CURVE SMOOTH",
"782 761 OFFCURVE",
"738 727 OFFCURVE",
"710 727 CURVE SMOOTH",
"674 727 OFFCURVE",
"641 737 OFFCURVE",
"608 746 CURVE SMOOTH",
"578 755 OFFCURVE",
"548 763 OFFCURVE",
"518 763 CURVE SMOOTH",
"485 763 OFFCURVE",
"448 757 OFFCURVE",
"420 721 CURVE SMOOTH",
"406 704 OFFCURVE",
"351 682 OFFCURVE",
"314 682 CURVE SMOOTH",
"301 682 OFFCURVE",
"287 663 OFFCURVE",
"287 644 CURVE SMOOTH",
"287 585 OFFCURVE",
"307 513 OFFCURVE",
"307 454 CURVE SMOOTH",
"307 364 OFFCURVE",
"295 265 OFFCURVE",
"262 194 CURVE SMOOTH",
"253 174 OFFCURVE",
"244 153 OFFCURVE",
"233 134 CURVE",
"217 134 OFFCURVE",
"211 170 OFFCURVE",
"211 187 CURVE SMOOTH",
"211 259 OFFCURVE",
"239 382 OFFCURVE",
"239 459 CURVE SMOOTH",
"239 500 OFFCURVE",
"248 563 OFFCURVE",
"248 601 CURVE SMOOTH",
"248 620 OFFCURVE",
"242 632 OFFCURVE",
"234 632 CURVE SMOOTH",
"212 632 OFFCURVE",
"159 582 OFFCURVE",
"137 576 CURVE SMOOTH",
"95 565 OFFCURVE",
"66 564 OFFCURVE",
"66 546 CURVE SMOOTH",
"66 527 OFFCURVE",
"123 467 OFFCURVE",
"125 431 CURVE SMOOTH",
"128 370 OFFCURVE",
"129 314 OFFCURVE",
"129 256 CURVE SMOOTH",
"129 215 OFFCURVE",
"113 171 OFFCURVE",
"91 133 CURVE SMOOTH",
"67 92 OFFCURVE",
"20 67 OFFCURVE",
"20 31 CURVE SMOOTH",
"20 9 OFFCURVE",
"28 0 OFFCURVE",
"52 0 CURVE SMOOTH",
"81 0 OFFCURVE",
"104 13 OFFCURVE",
"141 21 CURVE SMOOTH",
"160 25 OFFCURVE",
"182 28 OFFCURVE",
"209 28 CURVE SMOOTH",
"287 28 OFFCURVE",
"343 -14 OFFCURVE",
"390 -14 CURVE SMOOTH",
"412 -14 OFFCURVE",
"429 6 OFFCURVE",
"452 25 CURVE",
"470 41 OFFCURVE",
"488 61 OFFCURVE",
"499 61 CURVE SMOOTH"
);
},
{
closed = 1;
nodes = (
"792 235 OFFCURVE",
"792 175 OFFCURVE",
"773 126 CURVE SMOOTH",
"766 107 OFFCURVE",
"753 94 OFFCURVE",
"738 94 CURVE SMOOTH",
"694 94 OFFCURVE",
"683 159 OFFCURVE",
"646 159 CURVE SMOOTH",
"612 159 OFFCURVE",
"559 100 OFFCURVE",
"502 100 CURVE SMOOTH",
"480 100 OFFCURVE",
"460 112 OFFCURVE",
"440 122 CURVE",
"556 198 OFFCURVE",
"661 282 OFFCURVE",
"774 341 CURVE",
"783 320 OFFCURVE",
"792 294 OFFCURVE",
"792 271 CURVE SMOOTH"
);
},
{
closed = 1;
nodes = (
"589 504 OFFCURVE",
"641 479 OFFCURVE",
"681 451 CURVE",
"619 413 OFFCURVE",
"456 298 OFFCURVE",
"354 224 CURVE",
"382 284 OFFCURVE",
"402 353 OFFCURVE",
"416 424 CURVE SMOOTH",
"418 436 OFFCURVE",
"506 504 OFFCURVE",
"543 504 CURVE SMOOTH"
);
},
{
closed = 1;
nodes = (
"676 341 OFFCURVE",
"500 207 OFFCURVE",
"404 137 CURVE",
"400 138 OFFCURVE",
"396 139 OFFCURVE",
"392 139 CURVE SMOOTH",
"378 139 OFFCURVE",
"353 125 OFFCURVE",
"325 125 CURVE SMOOTH",
"316 125 OFFCURVE",
"309 125 OFFCURVE",
"301 126 CURVE",
"333 167 LINE",
"334 169 OFFCURVE",
"342 176 OFFCURVE",
"344 177 CURVE",
"477 261 OFFCURVE",
"591 356 OFFCURVE",
"720 419 CURVE",
"730 409 OFFCURVE",
"739 398 OFFCURVE",
"747 387 CURVE"
);
}
);
width = 944;
}
);
unicode = 0047;
},
{
glyphname = H;
lastChange = "2015-02-26 08:53:48 +0000";
layers = (
{
layerId = "BA838D9B-820F-4674-98D0-BE3E112EAB76";
paths = (
{
closed = 1;
nodes = (
"452 210 LINE SMOOTH",
"452 175 OFFCURVE",
"436 139 OFFCURVE",
"436 124 CURVE SMOOTH",
"436 118 OFFCURVE",
"443 111 OFFCURVE",
"452 111 CURVE SMOOTH",
"477 111 OFFCURVE",
"500 143 OFFCURVE",
"520 149 CURVE",
"544 155 OFFCURVE",
"574 174 OFFCURVE",
"574 189 CURVE SMOOTH",
"574 477 LINE SMOOTH",
"574 496 OFFCURVE",
"603 504 OFFCURVE",
"615 504 CURVE SMOOTH",
"661 504 OFFCURVE",
"753 477 OFFCURVE",
"753 418 CURVE SMOOTH",
"753 112 LINE SMOOTH",
"753 76 OFFCURVE",
"734 25 OFFCURVE",
"713 -11 CURVE SMOOTH",
"700 -35 OFFCURVE",
"682 -47 OFFCURVE",
"682 -65 CURVE SMOOTH",
"682 -73 OFFCURVE",
"697 -73 OFFCURVE",
"707 -73 CURVE SMOOTH",
"774 -73 OFFCURVE",
"756 -35 OFFCURVE",
"824 -10 CURVE",
"835 -5 OFFCURVE",
"893 35 OFFCURVE",
"893 45 CURVE SMOOTH",
"893 64 OFFCURVE",
"881 90 OFFCURVE",
"866 102 CURVE",
"866 471 LINE SMOOTH",
"866 501 OFFCURVE",
"905 545 OFFCURVE",
"905 565 CURVE SMOOTH",
"905 595 OFFCURVE",
"881 606 OFFCURVE",
"835 606 CURVE SMOOTH",
"801 606 OFFCURVE",
"766 645 OFFCURVE",
"735 645 CURVE SMOOTH",
"685 645 OFFCURVE",
"639 560 OFFCURVE",
"606 560 CURVE SMOOTH",
"603 560 OFFCURVE",
"574 563 OFFCURVE",
"574 576 CURVE SMOOTH",
"574 692 LINE SMOOTH",
"574 707 OFFCURVE",
"591 727 OFFCURVE",
"591 746 CURVE SMOOTH",
"591 761 OFFCURVE",
"584 774 OFFCURVE",
"563 774 CURVE SMOOTH",
"538 774 OFFCURVE",
"510 737 OFFCURVE",
"474 715 CURVE",
"440 692 OFFCURVE",
"399 682 OFFCURVE",
"366 682 CURVE SMOOTH",
"285 682 OFFCURVE",
"274 692 OFFCURVE",
"260 700 CURVE SMOOTH",
"248 707 OFFCURVE",
"233 713 OFFCURVE",
"173 713 CURVE SMOOTH",
"142 713 OFFCURVE",
"122 675 OFFCURVE",
"91 646 CURVE SMOOTH",
"60 615 OFFCURVE",
"20 606 OFFCURVE",
"20 574 CURVE SMOOTH",
"20 557 OFFCURVE",
"23 538 OFFCURVE",
"35 538 CURVE SMOOTH",
"73 538 OFFCURVE",
"95 559 OFFCURVE",
"128 571 CURVE SMOOTH",
"223 605 OFFCURVE",
"277 614 OFFCURVE",
"406 614 CURVE SMOOTH",
"442 614 OFFCURVE",
"452 579 OFFCURVE",
"452 490 CURVE SMOOTH"
);
},
{
closed = 1;
nodes = (
"337 568 OFFCURVE",
"318 541 OFFCURVE",
"299 526 CURVE",
"277 507 OFFCURVE",
"225 517 OFFCURVE",
"225 476 CURVE SMOOTH",
"225 452 OFFCURVE",
"244 446 OFFCURVE",
"244 424 CURVE SMOOTH",
"244 96 LINE SMOOTH",
"244 35 OFFCURVE",
"198 29 OFFCURVE",
"198 4 CURVE SMOOTH",
"198 -5 OFFCURVE",
"207 -14 OFFCURVE",
"219 -14 CURVE SMOOTH",
"233 -14 OFFCURVE",
"250 -13 OFFCURVE",
"258 -13 CURVE SMOOTH",
"264 -13 OFFCURVE",
"282 -11 OFFCURVE",
"293 -11 CURVE SMOOTH",
"310 -11 OFFCURVE",
"331 -25 OFFCURVE",
"350 -36 CURVE SMOOTH",
"363 -44 OFFCURVE",
"376 -51 OFFCURVE",
"385 -51 CURVE SMOOTH",
"421 -51 OFFCURVE",
"428 -41 OFFCURVE",
"447 -26 CURVE",
"459 -18 OFFCURVE",
"485 -4 OFFCURVE",
"485 8 CURVE SMOOTH",
"485 23 OFFCURVE",
"458 25 OFFCURVE",
"437 25 CURVE SMOOTH",
"415 25 OFFCURVE",
"403 18 OFFCURVE",
"388 18 CURVE SMOOTH",
"379 18 OFFCURVE",
"357 26 OFFCURVE",
"345 37 CURVE SMOOTH",
"327 54 OFFCURVE",
"319 91 OFFCURVE",
"319 118 CURVE SMOOTH",
"319 216 OFFCURVE",
"384 391 OFFCURVE",
"384 502 CURVE SMOOTH",
"384 519 OFFCURVE",
"382 568 OFFCURVE",
"357 568 CURVE SMOOTH"
);
}
);
width = 925;
}
);
unicode = 0048;
},
{
glyphname = I;
layers = (
{
layerId = "BA838D9B-820F-4674-98D0-BE3E112EAB76";
paths = (
{
closed = 1;
nodes = (
"201 -48 OFFCURVE",
"198 -31 OFFCURVE",
"185 -31 CURVE SMOOTH",
"162 -31 OFFCURVE",
"112 -47 OFFCURVE",
"87 -56 CURVE SMOOTH",
"64 -64 OFFCURVE",
"41 -79 OFFCURVE",
"41 -93 CURVE SMOOTH",
"41 -109 OFFCURVE",
"84 -111 OFFCURVE",
"96 -117 CURVE SMOOTH",
"133 -137 OFFCURVE",
"205 -139 OFFCURVE",
"256 -139 CURVE SMOOTH",
"397 -139 OFFCURVE",
"570 -6 OFFCURVE",
"570 145 CURVE SMOOTH",
"570 188 OFFCURVE",
"563 231 OFFCURVE",
"555 273 CURVE SMOOTH",
"547 318 OFFCURVE",
"538 361 OFFCURVE",
"538 400 CURVE SMOOTH",
"538 496 OFFCURVE",
"560 517 OFFCURVE",
"603 635 CURVE SMOOTH",
"606 644 OFFCURVE",
"618 678 OFFCURVE",
"618 690 CURVE SMOOTH",
"618 698 OFFCURVE",
"587 708 OFFCURVE",
"577 708 CURVE SMOOTH",
"553 708 OFFCURVE",
"537 686 OFFCURVE",
"517 676 CURVE SMOOTH",
"476 655 OFFCURVE",
"399 646 OFFCURVE",
"364 646 CURVE SMOOTH",
"310 646 OFFCURVE",
"267 648 OFFCURVE",
"225 659 CURVE",
"195 669 OFFCURVE",
"166 680 OFFCURVE",
"134 680 CURVE SMOOTH",
"118 680 OFFCURVE",
"85 652 OFFCURVE",
"57 626 CURVE SMOOTH",
"42 612 OFFCURVE",
"20 605 OFFCURVE",
"20 587 CURVE SMOOTH",
"20 577 OFFCURVE",
"27 568 OFFCURVE",
"35 568 CURVE SMOOTH",
"40 568 OFFCURVE",
"46 569 OFFCURVE",
"54 571 CURVE SMOOTH",
"61 573 OFFCURVE",
"67 574 OFFCURVE",
"71 574 CURVE SMOOTH",
"88 574 OFFCURVE",
"116 573 OFFCURVE",
"120 571 CURVE SMOOTH",
"139 562 OFFCURVE",
"151 558 OFFCURVE",
"167 558 CURVE SMOOTH",
"249 558 OFFCURVE",
"397 600 OFFCURVE",
"427 600 CURVE SMOOTH",
"437 600 OFFCURVE",
"460 594 OFFCURVE",
"460 580 CURVE SMOOTH",
"460 561 LINE",
"390 548 OFFCURVE",
"317 523 OFFCURVE",
"240 490 CURVE SMOOTH",
"185 467 OFFCURVE",
"126 423 OFFCURVE",
"126 371 CURVE SMOOTH",
"126 312 OFFCURVE",
"181 248 OFFCURVE",
"256 248 CURVE SMOOTH",
"277 248 OFFCURVE",
"301 264 OFFCURVE",
"329 281 CURVE",
"356 299 OFFCURVE",
"387 317 OFFCURVE",
"421 321 CURVE",
"431 246 OFFCURVE",
"461 192 OFFCURVE",
"461 113 CURVE SMOOTH",
"461 93 OFFCURVE",
"453 68 OFFCURVE",
"440 42 CURVE",
"409 71 OFFCURVE",
"371 103 OFFCURVE",
"289 181 CURVE",
"277 194 OFFCURVE",
"265 219 OFFCURVE",
"247 219 CURVE SMOOTH",
"228 219 OFFCURVE",
"216 206 OFFCURVE",
"185 192 CURVE",
"158 181 OFFCURVE",
"109 172 OFFCURVE",
"109 155 CURVE SMOOTH",
"109 137 OFFCURVE",
"148 128 OFFCURVE",
"174 128 CURVE SMOOTH",
"201 128 OFFCURVE",
"305 55 OFFCURVE",
"370 10 CURVE",
"379 3 OFFCURVE",
"391 -5 OFFCURVE",
"399 -14 CURVE",
"367 -51 OFFCURVE",
"327 -82 OFFCURVE",
"290 -82 CURVE SMOOTH",
"271 -82 OFFCURVE",
"231 -65 OFFCURVE",
"213 -54 CURVE"
);
},
{
closed = 1;
nodes = (
"419 364 OFFCURVE",
"405 354 OFFCURVE",
"394 348 CURVE SMOOTH",
"373 336 OFFCURVE",
"320 326 OFFCURVE",
"296 326 CURVE SMOOTH",
"265 326 OFFCURVE",
"232 361 OFFCURVE",
"232 390 CURVE SMOOTH",
"232 432 OFFCURVE",
"301 492 OFFCURVE",
"396 510 CURVE SMOOTH",
"452 520 LINE",
"440 465 OFFCURVE",
"419 416 OFFCURVE",
"419 370 CURVE SMOOTH"
);
}
);
width = 638;
}
);
unicode = 0049;
},
{
glyphname = J;
layers = (
{
layerId = "BA838D9B-820F-4674-98D0-BE3E112EAB76";
paths = (
{
closed = 1;
nodes = (
"201 -48 OFFCURVE",
"198 -31 OFFCURVE",
"185 -31 CURVE SMOOTH",
"162 -31 OFFCURVE",
"112 -47 OFFCURVE",
"87 -56 CURVE SMOOTH",
"64 -64 OFFCURVE",
"41 -79 OFFCURVE",
"41 -93 CURVE SMOOTH",
"41 -109 OFFCURVE",
"84 -111 OFFCURVE",
"96 -117 CURVE SMOOTH",
"133 -137 OFFCURVE",
"205 -139 OFFCURVE",
"256 -139 CURVE SMOOTH",
"397 -139 OFFCURVE",
"570 -6 OFFCURVE",
"570 145 CURVE SMOOTH",
"570 188 OFFCURVE",
"563 231 OFFCURVE",
"555 273 CURVE SMOOTH",
"547 318 OFFCURVE",
"538 361 OFFCURVE",
"538 400 CURVE SMOOTH",
"538 496 OFFCURVE",
"560 517 OFFCURVE",
"603 635 CURVE SMOOTH",
"606 644 OFFCURVE",
"618 678 OFFCURVE",
"618 690 CURVE SMOOTH",
"618 698 OFFCURVE",
"587 708 OFFCURVE",
"577 708 CURVE SMOOTH",
"553 708 OFFCURVE",
"537 686 OFFCURVE",
"517 676 CURVE SMOOTH",
"476 655 OFFCURVE",
"399 646 OFFCURVE",
"364 646 CURVE SMOOTH",
"310 646 OFFCURVE",
"267 648 OFFCURVE",
"225 659 CURVE",
"195 669 OFFCURVE",
"166 680 OFFCURVE",
"134 680 CURVE SMOOTH",
"118 680 OFFCURVE",
"85 652 OFFCURVE",
"57 626 CURVE SMOOTH",
"42 612 OFFCURVE",
"20 605 OFFCURVE",
"20 587 CURVE SMOOTH",
"20 577 OFFCURVE",
"27 568 OFFCURVE",
"35 568 CURVE SMOOTH",
"40 568 OFFCURVE",
"46 569 OFFCURVE",
"54 571 CURVE SMOOTH",
"61 573 OFFCURVE",
"67 574 OFFCURVE",
"71 574 CURVE SMOOTH",
"88 574 OFFCURVE",
"116 573 OFFCURVE",
"120 571 CURVE SMOOTH",
"139 562 OFFCURVE",
"151 558 OFFCURVE",
"167 558 CURVE SMOOTH",
"249 558 OFFCURVE",
"397 600 OFFCURVE",
"427 600 CURVE SMOOTH",
"437 600 OFFCURVE",
"460 594 OFFCURVE",
"460 580 CURVE SMOOTH",
"460 561 LINE",
"390 548 OFFCURVE",
"317 523 OFFCURVE",
"240 490 CURVE SMOOTH",
"185 467 OFFCURVE",
"126 423 OFFCURVE",
"126 371 CURVE SMOOTH",
"126 312 OFFCURVE",
"181 248 OFFCURVE",
"256 248 CURVE SMOOTH",
"277 248 OFFCURVE",
"301 264 OFFCURVE",
"329 281 CURVE",
"356 299 OFFCURVE",
"387 317 OFFCURVE",
"421 321 CURVE",
"431 246 OFFCURVE",
"461 192 OFFCURVE",
"461 113 CURVE SMOOTH",
"461 93 OFFCURVE",
"453 68 OFFCURVE",
"440 42 CURVE",
"409 71 OFFCURVE",
"371 103 OFFCURVE",
"289 181 CURVE",
"277 194 OFFCURVE",
"265 219 OFFCURVE",
"247 219 CURVE SMOOTH",
"228 219 OFFCURVE",
"216 206 OFFCURVE",
"185 192 CURVE",
"158 181 OFFCURVE",
"109 172 OFFCURVE",
"109 155 CURVE SMOOTH",
"109 137 OFFCURVE",
"148 128 OFFCURVE",
"174 128 CURVE SMOOTH",
"201 128 OFFCURVE",
"305 55 OFFCURVE",
"370 10 CURVE",
"379 3 OFFCURVE",
"391 -5 OFFCURVE",
"399 -14 CURVE",
"367 -51 OFFCURVE",
"327 -82 OFFCURVE",
"290 -82 CURVE SMOOTH",
"271 -82 OFFCURVE",
"231 -65 OFFCURVE",
"213 -54 CURVE"
);
},
{
closed = 1;
nodes = (
"419 364 OFFCURVE",
"405 354 OFFCURVE",
"394 348 CURVE SMOOTH",
"373 336 OFFCURVE",
"320 326 OFFCURVE",
"296 326 CURVE SMOOTH",
"265 326 OFFCURVE",
"232 361 OFFCURVE",
"232 390 CURVE SMOOTH",
"232 432 OFFCURVE",
"301 492 OFFCURVE",
"396 510 CURVE SMOOTH",
"452 520 LINE",
"440 465 OFFCURVE",
"419 416 OFFCURVE",
"419 370 CURVE SMOOTH"
);
}
);
width = 638;
}
);
unicode = 004A;
},
{
glyphname = K;
layers = (
{
layerId = "BA838D9B-820F-4674-98D0-BE3E112EAB76";
paths = (
{
closed = 1;
nodes = (
"562 101 LINE SMOOTH",
"562 40 OFFCURVE",
"536 30 OFFCURVE",
"536 16 CURVE SMOOTH",
"536 -25 OFFCURVE",
"562 -28 OFFCURVE",
"589 -48 CURVE",
"610 -62 OFFCURVE",
"633 -87 OFFCURVE",
"667 -87 CURVE SMOOTH",
"680 -87 OFFCURVE",
"715 -40 OFFCURVE",
"742 -20 CURVE",
"768 -4 OFFCURVE",
"788 0 OFFCURVE",
"788 27 CURVE SMOOTH",
"788 40 OFFCURVE",
"768 53 OFFCURVE",
"757 53 CURVE SMOOTH",
"742 53 OFFCURVE",
"706 60 OFFCURVE",
"706 105 CURVE SMOOTH",
"706 155 LINE SMOOTH",
"706 190 OFFCURVE",
"724 250 OFFCURVE",
"724 287 CURVE SMOOTH",
"724 325 OFFCURVE",
"702 345 OFFCURVE",
"676 364 CURVE SMOOTH",
"655 379 OFFCURVE",
"623 409 OFFCURVE",
"590 409 CURVE SMOOTH",
"578 409 OFFCURVE",
"543 332 OFFCURVE",
"478 332 CURVE SMOOTH",
"451 332 LINE SMOOTH",
"417 332 OFFCURVE",
"412 347 OFFCURVE",
"412 364 CURVE SMOOTH",
"412 424 LINE SMOOTH",
"412 466 OFFCURVE",
"424 492 OFFCURVE",
"437 493 CURVE",
"496 506 LINE",
"517 487 LINE",
"549 453 LINE",
"566 438 OFFCURVE",
"578 420 OFFCURVE",
"610 420 CURVE SMOOTH",
"623 420 OFFCURVE",
"643 438 OFFCURVE",
"664 456 CURVE",
"690 471 OFFCURVE",
"708 493 OFFCURVE",
"708 519 CURVE SMOOTH",
"708 541 OFFCURVE",
"687 537 OFFCURVE",
"644 590 CURVE SMOOTH",
"629 608 OFFCURVE",
"613 621 OFFCURVE",
"583 621 CURVE SMOOTH",
"566 621 OFFCURVE",
"548 601 OFFCURVE",
"530 580 CURVE",
"515 564 OFFCURVE",
"501 546 OFFCURVE",
"485 546 CURVE SMOOTH",
"445 546 LINE SMOOTH",
"431 546 OFFCURVE",
"412 548 OFFCURVE",
"412 569 CURVE SMOOTH",
"412 654 LINE SMOOTH",
"412 683 OFFCURVE",
"424 706 OFFCURVE",
"424 732 CURVE SMOOTH",
"424 750 OFFCURVE",
"416 772 OFFCURVE",
"390 772 CURVE SMOOTH",
"357 772 OFFCURVE",
"340 757 OFFCURVE",
"324 744 CURVE",
"275 710 OFFCURVE",
"259 695 OFFCURVE",
"251 682 CURVE",
"258 679 OFFCURVE",
"266 660 OFFCURVE",
"266 649 CURVE SMOOTH",
"266 546 LINE SMOOTH",
"266 514 OFFCURVE",
"303 496 OFFCURVE",
"303 469 CURVE SMOOTH",
"303 451 OFFCURVE",
"266 435 OFFCURVE",
"266 364 CURVE SMOOTH",
"266 100 LINE SMOOTH",
"266 41 OFFCURVE",
"249 30 OFFCURVE",
"249 15 CURVE SMOOTH",
"249 -26 OFFCURVE",
"266 -29 OFFCURVE",
"293 -46 CURVE",
"316 -63 OFFCURVE",
"337 -87 OFFCURVE",
"371 -87 CURVE SMOOTH",
"384 -87 OFFCURVE",
"417 -63 OFFCURVE",
"444 -43 CURVE",
"470 -26 OFFCURVE",
"502 -14 OFFCURVE",
"502 11 CURVE SMOOTH",
"502 25 OFFCURVE",
"489 41 OFFCURVE",
"478 41 CURVE SMOOTH",
"462 41 OFFCURVE",
"412 60 OFFCURVE",
"412 107 CURVE SMOOTH",
"412 184 LINE SMOOTH",
"412 221 OFFCURVE",
"427 267 OFFCURVE",
"451 267 CURVE SMOOTH",
"491 267 LINE SMOOTH",
"530 267 OFFCURVE",
"562 211 OFFCURVE",
"562 155 CURVE SMOOTH"
);
},
{
closed = 1;
nodes = (
"54 -26 OFFCURVE",
"41 -46 OFFCURVE",
"41 -64 CURVE SMOOTH",
"41 -81 OFFCURVE",
"64 -103 OFFCURVE",
"81 -103 CURVE SMOOTH",
"118 -103 OFFCURVE",
"148 -49 OFFCURVE",
"178 5 CURVE",
"196 34 OFFCURVE",
"211 146 OFFCURVE",
"211 305 CURVE SMOOTH",
"211 451 OFFCURVE",
"204 513 OFFCURVE",
"204 652 CURVE SMOOTH",
"204 675 OFFCURVE",
"188 719 OFFCURVE",
"165 719 CURVE SMOOTH",
"148 719 OFFCURVE",
"125 693 OFFCURVE",
"106 693 CURVE SMOOTH",
"51 693 OFFCURVE",
"38 669 OFFCURVE",
"38 658 CURVE SMOOTH",
"38 639 OFFCURVE",
"50 622 OFFCURVE",
"61 609 CURVE SMOOTH",
"79 587 OFFCURVE",
"83 583 OFFCURVE",
"83 572 CURVE SMOOTH",
"83 554 OFFCURVE",
"79 530 OFFCURVE",
"53 524 CURVE",
"27 519 OFFCURVE",
"20 490 OFFCURVE",
"20 479 CURVE SMOOTH",
"20 451 OFFCURVE",
"24 438 OFFCURVE",
"51 424 CURVE SMOOTH",
"77 411 OFFCURVE",
"98 396 OFFCURVE",
"98 366 CURVE SMOOTH",
"98 344 OFFCURVE",
"71 317 OFFCURVE",
"53 303 CURVE",
"38 293 OFFCURVE",
"20 290 OFFCURVE",
"20 271 CURVE SMOOTH",
"20 239 OFFCURVE",
"59 218 OFFCURVE",
"83 198 CURVE SMOOTH",
"107 179 OFFCURVE",
"130 152 OFFCURVE",
"130 133 CURVE SMOOTH",
"130 39 OFFCURVE",
"93 0 OFFCURVE",
"71 -14 CURVE"
);
}
);
width = 808;
}
);
unicode = 004B;
},
{
glyphname = L;
layers = (
{
layerId = "BA838D9B-820F-4674-98D0-BE3E112EAB76";
paths = (
{
closed = 1;
nodes = (
"81 693 OFFCURVE",
"75 652 OFFCURVE",
"59 638 CURVE SMOOTH",
"39 621 OFFCURVE",
"20 606 OFFCURVE",
"20 596 CURVE SMOOTH",
"20 560 OFFCURVE",
"59 531 OFFCURVE",
"106 531 CURVE SMOOTH",
"140 531 OFFCURVE",
"139 551 OFFCURVE",
"164 551 CURVE SMOOTH",
"182 551 OFFCURVE",
"184 526 OFFCURVE",
"184 506 CURVE SMOOTH",
"184 456 OFFCURVE",
"156 429 OFFCURVE",
"137 429 CURVE SMOOTH",
"114 429 OFFCURVE",
"109 420 OFFCURVE",
"109 412 CURVE SMOOTH",
"109 395 OFFCURVE",
"122 390 OFFCURVE",
"137 390 CURVE SMOOTH",
"167 390 OFFCURVE",
"175 353 OFFCURVE",
"175 328 CURVE SMOOTH",
"175 278 OFFCURVE",
"157 259 OFFCURVE",
"133 259 CURVE SMOOTH",
"106 259 OFFCURVE",
"100 250 OFFCURVE",
"100 239 CURVE SMOOTH",
"100 222 OFFCURVE",
"115 211 OFFCURVE",
"133 211 CURVE SMOOTH",
"175 211 OFFCURVE",
"178 166 OFFCURVE",
"178 150 CURVE SMOOTH",
"178 99 OFFCURVE",
"168 60 OFFCURVE",
"100 13 CURVE",
"90 7 OFFCURVE",
"89 -4 OFFCURVE",
"89 -17 CURVE SMOOTH",
"89 -39 OFFCURVE",
"109 -50 OFFCURVE",
"126 -50 CURVE SMOOTH",
"151 -50 OFFCURVE",
"178 -15 OFFCURVE",
"204 -4 CURVE SMOOTH",
"250 16 OFFCURVE",
"301 20 OFFCURVE",
"329 20 CURVE SMOOTH",
"373 20 OFFCURVE",
"416 17 OFFCURVE",
"463 10 CURVE SMOOTH",
"501 3 OFFCURVE",
"541 -14 OFFCURVE",
"579 -14 CURVE SMOOTH",
"621 -14 OFFCURVE",
"622 33 OFFCURVE",
"657 77 CURVE SMOOTH",
"671 95 OFFCURVE",
"699 122 OFFCURVE",
"699 131 CURVE SMOOTH",
"699 148 OFFCURVE",
"691 158 OFFCURVE",
"674 158 CURVE SMOOTH",
"657 158 OFFCURVE",
"630 113 OFFCURVE",
"619 113 CURVE SMOOTH",
"571 113 OFFCURVE",
"558 134 OFFCURVE",
"494 134 CURVE SMOOTH",
"434 134 OFFCURVE",
"401 91 OFFCURVE",
"359 91 CURVE SMOOTH",
"338 91 OFFCURVE",
"320 122 OFFCURVE",
"320 142 CURVE SMOOTH",
"320 253 OFFCURVE",
"307 367 OFFCURVE",
"307 475 CURVE SMOOTH",
"307 518 OFFCURVE",
"326 557 OFFCURVE",
"326 601 CURVE SMOOTH",
"326 626 OFFCURVE",
"313 668 OFFCURVE",
"298 668 CURVE SMOOTH",
"262 668 OFFCURVE",
"243 616 OFFCURVE",
"209 616 CURVE SMOOTH",
"175 616 OFFCURVE",
"161 693 OFFCURVE",
"109 693 CURVE SMOOTH"
);
},
{
closed = 1;
nodes = (
"383 122 OFFCURVE",
"399 167 OFFCURVE",
"402 180 CURVE SMOOTH",
"434 308 OFFCURVE",
"432 431 OFFCURVE",
"443 551 CURVE SMOOTH",
"445 571 OFFCURVE",
"460 654 OFFCURVE",
"460 674 CURVE SMOOTH",
"460 696 OFFCURVE",
"435 712 OFFCURVE",
"409 712 CURVE SMOOTH",
"388 712 OFFCURVE",
"365 696 OFFCURVE",
"365 677 CURVE SMOOTH",
"365 602 OFFCURVE",
"373 510 OFFCURVE",
"373 442 CURVE SMOOTH",
"373 393 OFFCURVE",
"375 331 OFFCURVE",
"375 276 CURVE SMOOTH",
"375 231 OFFCURVE",
"362 191 OFFCURVE",
"362 172 CURVE SMOOTH",
"362 161 OFFCURVE",
"365 122 OFFCURVE",
"375 122 CURVE SMOOTH"
);
}
);
width = 709;
}
);
unicode = 004C;
},
{
glyphname = M;
lastChange = "2015-02-26 08:55:15 +0000";
layers = (
{
layerId = "BA838D9B-820F-4674-98D0-BE3E112EAB76";
paths = (
{
closed = 1;
nodes = (
"213 -2 OFFCURVE",
"211 -17 OFFCURVE",
"211 -24 CURVE SMOOTH",
"211 -35 OFFCURVE",
"215 -39 OFFCURVE",
"230 -39 CURVE SMOOTH",
"249 -39 OFFCURVE",
"333 59 OFFCURVE",
"360 134 CURVE SMOOTH",
"389 218 OFFCURVE",
"413 345 OFFCURVE",
"413 380 CURVE SMOOTH",
"413 405 OFFCURVE",
"402 501 OFFCURVE",
"402 524 CURVE SMOOTH",
"402 540 OFFCURVE",
"445 561 OFFCURVE",
"466 561 CURVE SMOOTH",
"514 561 OFFCURVE",
"569 549 OFFCURVE",
"569 485 CURVE SMOOTH",
"569 224 LINE SMOOTH",
"569 195 OFFCURVE",
"552 160 OFFCURVE",
"552 129 CURVE SMOOTH",
"552 59 OFFCURVE",
"651 11 OFFCURVE",
"700 11 CURVE SMOOTH",
"722 11 OFFCURVE",
"745 22 OFFCURVE",
"759 34 CURVE SMOOTH",
"782 54 OFFCURVE",
"812 61 OFFCURVE",
"834 61 CURVE SMOOTH",
"862 61 OFFCURVE",
"874 36 OFFCURVE",
"904 9 CURVE",
"915 0 OFFCURVE",
"926 -14 OFFCURVE",
"942 -14 CURVE SMOOTH",
"976 -14 OFFCURVE",
"988 22 OFFCURVE",
"1018 43 CURVE",
"1024 48 OFFCURVE",
"1041 62 OFFCURVE",
"1041 67 CURVE SMOOTH",
"1041 81 OFFCURVE",
"1034 90 OFFCURVE",
"1023 96 CURVE SMOOTH",
"1006 106 OFFCURVE",
"974 107 OFFCURVE",
"974 165 CURVE SMOOTH",
"974 496 LINE SMOOTH",
"974 538 OFFCURVE",
"998 557 OFFCURVE",
"998 582 CURVE SMOOTH",
"998 611 OFFCURVE",
"965 638 OFFCURVE",
"921 646 CURVE SMOOTH",
"871 655 OFFCURVE",
"826 700 OFFCURVE",
"782 700 CURVE SMOOTH",
"764 700 OFFCURVE",
"747 680 OFFCURVE",
"747 660 CURVE SMOOTH",
"747 636 OFFCURVE",
"728 610 OFFCURVE",
"708 610 CURVE SMOOTH",
"661 610 OFFCURVE",
"609 635 OFFCURVE",
"573 661 CURVE SMOOTH",
"542 685 OFFCURVE",
"519 711 OFFCURVE",
"480 711 CURVE SMOOTH",
"450 711 OFFCURVE",
"416 660 OFFCURVE",
"392 638 CURVE SMOOTH",
"353 600 OFFCURVE",
"287 596 OFFCURVE",
"242 596 CURVE SMOOTH",
"222 596 OFFCURVE",
"193 571 OFFCURVE",
"177 558 CURVE SMOOTH",
"154 538 OFFCURVE",
"138 538 OFFCURVE",
"116 538 CURVE SMOOTH",
"99 538 OFFCURVE",
"63 524 OFFCURVE",
"63 496 CURVE SMOOTH",
"63 474 OFFCURVE",
"98 455 OFFCURVE",
"115 427 CURVE SMOOTH",
"140 384 OFFCURVE",
"149 299 OFFCURVE",
"149 276 CURVE SMOOTH",
"149 164 OFFCURVE",
"122 43 OFFCURVE",
"96 20 CURVE SMOOTH",
"87 12 OFFCURVE",
"48 -19 OFFCURVE",
"35 -31 CURVE",
"24 -42 OFFCURVE",
"20 -49 OFFCURVE",
"20 -63 CURVE SMOOTH",
"20 -74 OFFCURVE",
"34 -75 OFFCURVE",
"49 -75 CURVE SMOOTH",
"116 -75 OFFCURVE",
"190 26 OFFCURVE",
"211 104 CURVE SMOOTH",
"235 190 OFFCURVE",
"241 313 OFFCURVE",
"241 349 CURVE SMOOTH",
"241 374 OFFCURVE",
"241 457 OFFCURVE",
"254 479 CURVE",
"266 505 LINE",
"280 486 LINE",
"305 443 OFFCURVE",
"305 330 OFFCURVE",
"305 307 CURVE SMOOTH",
"305 260 OFFCURVE",
"263 84 OFFCURVE",
"221 11 CURVE SMOOTH"
);
},
{
closed = 1;
nodes = (
"747 105 OFFCURVE",
"678 117 OFFCURVE",
"678 181 CURVE SMOOTH",
"678 226 LINE SMOOTH",
"678 235 OFFCURVE",
"676 246 OFFCURVE",
"687 249 CURVE",
"829 273 OFFCURVE",
"828 273 OFFCURVE",
"837 273 CURVE SMOOTH",
"860 273 OFFCURVE",
"864 252 OFFCURVE",
"864 248 CURVE SMOOTH",
"864 206 LINE SMOOTH",
"864 140 OFFCURVE",
"804 105 OFFCURVE",
"776 105 CURVE SMOOTH"
);
},
{
closed = 1;
nodes = (
"678 410 LINE SMOOTH",
"678 423 OFFCURVE",
"678 492 OFFCURVE",
"692 519 CURVE SMOOTH",
"702 538 OFFCURVE",
"740 558 OFFCURVE",
"753 558 CURVE SMOOTH",
"795 558 OFFCURVE",
"864 527 OFFCURVE",
"864 485 CURVE SMOOTH",
"864 426 LINE",
"678 390 LINE"
);
},
{
closed = 1;
nodes = (
"678 341 LINE",
"864 377 LINE",
"864 330 LINE",
"678 296 LINE"
);
}
);
width = 1061;
}
);
unicode = 004D;
},
{
glyphname = N;
layers = (
{
layerId = "BA838D9B-820F-4674-98D0-BE3E112EAB76";
paths = (
{
closed = 1;
nodes = (
"51 -39 OFFCURVE",
"62 -16 OFFCURVE",
"67 -2 CURVE SMOOTH",
"82 45 OFFCURVE",
"79 30 OFFCURVE",
"96 89 CURVE SMOOTH",
"114 153 OFFCURVE",
"137 257 OFFCURVE",
"137 285 CURVE SMOOTH",
"137 304 OFFCURVE",
"137 407 OFFCURVE",
"142 424 CURVE",
"145 438 OFFCURVE",
"157 467 OFFCURVE",
"157 482 CURVE SMOOTH",
"157 496 OFFCURVE",
"154 546 OFFCURVE",
"125 546 CURVE SMOOTH",
"109 546 OFFCURVE",
"90 530 OFFCURVE",
"78 521 CURVE",
"53 499 OFFCURVE",
"23 513 OFFCURVE",
"23 473 CURVE SMOOTH",
"23 457 OFFCURVE",
"42 429 OFFCURVE",
"50 406 CURVE SMOOTH",
"61 374 OFFCURVE",
"68 248 OFFCURVE",
"68 229 CURVE SMOOTH",
"68 145 OFFCURVE",
"65 111 OFFCURVE",
"40 51 CURVE",
"35 41 OFFCURVE",
"20 5 OFFCURVE",
"20 -13 CURVE SMOOTH",
"20 -28 OFFCURVE",
"24 -39 OFFCURVE",
"40 -39 CURVE SMOOTH"
);
},
{
closed = 1;
nodes = (
"560 725 OFFCURVE",
"543 716 OFFCURVE",
"497 716 CURVE SMOOTH",
"469 716 OFFCURVE",
"447 696 OFFCURVE",
"443 691 CURVE",
"429 679 OFFCURVE",
"377 643 OFFCURVE",
"362 630 CURVE SMOOTH",
"338 610 OFFCURVE",
"270 604 OFFCURVE",
"248 604 CURVE SMOOTH",
"234 604 OFFCURVE",
"215 594 OFFCURVE",
"215 577 CURVE SMOOTH",
"215 555 OFFCURVE",
"246 463 OFFCURVE",
"246 434 CURVE SMOOTH",
"246 332 OFFCURVE",
"235 251 OFFCURVE",
"210 168 CURVE SMOOTH",
"188 97 OFFCURVE",
"157 23 OFFCURVE",
"107 -62 CURVE",
"100 -75 OFFCURVE",
"98 -91 OFFCURVE",
"98 -97 CURVE SMOOTH",
"98 -108 OFFCURVE",
"101 -112 OFFCURVE",
"117 -112 CURVE SMOOTH",
"135 -112 OFFCURVE",
"235 41 OFFCURVE",
"262 115 CURVE SMOOTH",
"291 200 OFFCURVE",
"299 312 OFFCURVE",
"309 346 CURVE",
"316 374 OFFCURVE",
"343 467 OFFCURVE",
"352 490 CURVE SMOOTH",
"355 498 OFFCURVE",
"365 547 OFFCURVE",
"365 576 CURVE SMOOTH",
"365 609 OFFCURVE",
"430 654 OFFCURVE",
"461 654 CURVE SMOOTH",
"525 654 OFFCURVE",
"582 635 OFFCURVE",
"627 591 CURVE SMOOTH",
"666 552 OFFCURVE",
"685 473 OFFCURVE",
"685 449 CURVE SMOOTH",
"685 365 OFFCURVE",
"667 301 OFFCURVE",
"636 234 CURVE SMOOTH",
"624 207 OFFCURVE",
"566 142 OFFCURVE",
"539 134 CURVE",
"525 129 OFFCURVE",
"510 120 OFFCURVE",
"510 108 CURVE SMOOTH",
"510 83 OFFCURVE",
"546 75 OFFCURVE",
"575 48 CURVE SMOOTH",
"591 34 OFFCURVE",
"591 23 OFFCURVE",
"600 3 CURVE",
"605 -6 OFFCURVE",
"613 -14 OFFCURVE",
"624 -14 CURVE SMOOTH",
"658 -14 OFFCURVE",
"678 30 OFFCURVE",
"711 44 CURVE SMOOTH",
"753 61 OFFCURVE",
"792 67 OFFCURVE",
"792 98 CURVE SMOOTH",
"792 104 OFFCURVE",
"792 111 OFFCURVE",
"781 111 CURVE SMOOTH",
"764 111 OFFCURVE",
"744 92 OFFCURVE",
"728 92 CURVE SMOOTH",
"695 92 OFFCURVE",
"652 125 OFFCURVE",
"652 172 CURVE SMOOTH",
"652 176 OFFCURVE",
"653 201 OFFCURVE",
"675 223 CURVE SMOOTH",
"738 287 OFFCURVE",
"800 424 OFFCURVE",
"800 477 CURVE SMOOTH",
"800 568 OFFCURVE",
"705 725 OFFCURVE",
"610 725 CURVE SMOOTH"
);
},
{
closed = 1;
nodes = (
"439 220 OFFCURVE",
"446 228 OFFCURVE",
"458 234 CURVE SMOOTH",
"476 243 OFFCURVE",
"493 256 OFFCURVE",
"504 271 CURVE SMOOTH",
"515 287 OFFCURVE",
"539 287 OFFCURVE",
"560 287 CURVE SMOOTH",
"574 287 OFFCURVE",
"594 290 OFFCURVE",
"594 306 CURVE SMOOTH",
"594 314 OFFCURVE",
"586 324 OFFCURVE",
"572 326 CURVE",
"564 326 OFFCURVE",
"552 323 OFFCURVE",
"546 323 CURVE SMOOTH",
"522 323 OFFCURVE",
"522 365 OFFCURVE",
"522 392 CURVE SMOOTH",
"522 407 OFFCURVE",
"521 438 OFFCURVE",
"496 438 CURVE SMOOTH",
"474 438 OFFCURVE",
"455 393 OFFCURVE",
"433 381 CURVE",
"410 367 OFFCURVE",
"355 363 OFFCURVE",
"355 331 CURVE SMOOTH",
"355 310 OFFCURVE",
"389 309 OFFCURVE",
"406 303 CURVE",
"414 299 OFFCURVE",
"416 287 OFFCURVE",
"416 276 CURVE SMOOTH",
"416 266 OFFCURVE",
"406 257 OFFCURVE",
"406 247 CURVE SMOOTH",
"406 236 OFFCURVE",
"411 220 OFFCURVE",
"423 220 CURVE SMOOTH"
);
}
);
width = 825;
}
);
unicode = 004E;
},
{
glyphname = O;
lastChange = "2014-01-24 12:10:55 +0000";
layers = (
{
anchors = (
{
name = top;
position = "{586, 669}";
}
);
layerId = "BA838D9B-820F-4674-98D0-BE3E112EAB76";
paths = (
{
closed = 1;
nodes = (
"581 223 OFFCURVE",
"618 252 OFFCURVE",
"633 274 CURVE SMOOTH",
"644 289 OFFCURVE",
"669 289 OFFCURVE",
"689 289 CURVE SMOOTH",
"703 289 OFFCURVE",
"723 292 OFFCURVE",
"723 308 CURVE SMOOTH",
"723 316 OFFCURVE",
"715 327 OFFCURVE",
"701 328 CURVE",
"694 328 OFFCURVE",
"681 325 OFFCURVE",
"675 325 CURVE SMOOTH",
"651 325 OFFCURVE",
"651 367 OFFCURVE",
"651 394 CURVE SMOOTH",
"651 409 OFFCURVE",
"650 440 OFFCURVE",
"625 440 CURVE SMOOTH",
"603 440 OFFCURVE",
"584 395 OFFCURVE",
"562 383 CURVE",
"539 369 OFFCURVE",
"484 366 OFFCURVE",
"484 333 CURVE SMOOTH",
"484 313 OFFCURVE",
"517 311 OFFCURVE",
"534 305 CURVE SMOOTH",
"542 302 OFFCURVE",
"545 294 OFFCURVE",
"545 283 CURVE SMOOTH",
"545 274 OFFCURVE",
"534 262 OFFCURVE",
"534 251 CURVE SMOOTH",
"534 240 OFFCURVE",
"539 222 OFFCURVE",
"552 222 CURVE SMOOTH"
);
},
{
closed = 1;
nodes = (
"583 61 OFFCURVE",
"603 33 OFFCURVE",
"626 15 CURVE",
"648 -4 OFFCURVE",
"672 -14 OFFCURVE",
"701 -14 CURVE SMOOTH",
"751 -14 OFFCURVE",
"790 19 OFFCURVE",
"828 50 CURVE SMOOTH",
"907 116 OFFCURVE",
"962 230 OFFCURVE",
"962 389 CURVE SMOOTH",
"962 562 OFFCURVE",
"803 707 OFFCURVE",
"547 707 CURVE SMOOTH",
"497 707 OFFCURVE",
"433 649 OFFCURVE",
"391 621 CURVE SMOOTH",
"360 601 OFFCURVE",
"280 604 OFFCURVE",
"280 575 CURVE SMOOTH",
"280 566 OFFCURVE",
"282 555 OFFCURVE",
"286 543 CURVE",
"301 492 OFFCURVE",
"301 446 OFFCURVE",
"301 396 CURVE SMOOTH",
"301 364 OFFCURVE",
"298 332 OFFCURVE",
"291 303 CURVE SMOOTH",
"277 250 OFFCURVE",
"246 208 OFFCURVE",
"246 191 CURVE SMOOTH",
"246 180 OFFCURVE",
"255 167 OFFCURVE",
"269 167 CURVE SMOOTH",
"289 167 OFFCURVE",
"308 192 OFFCURVE",
"324 211 CURVE SMOOTH",
"396 297 OFFCURVE",
"419 408 OFFCURVE",
"419 515 CURVE SMOOTH",
"419 576 OFFCURVE",
"438 618 OFFCURVE",
"495 618 CURVE SMOOTH",
"580 618 OFFCURVE",
"683 606 OFFCURVE",
"757 550 CURVE SMOOTH",
"825 498 OFFCURVE",
"870 406 OFFCURVE",
"870 336 CURVE SMOOTH",
"870 292 OFFCURVE",
"860 222 OFFCURVE",
"840 166 CURVE SMOOTH",
"825 122 OFFCURVE",
"803 85 OFFCURVE",
"764 85 CURVE SMOOTH",
"709 85 OFFCURVE",
"711 157 OFFCURVE",
"664 157 CURVE SMOOTH",
"636 157 OFFCURVE",
"545 97 OFFCURVE",
"514 97 CURVE SMOOTH",
"475 97 OFFCURVE",
"422 135 OFFCURVE",
"386 135 CURVE SMOOTH",
"353 135 OFFCURVE",
"252 102 OFFCURVE",
"210 102 CURVE SMOOTH",
"196 102 OFFCURVE",
"190 125 OFFCURVE",
"190 142 CURVE SMOOTH",
"190 214 OFFCURVE",
"230 328 OFFCURVE",
"230 405 CURVE SMOOTH",
"230 465 OFFCURVE",
"229 557 OFFCURVE",
"215 557 CURVE SMOOTH",
"201 557 OFFCURVE",
"165 514 OFFCURVE",
"143 508 CURVE SMOOTH",
"101 497 OFFCURVE",
"60 487 OFFCURVE",
"60 475 CURVE SMOOTH",
"60 462 OFFCURVE",
"129 412 OFFCURVE",
"129 376 CURVE SMOOTH",
"129 275 OFFCURVE",
"92 115 OFFCURVE",
"80 93 CURVE SMOOTH",
"58 52 OFFCURVE",
"20 13 OFFCURVE",
"20 -23 CURVE SMOOTH",
"20 -45 OFFCURVE",
"20 -54 OFFCURVE",
"45 -54 CURVE SMOOTH",
"59 -54 OFFCURVE",
"79 -53 OFFCURVE",
"87 -35 CURVE SMOOTH",
"107 10 OFFCURVE",
"168 36 OFFCURVE",
"216 36 CURVE SMOOTH",
"286 36 OFFCURVE",
"358 22 OFFCURVE",
"421 -10 CURVE",
"431 -17 OFFCURVE",
"435 -32 OFFCURVE",
"456 -32 CURVE SMOOTH",
"478 -32 OFFCURVE",
"474 -6 OFFCURVE",
"497 13 CURVE",
"514 29 OFFCURVE",
"544 61 OFFCURVE",
"555 61 CURVE SMOOTH"
);
}
);
width = 992;
}
);
unicode = 004F;
},
{
glyphname = P;
lastChange = "2015-02-26 08:55:34 +0000";
layers = (
{
layerId = "BA838D9B-820F-4674-98D0-BE3E112EAB76";
paths = (
{
closed = 1;
nodes = (
"129 584 OFFCURVE",
"104 568 OFFCURVE",
"89 568 CURVE SMOOTH",
"56 568 OFFCURVE",
"20 561 OFFCURVE",
"20 546 CURVE SMOOTH",
"20 510 OFFCURVE",
"43 508 OFFCURVE",
"61 508 CURVE SMOOTH",
"89 508 OFFCURVE",
"103 472 OFFCURVE",
"103 433 CURVE SMOOTH",
"103 405 OFFCURVE",
"68 358 OFFCURVE",
"50 358 CURVE SMOOTH",
"40 358 OFFCURVE",
"20 338 OFFCURVE",
"20 327 CURVE SMOOTH",
"20 312 OFFCURVE",
"28 304 OFFCURVE",
"50 302 CURVE",
"82 301 OFFCURVE",
"103 257 OFFCURVE",
"103 224 CURVE SMOOTH",
"103 190 OFFCURVE",
"87 140 OFFCURVE",
"61 140 CURVE SMOOTH",
"40 140 OFFCURVE",
"28 128 OFFCURVE",
"28 117 CURVE SMOOTH",
"28 101 OFFCURVE",
"42 87 OFFCURVE",
"61 87 CURVE SMOOTH",
"87 87 OFFCURVE",
"103 37 OFFCURVE",
"103 9 CURVE SMOOTH",
"103 -25 OFFCURVE",
"90 -69 OFFCURVE",
"60 -92 CURVE SMOOTH",
"46 -103 OFFCURVE",
"40 -109 OFFCURVE",
"40 -119 CURVE SMOOTH",
"40 -126 OFFCURVE",
"49 -135 OFFCURVE",
"60 -135 CURVE SMOOTH",
"79 -135 OFFCURVE",
"107 -122 OFFCURVE",
"126 -122 CURVE SMOOTH",
"156 -122 OFFCURVE",
"165 -135 OFFCURVE",
"196 -135 CURVE SMOOTH",
"206 -135 OFFCURVE",
"224 -127 OFFCURVE",
"224 -117 CURVE SMOOTH",
"224 -74 OFFCURVE",
"198 -99 OFFCURVE",
"198 -18 CURVE SMOOTH",
"198 31 OFFCURVE",
"248 47 OFFCURVE",
"282 47 CURVE SMOOTH",
"419 47 LINE SMOOTH",
"449 47 OFFCURVE",
"521 -4 OFFCURVE",
"544 -4 CURVE SMOOTH",
"572 -4 OFFCURVE",
"596 18 OFFCURVE",
"627 31 CURVE SMOOTH",
"711 65 OFFCURVE",
"783 128 OFFCURVE",
"783 199 CURVE SMOOTH",
"783 352 OFFCURVE",
"706 454 OFFCURVE",
"589 606 CURVE SMOOTH",
"557 649 OFFCURVE",
"522 725 OFFCURVE",
"491 725 CURVE SMOOTH",
"451 725 OFFCURVE",
"419 716 OFFCURVE",
"382 686 CURVE SMOOTH",
"357 667 OFFCURVE",
"327 650 OFFCURVE",
"296 650 CURVE SMOOTH",
"282 650 OFFCURVE",
"262 639 OFFCURVE",
"262 627 CURVE SMOOTH",
"262 607 OFFCURVE",
"276 600 OFFCURVE",
"282 583 CURVE SMOOTH",
"293 550 OFFCURVE",
"296 485 OFFCURVE",
"296 418 CURVE SMOOTH",
"296 363 OFFCURVE",
"292 306 OFFCURVE",
"282 260 CURVE SMOOTH",
"268 195 OFFCURVE",
"245 148 OFFCURVE",
"231 148 CURVE SMOOTH",
"201 148 OFFCURVE",
"178 171 OFFCURVE",
"178 215 CURVE SMOOTH",
"178 527 LINE SMOOTH",
"178 560 OFFCURVE",
"162 584 OFFCURVE",
"142 584 CURVE SMOOTH"
);
},
{
closed = 1;
nodes = (
"256 78 OFFCURVE",
"234 84 OFFCURVE",
"234 93 CURVE SMOOTH",
"234 112 OFFCURVE",
"251 120 OFFCURVE",
"271 128 CURVE SMOOTH",
"346 156 OFFCURVE",
"404 213 OFFCURVE",
"479 252 CURVE SMOOTH",
"488 257 OFFCURVE",
"591 312 OFFCURVE",
"607 312 CURVE SMOOTH",
"639 312 OFFCURVE",
"671 254 OFFCURVE",
"671 176 CURVE SMOOTH",
"671 137 OFFCURVE",
"641 89 OFFCURVE",
"599 89 CURVE SMOOTH",
"575 89 OFFCURVE",
"557 103 OFFCURVE",
"544 118 CURVE",
"532 134 OFFCURVE",
"530 149 OFFCURVE",
"521 149 CURVE SMOOTH",
"487 149 OFFCURVE",
"443 126 OFFCURVE",
"391 109 CURVE SMOOTH",
"354 96 OFFCURVE",
"312 78 OFFCURVE",
"271 78 CURVE SMOOTH"
);
},
{
closed = 1;
nodes = (
"388 326 OFFCURVE",
"426 347 OFFCURVE",
"440 355 CURVE SMOOTH",
"480 377 OFFCURVE",
"549 405 OFFCURVE",
"560 405 CURVE SMOOTH",
"575 405 OFFCURVE",
"597 394 OFFCURVE",
"597 380 CURVE SMOOTH",
"597 369 OFFCURVE",
"593 357 OFFCURVE",
"574 347 CURVE",
"522 323 OFFCURVE",
"432 269 OFFCURVE",
"371 243 CURVE",
"374 260 OFFCURVE",
"379 288 OFFCURVE",
"384 307 CURVE"
);
},
{
closed = 1;
nodes = (
"385 385 LINE",
"385 422 LINE SMOOTH",
"385 469 OFFCURVE",
"390 513 OFFCURVE",
"396 560 CURVE",
"398 567 OFFCURVE",
"410 580 OFFCURVE",
"416 580 CURVE SMOOTH",
"455 580 OFFCURVE",
"536 550 OFFCURVE",
"536 469 CURVE SMOOTH",
"536 435 OFFCURVE",
"463 408 OFFCURVE",
"412 393 CURVE SMOOTH"
);
}
);
width = 808;
}
);
unicode = 0050;
},
{
glyphname = Q;
layers = (
{
layerId = "BA838D9B-820F-4674-98D0-BE3E112EAB76";
paths = (
{
closed = 1;
nodes = (
"583 61 OFFCURVE",
"604 33 OFFCURVE",
"627 15 CURVE",
"649 -4 OFFCURVE",
"672 -14 OFFCURVE",
"702 -14 CURVE SMOOTH",
"752 -14 OFFCURVE",
"791 19 OFFCURVE",
"828 50 CURVE SMOOTH",
"833 54 LINE",
"845 36 OFFCURVE",
"856 25 OFFCURVE",
"886 -3 CURVE SMOOTH",
"902 -18 OFFCURVE",
"923 -31 OFFCURVE",
"939 -31 CURVE SMOOTH",
"961 -31 OFFCURVE",
"977 -18 OFFCURVE",
"994 11 CURVE SMOOTH",
"1006 33 OFFCURVE",
"1061 66 OFFCURVE",
"1061 89 CURVE SMOOTH",
"1061 97 OFFCURVE",
"1056 107 OFFCURVE",
"1050 107 CURVE SMOOTH",
"1040 107 OFFCURVE",
"1006 79 OFFCURVE",
"998 79 CURVE SMOOTH",
"981 79 OFFCURVE",
"928 119 OFFCURVE",
"908 150 CURVE",
"941 213 OFFCURVE",
"962 292 OFFCURVE",
"962 389 CURVE SMOOTH",
"962 562 OFFCURVE",
"803 707 OFFCURVE",
"548 707 CURVE SMOOTH",
"498 707 OFFCURVE",
"434 649 OFFCURVE",
"392 621 CURVE SMOOTH",
"360 601 OFFCURVE",
"281 604 OFFCURVE",
"281 575 CURVE SMOOTH",
"281 551 OFFCURVE",
"301 514 OFFCURVE",
"301 481 CURVE SMOOTH",
"301 425 OFFCURVE",
"296 352 OFFCURVE",
"289 303 CURVE SMOOTH",
"281 249 OFFCURVE",
"246 208 OFFCURVE",
"246 191 CURVE SMOOTH",
"246 180 OFFCURVE",
"256 167 OFFCURVE",
"270 167 CURVE SMOOTH",
"290 167 OFFCURVE",
"309 192 OFFCURVE",
"324 211 CURVE SMOOTH",
"396 297 OFFCURVE",
"420 408 OFFCURVE",
"420 515 CURVE SMOOTH",
"420 576 OFFCURVE",
"438 618 OFFCURVE",
"496 618 CURVE SMOOTH",
"580 618 OFFCURVE",
"683 606 OFFCURVE",
"758 550 CURVE SMOOTH",
"825 498 OFFCURVE",
"870 406 OFFCURVE",
"870 336 CURVE SMOOTH",
"870 292 OFFCURVE",
"861 222 OFFCURVE",
"841 166 CURVE SMOOTH",
"825 122 OFFCURVE",
"803 85 OFFCURVE",
"764 85 CURVE SMOOTH",
"710 85 OFFCURVE",
"711 157 OFFCURVE",
"665 157 CURVE SMOOTH",
"636 157 OFFCURVE",
"546 97 OFFCURVE",
"515 97 CURVE SMOOTH",
"476 97 OFFCURVE",
"423 135 OFFCURVE",
"387 135 CURVE SMOOTH",
"354 135 OFFCURVE",
"253 102 OFFCURVE",
"211 102 CURVE SMOOTH",
"193 102 OFFCURVE",
"190 125 OFFCURVE",
"190 142 CURVE SMOOTH",
"190 214 OFFCURVE",
"231 328 OFFCURVE",
"231 405 CURVE SMOOTH",
"231 465 OFFCURVE",
"229 557 OFFCURVE",
"215 557 CURVE SMOOTH",
"201 557 OFFCURVE",
"165 514 OFFCURVE",
"143 508 CURVE SMOOTH",
"101 497 OFFCURVE",
"61 487 OFFCURVE",
"61 475 CURVE SMOOTH",
"61 462 OFFCURVE",
"129 412 OFFCURVE",
"129 376 CURVE SMOOTH",
"129 275 OFFCURVE",
"109 176 OFFCURVE",
"81 93 CURVE SMOOTH",
"66 49 OFFCURVE",
"20 13 OFFCURVE",
"20 -23 CURVE SMOOTH",
"20 -45 OFFCURVE",
"20 -54 OFFCURVE",
"45 -54 CURVE SMOOTH",
"59 -54 OFFCURVE",
"80 -53 OFFCURVE",
"87 -35 CURVE",
"108 10 OFFCURVE",
"168 36 OFFCURVE",
"217 36 CURVE SMOOTH",
"287 36 OFFCURVE",
"359 22 OFFCURVE",
"421 -10 CURVE",
"432 -17 OFFCURVE",
"435 -32 OFFCURVE",
"457 -32 CURVE SMOOTH",
"479 -32 OFFCURVE",
"474 -6 OFFCURVE",
"498 13 CURVE",
"515 29 OFFCURVE",
"544 61 OFFCURVE",
"555 61 CURVE SMOOTH"
);
},
{
closed = 1;
nodes = (
"568 222 OFFCURVE",
"576 230 OFFCURVE",
"588 236 CURVE SMOOTH",
"605 245 OFFCURVE",
"622 258 OFFCURVE",
"633 274 CURVE SMOOTH",
"644 289 OFFCURVE",
"669 289 OFFCURVE",
"689 289 CURVE SMOOTH",
"704 289 OFFCURVE",
"724 292 OFFCURVE",
"724 308 CURVE SMOOTH",
"724 316 OFFCURVE",
"716 327 OFFCURVE",
"702 328 CURVE",
"694 328 OFFCURVE",
"682 325 OFFCURVE",
"675 325 CURVE SMOOTH",
"652 325 OFFCURVE",
"652 367 OFFCURVE",
"652 394 CURVE SMOOTH",
"652 409 OFFCURVE",
"650 440 OFFCURVE",
"626 440 CURVE SMOOTH",
"604 440 OFFCURVE",
"585 395 OFFCURVE",
"563 383 CURVE",
"540 369 OFFCURVE",
"485 366 OFFCURVE",
"485 333 CURVE SMOOTH",
"485 313 OFFCURVE",
"515 311 OFFCURVE",
"532 305 CURVE SMOOTH",
"540 302 OFFCURVE",
"546 294 OFFCURVE",
"546 283 CURVE SMOOTH",
"546 274 OFFCURVE",
"532 254 OFFCURVE",
"532 243 CURVE SMOOTH",
"532 231 OFFCURVE",
"540 222 OFFCURVE",
"552 222 CURVE SMOOTH"
);
}
);
width = 1076;
}
);
unicode = 0051;
},
{
glyphname = R;
layers = (
{
layerId = "BA838D9B-820F-4674-98D0-BE3E112EAB76";
paths = (
{
closed = 1;
nodes = (
"148 692 OFFCURVE",
"122 668 OFFCURVE",
"102 668 CURVE SMOOTH",
"59 668 OFFCURVE",
"20 653 OFFCURVE",
"20 617 CURVE SMOOTH",
"20 572 OFFCURVE",
"71 529 OFFCURVE",
"115 529 CURVE SMOOTH",
"137 529 OFFCURVE",
"170 565 OFFCURVE",
"186 565 CURVE SMOOTH",
"200 565 OFFCURVE",
"200 526 OFFCURVE",
"200 502 CURVE SMOOTH",
"200 477 OFFCURVE",
"195 452 OFFCURVE",
"186 430 CURVE SMOOTH",
"177 406 OFFCURVE",
"140 388 OFFCURVE",
"114 387 CURVE",
"102 387 OFFCURVE",
"85 378 OFFCURVE",
"85 372 CURVE SMOOTH",
"85 360 OFFCURVE",
"97 348 OFFCURVE",
"114 348 CURVE SMOOTH",
"149 348 OFFCURVE",
"200 318 OFFCURVE",
"200 271 CURVE SMOOTH",
"200 219 OFFCURVE",
"169 212 OFFCURVE",
"115 201 CURVE",
"93 198 OFFCURVE",
"59 185 OFFCURVE",
"59 167 CURVE SMOOTH",
"59 146 OFFCURVE",
"79 142 OFFCURVE",
"115 142 CURVE SMOOTH",
"137 142 OFFCURVE",
"200 131 OFFCURVE",
"200 100 CURVE SMOOTH",
"200 66 OFFCURVE",
"179 20 OFFCURVE",
"143 14 CURVE SMOOTH",
"121 11 OFFCURVE",
"90 -1 OFFCURVE",
"90 -16 CURVE SMOOTH",
"90 -31 OFFCURVE",
"124 -32 OFFCURVE",
"145 -32 CURVE SMOOTH",
"186 -32 OFFCURVE",
"231 -41 OFFCURVE",
"270 -54 CURVE SMOOTH",
"290 -60 OFFCURVE",
"308 -80 OFFCURVE",
"329 -80 CURVE SMOOTH",
"351 -80 OFFCURVE",
"363 -51 OFFCURVE",
"391 -25 CURVE",
"397 -20 OFFCURVE",
"446 8 OFFCURVE",
"446 18 CURVE SMOOTH",
"446 35 OFFCURVE",
"424 47 OFFCURVE",
"407 47 CURVE SMOOTH",
"388 47 OFFCURVE",
"366 41 OFFCURVE",
"347 41 CURVE SMOOTH",
"320 41 OFFCURVE",
"308 64 OFFCURVE",
"308 102 CURVE SMOOTH",
"308 303 LINE SMOOTH",
"308 361 OFFCURVE",
"352 389 OFFCURVE",
"416 389 CURVE SMOOTH",
"486 389 OFFCURVE",
"567 319 OFFCURVE",
"567 223 CURVE SMOOTH",
"567 167 OFFCURVE",
"552 96 OFFCURVE",
"536 81 CURVE",
"536 29 OFFCURVE",
"581 -48 OFFCURVE",
"632 -48 CURVE SMOOTH",
"660 -48 OFFCURVE",
"673 -37 OFFCURVE",
"695 -13 CURVE",
"715 6 OFFCURVE",
"731 -2 OFFCURVE",
"731 14 CURVE SMOOTH",
"731 29 OFFCURVE",
"713 37 OFFCURVE",
"699 37 CURVE SMOOTH",
"675 37 OFFCURVE",
"657 66 OFFCURVE",
"657 102 CURVE SMOOTH",
"657 176 OFFCURVE",
"666 222 OFFCURVE",
"666 296 CURVE SMOOTH",
"666 339 OFFCURVE",
"608 447 OFFCURVE",
"556 492 CURVE",
"551 497 OFFCURVE",
"551 507 OFFCURVE",
"543 507 CURVE SMOOTH",
"493 507 OFFCURVE",
"406 426 OFFCURVE",
"361 426 CURVE SMOOTH",
"323 426 OFFCURVE",
"308 444 OFFCURVE",
"308 501 CURVE SMOOTH",
"308 536 OFFCURVE",
"345 615 OFFCURVE",
"385 615 CURVE SMOOTH",
"433 615 OFFCURVE",
"459 598 OFFCURVE",
"498 574 CURVE",
"510 568 OFFCURVE",
"536 536 OFFCURVE",
"548 536 CURVE SMOOTH",
"591 536 OFFCURVE",
"615 557 OFFCURVE",
"646 559 CURVE",
"657 559 OFFCURVE",
"682 579 OFFCURVE",
"682 591 CURVE SMOOTH",
"682 605 OFFCURVE",
"666 620 OFFCURVE",
"646 620 CURVE SMOOTH",
"603 620 OFFCURVE",
"553 673 OFFCURVE",
"505 713 CURVE",
"495 722 OFFCURVE",
"474 739 OFFCURVE",
"462 739 CURVE SMOOTH",
"446 739 OFFCURVE",
"416 697 OFFCURVE",
"395 685 CURVE SMOOTH",
"362 667 OFFCURVE",
"344 650 OFFCURVE",
"328 640 CURVE SMOOTH",
"306 626 OFFCURVE",
"288 621 OFFCURVE",
"250 621 CURVE SMOOTH",
"229 621 OFFCURVE",
"212 636 OFFCURVE",
"204 660 CURVE",
"200 677 OFFCURVE",
"174 689 OFFCURVE",
"157 692 CURVE"
);
}
);
width = 751;
}
);
unicode = 0052;
},
{
glyphname = S;
lastChange = "2014-02-04 13:15:01 +0000";
layers = (
{
layerId = "BA838D9B-820F-4674-98D0-BE3E112EAB76";
paths = (
{
closed = 1;
nodes = (
"73 672 OFFCURVE",
"20 661 OFFCURVE",
"20 647 CURVE SMOOTH",
"20 611 OFFCURVE",
"42 588 OFFCURVE",
"42 546 CURVE SMOOTH",
"42 493 OFFCURVE",
"21 460 OFFCURVE",
"21 410 CURVE SMOOTH",
"21 370 OFFCURVE",
"79 370 OFFCURVE",
"140 370 CURVE SMOOTH",
"149 370 OFFCURVE",
"169 343 OFFCURVE",
"169 321 CURVE SMOOTH",
"169 309 OFFCURVE",
"166 290 OFFCURVE",
"165 277 CURVE",
"148 262 OFFCURVE",
"132 228 OFFCURVE",
"107 206 CURVE SMOOTH",
"79 182 OFFCURVE",
"31 145 OFFCURVE",
"31 129 CURVE SMOOTH",
"31 15 OFFCURVE",
"237 -14 OFFCURVE",
"382 -14 CURVE SMOOTH",
"463 -14 OFFCURVE",
"547 29 OFFCURVE",
"619 93 CURVE SMOOTH",
"690 156 OFFCURVE",
"751 237 OFFCURVE",
"751 343 CURVE SMOOTH",
"751 427 OFFCURVE",
"711 485 OFFCURVE",
"650 526 CURVE SMOOTH",
"588 568 OFFCURVE",
"508 596 OFFCURVE",
"428 596 CURVE SMOOTH",
"296 596 LINE SMOOTH",
"280 596 OFFCURVE",
"268 612 OFFCURVE",
"263 630 CURVE",
"274 645 OFFCURVE",
"290 667 OFFCURVE",
"321 696 CURVE SMOOTH",
"329 703 OFFCURVE",
"355 708 OFFCURVE",
"355 728 CURVE SMOOTH",
"355 736 OFFCURVE",
"352 739 OFFCURVE",
"347 739 CURVE SMOOTH",
"339 739 OFFCURVE",
"308 717 OFFCURVE",
"291 717 CURVE SMOOTH",
"267 717 OFFCURVE",
"243 722 OFFCURVE",
"222 727 CURVE SMOOTH",
"199 733 OFFCURVE",
"179 739 OFFCURVE",
"163 739 CURVE SMOOTH",
"141 739 OFFCURVE",
"129 716 OFFCURVE",
"96 691 CURVE"
);
},
{
closed = 1;
nodes = (
"187 357 OFFCURVE",
"199 391 OFFCURVE",
"199 407 CURVE SMOOTH",
"199 432 OFFCURVE",
"247 468 OFFCURVE",
"257 471 CURVE",
"294 487 OFFCURVE",
"341 490 OFFCURVE",
"378 490 CURVE SMOOTH",
"436 490 OFFCURVE",
"545 476 OFFCURVE",
"608 438 CURVE SMOOTH",
"667 402 OFFCURVE",
"680 341 OFFCURVE",
"680 296 CURVE SMOOTH",
"680 212 OFFCURVE",
"637 131 OFFCURVE",
"533 92 CURVE SMOOTH",
"491 76 OFFCURVE",
"425 70 OFFCURVE",
"371 70 CURVE SMOOTH",
"329 70 OFFCURVE",
"251 75 OFFCURVE",
"196 95 CURVE SMOOTH",
"159 109 OFFCURVE",
"130 134 OFFCURVE",
"130 150 CURVE SMOOTH",
"130 168 OFFCURVE",
"155 184 OFFCURVE",
"179 184 CURVE SMOOTH",
"221 184 OFFCURVE",
"254 153 OFFCURVE",
"299 153 CURVE SMOOTH",
"343 153 OFFCURVE",
"393 162 OFFCURVE",
"432 199 CURVE",
"452 220 OFFCURVE",
"478 249 OFFCURVE",
"478 290 CURVE SMOOTH",
"478 320 OFFCURVE",
"466 377 OFFCURVE",
"449 377 CURVE SMOOTH",
"433 377 OFFCURVE",
"433 346 OFFCURVE",
"428 331 CURVE",
"416 287 OFFCURVE",
"357 249 OFFCURVE",
"313 249 CURVE SMOOTH",
"279 249 OFFCURVE",
"251 259 OFFCURVE",
"229 270 CURVE",
"204 277 OFFCURVE",
"187 299 OFFCURVE",
"187 324 CURVE SMOOTH"
);
},
{
closed = 1;
nodes = (
"138 451 OFFCURVE",
"123 504 OFFCURVE",
"121 565 CURVE",
"121 588 OFFCURVE",
"141 638 OFFCURVE",
"155 638 CURVE SMOOTH",
"187 638 OFFCURVE",
"212 632 OFFCURVE",
"237 614 CURVE",
"255 602 OFFCURVE",
"265 577 OFFCURVE",
"265 565 CURVE SMOOTH",
"265 538 OFFCURVE",
"263 518 OFFCURVE",
"241 485 CURVE",
"230 471 LINE",
"213 458 OFFCURVE",
"190 451 OFFCURVE",
"174 451 CURVE SMOOTH"
);
}
);
width = 771;
}
);
unicode = 0053;
},
{
glyphname = T;
layers = (
{
layerId = "BA838D9B-820F-4674-98D0-BE3E112EAB76";
paths = (
{
closed = 1;
nodes = (
"261 399 OFFCURVE",
"261 401 OFFCURVE",
"262 390 CURVE",
"266 372 OFFCURVE",
"289 335 OFFCURVE",
"289 320 CURVE SMOOTH",
"289 264 OFFCURVE",
"291 203 OFFCURVE",
"291 137 CURVE SMOOTH",
"291 97 OFFCURVE",
"281 48 OFFCURVE",
"266 16 CURVE SMOOTH",
"250 -16 OFFCURVE",
"228 -49 OFFCURVE",
"215 -67 CURVE",
"207 -76 OFFCURVE",
"203 -78 OFFCURVE",
"203 -85 CURVE SMOOTH",
"203 -90 OFFCURVE",
"208 -94 OFFCURVE",
"215 -94 CURVE SMOOTH",
"220 -94 OFFCURVE",
"227 -91 OFFCURVE",
"232 -90 CURVE",
"333 -47 OFFCURVE",
"376 -51 OFFCURVE",
"453 -39 CURVE SMOOTH",
"496 -32 OFFCURVE",
"535 -30 OFFCURVE",
"577 -30 CURVE SMOOTH",
"605 -30 OFFCURVE",
"632 -35 OFFCURVE",
"656 -39 CURVE SMOOTH",
"677 -42 OFFCURVE",
"696 -45 OFFCURVE",
"714 -45 CURVE SMOOTH",
"753 -45 OFFCURVE",
"755 -5 OFFCURVE",
"780 23 CURVE",
"785 27 OFFCURVE",
"804 57 OFFCURVE",
"804 62 CURVE SMOOTH",
"804 69 OFFCURVE",
"798 76 OFFCURVE",
"789 76 CURVE SMOOTH",
"773 76 OFFCURVE",
"761 62 OFFCURVE",
"745 62 CURVE SMOOTH",
"731 62 OFFCURVE",
"683 76 OFFCURVE",
"667 76 CURVE SMOOTH",
"597 76 OFFCURVE",
"492 11 OFFCURVE",
"424 11 CURVE SMOOTH",
"409 11 OFFCURVE",
"382 38 OFFCURVE",
"382 63 CURVE SMOOTH",
"382 80 OFFCURVE",
"402 261 OFFCURVE",
"402 295 CURVE SMOOTH",
"402 329 OFFCURVE",
"391 399 OFFCURVE",
"391 427 CURVE SMOOTH",
"391 445 OFFCURVE",
"402 452 OFFCURVE",
"402 472 CURVE SMOOTH",
"402 487 OFFCURVE",
"394 495 OFFCURVE",
"384 495 CURVE SMOOTH",
"364 495 OFFCURVE",
"338 470 OFFCURVE",
"313 452 CURVE SMOOTH",
"289 435 OFFCURVE",
"261 429 OFFCURVE",
"261 408 CURVE SMOOTH"
);
},
{
closed = 1;
nodes = (
"462 93 OFFCURVE",
"469 86 OFFCURVE",
"477 86 CURVE SMOOTH",
"512 86 OFFCURVE",
"581 153 OFFCURVE",
"581 224 CURVE SMOOTH",
"581 483 LINE SMOOTH",
"581 514 OFFCURVE",
"592 547 OFFCURVE",
"633 559 CURVE SMOOTH",
"672 569 OFFCURVE",
"706 572 OFFCURVE",
"742 572 CURVE SMOOTH",
"755 572 OFFCURVE",
"765 583 OFFCURVE",
"771 602 CURVE",
"776 623 OFFCURVE",
"793 641 OFFCURVE",
"793 662 CURVE SMOOTH",
"793 675 OFFCURVE",
"785 682 OFFCURVE",
"767 682 CURVE SMOOTH",
"726 682 OFFCURVE",
"683 673 OFFCURVE",
"640 663 CURVE SMOOTH",
"588 651 OFFCURVE",
"538 638 OFFCURVE",
"498 638 CURVE SMOOTH",
"412 638 OFFCURVE",
"329 642 OFFCURVE",
"266 642 CURVE SMOOTH",
"247 642 OFFCURVE",
"201 655 OFFCURVE",
"191 655 CURVE SMOOTH",
"182 655 OFFCURVE",
"157 638 OFFCURVE",
"148 630 CURVE",
"133 614 OFFCURVE",
"20 514 OFFCURVE",
"20 511 CURVE SMOOTH",
"20 499 OFFCURVE",
"24 495 OFFCURVE",
"38 495 CURVE SMOOTH",
"59 495 OFFCURVE",
"72 516 OFFCURVE",
"93 523 CURVE SMOOTH",
"128 536 OFFCURVE",
"173 543 OFFCURVE",
"222 547 CURVE SMOOTH",
"288 553 OFFCURVE",
"358 558 OFFCURVE",
"414 558 CURVE SMOOTH",
"446 558 OFFCURVE",
"467 525 OFFCURVE",
"472 495 CURVE SMOOTH",
"477 462 OFFCURVE",
"480 355 OFFCURVE",
"480 274 CURVE SMOOTH",
"480 192 OFFCURVE",
"462 115 OFFCURVE",
"462 108 CURVE SMOOTH"
);
}
);
width = 824;
}
);
unicode = 0054;
},
{
glyphname = U;
lastChange = "2014-01-28 08:14:51 +0000";
layers = (
{
anchors = (
{
name = ogonek;
position = "{820, 10}";
},
{
name = top;
position = "{656, 639}";
}
);
layerId = "BA838D9B-820F-4674-98D0-BE3E112EAB76";
paths = (
{
closed = 1;
nodes = (
"637 676 OFFCURVE",
"605 641 OFFCURVE",
"605 612 CURVE SMOOTH",
"605 585 OFFCURVE",
"599 576 OFFCURVE",
"584 559 CURVE",
"577 552 OFFCURVE",
"571 548 OFFCURVE",
"571 538 CURVE SMOOTH",
"571 531 OFFCURVE",
"577 527 OFFCURVE",
"584 527 CURVE SMOOTH",
"592 527 OFFCURVE",
"596 538 OFFCURVE",
"602 543 CURVE",
"627 562 OFFCURVE",
"651 563 OFFCURVE",
"677 563 CURVE SMOOTH",
"701 563 OFFCURVE",
"732 559 OFFCURVE",
"746 559 CURVE SMOOTH",
"760 559 OFFCURVE",
"775 546 OFFCURVE",
"775 534 CURVE SMOOTH",
"775 373 LINE",
"758 375 OFFCURVE",
"745 377 OFFCURVE",
"727 377 CURVE SMOOTH",
"653 377 OFFCURVE",
"574 341 OFFCURVE",
"516 323 CURVE",
"508 370 OFFCURVE",
"499 421 OFFCURVE",
"499 471 CURVE SMOOTH",
"499 535 OFFCURVE",
"506 598 OFFCURVE",
"506 657 CURVE SMOOTH",
"506 671 OFFCURVE",
"500 707 OFFCURVE",
"484 707 CURVE SMOOTH",
"459 707 OFFCURVE",
"420 684 OFFCURVE",
"381 673 CURVE SMOOTH",
"331 659 OFFCURVE",
"279 652 OFFCURVE",
"247 652 CURVE SMOOTH",
"200 652 OFFCURVE",
"162 673 OFFCURVE",
"119 673 CURVE SMOOTH",
"109 673 OFFCURVE",
"103 673 OFFCURVE",
"98 665 CURVE",
"83 635 OFFCURVE",
"72 620 OFFCURVE",
"50 594 CURVE SMOOTH",
"33 573 OFFCURVE",
"0 558 OFFCURVE",
"0 546 CURVE SMOOTH",
"0 530 OFFCURVE",
"14 527 OFFCURVE",
"24 527 CURVE SMOOTH",
"31 527 OFFCURVE",
"47 534 OFFCURVE",
"66 546 CURVE",
"98 568 OFFCURVE",
"153 557 OFFCURVE",
"206 574 CURVE SMOOTH",
"262 591 OFFCURVE",
"320 629 OFFCURVE",
"354 629 CURVE SMOOTH",
"376 629 OFFCURVE",
"389 623 OFFCURVE",
"399 591 CURVE",
"402 583 LINE",
"383 574 OFFCURVE",
"360 561 OFFCURVE",
"336 549 CURVE SMOOTH",
"228 496 OFFCURVE",
"156 357 OFFCURVE",
"156 234 CURVE SMOOTH",
"156 99 OFFCURVE",
"287 -14 OFFCURVE",
"487 -14 CURVE SMOOTH",
"555 -14 OFFCURVE",
"607 22 OFFCURVE",
"651 58 CURVE SMOOTH",
"693 92 OFFCURVE",
"727 127 OFFCURVE",
"760 127 CURVE SMOOTH",
"765 127 OFFCURVE",
"775 123 OFFCURVE",
"775 116 CURVE SMOOTH",
"775 56 LINE SMOOTH",
"775 30 OFFCURVE",
"757 3 OFFCURVE",
"741 -20 CURVE SMOOTH",
"735 -29 OFFCURVE",
"735 -39 OFFCURVE",
"735 -45 CURVE SMOOTH",
"735 -50 OFFCURVE",
"740 -51 OFFCURVE",
"749 -51 CURVE SMOOTH",
"765 -51 OFFCURVE",
"833 17 OFFCURVE",
"874 49 CURVE",
"883 55 OFFCURVE",
"883 69 OFFCURVE",
"883 77 CURVE SMOOTH",
"883 95 OFFCURVE",
"850 138 OFFCURVE",
"850 167 CURVE SMOOTH",
"850 513 LINE SMOOTH",
"850 576 OFFCURVE",
"857 581 OFFCURVE",
"866 596 CURVE",
"869 602 OFFCURVE",
"891 645 OFFCURVE",
"891 651 CURVE SMOOTH",
"891 657 OFFCURVE",
"884 668 OFFCURVE",
"878 668 CURVE SMOOTH",
"870 668 OFFCURVE",
"856 663 OFFCURVE",
"840 658 CURVE SMOOTH",
"821 652 OFFCURVE",
"799 646 OFFCURVE",
"785 646 CURVE SMOOTH",
"754 646 OFFCURVE",
"682 676 OFFCURVE",
"658 676 CURVE SMOOTH"
);
},
{
closed = 1;
nodes = (
"418 306 OFFCURVE",
"415 283 OFFCURVE",
"407 240 CURVE SMOOTH",
"395 176 OFFCURVE",
"359 130 OFFCURVE",
"347 105 CURVE",
"293 144 OFFCURVE",
"254 220 OFFCURVE",
"254 275 CURVE SMOOTH",
"254 314 OFFCURVE",
"259 357 OFFCURVE",
"275 404 CURVE SMOOTH",
"298 473 OFFCURVE",
"345 534 OFFCURVE",
"379 534 CURVE SMOOTH",
"388 534 OFFCURVE",
"400 528 OFFCURVE",
"412 520 CURVE",
"417 455 OFFCURVE",
"418 367 OFFCURVE",
"418 345 CURVE SMOOTH"
);
},
{
closed = 1;
nodes = (
"597 221 OFFCURVE",
"674 251 OFFCURVE",
"747 253 CURVE SMOOTH",
"757 253 OFFCURVE",
"766 250 OFFCURVE",
"775 249 CURVE",
"775 185 LINE",
"710 130 OFFCURVE",
"595 70 OFFCURVE",
"515 70 CURVE SMOOTH",
"462 70 OFFCURVE",
"412 73 OFFCURVE",
"371 90 CURVE",
"413 124 OFFCURVE",
"488 185 OFFCURVE",
"521 197 CURVE"
);
},
{
closed = 1;
nodes = (
"526 252 OFFCURVE",
"524 271 OFFCURVE",
"521 291 CURVE",
"600 316 OFFCURVE",
"679 346 OFFCURVE",
"755 346 CURVE SMOOTH",
"762 346 OFFCURVE",
"769 343 OFFCURVE",
"775 342 CURVE",
"775 280 LINE",
"759 282 OFFCURVE",
"746 284 OFFCURVE",
"730 284 CURVE SMOOTH",
"660 284 OFFCURVE",
"590 250 OFFCURVE",
"526 232 CURVE"
);
}
);
width = 911;
}
);
unicode = 0055;
},
{
glyphname = V;
layers = (
{
layerId = "BA838D9B-820F-4674-98D0-BE3E112EAB76";
paths = (
{
closed = 1;
nodes = (
"20 465 OFFCURVE",
"56 416 OFFCURVE",
"80 376 CURVE",
"100 338 OFFCURVE",
"125 296 OFFCURVE",
"125 254 CURVE SMOOTH",
"125 207 OFFCURVE",
"102 136 OFFCURVE",
"70 83 CURVE",
"63 69 OFFCURVE",
"47 45 OFFCURVE",
"47 30 CURVE SMOOTH",
"47 11 OFFCURVE",
"69 -11 OFFCURVE",
"97 -11 CURVE SMOOTH",
"123 -11 OFFCURVE",
"133 9 OFFCURVE",
"159 19 CURVE SMOOTH",
"209 37 OFFCURVE",
"272 51 OFFCURVE",
"311 51 CURVE SMOOTH",
"378 51 OFFCURVE",
"384 -14 OFFCURVE",
"401 -14 CURVE SMOOTH",
"424 -14 OFFCURVE",
"440 -6 OFFCURVE",
"457 26 CURVE SMOOTH",
"476 61 OFFCURVE",
"524 84 OFFCURVE",
"563 86 CURVE SMOOTH",
"584 87 OFFCURVE",
"598 96 OFFCURVE",
"598 121 CURVE SMOOTH",
"598 151 OFFCURVE",
"523 196 OFFCURVE",
"523 268 CURVE SMOOTH",
"523 343 OFFCURVE",
"533 388 OFFCURVE",
"577 447 CURVE SMOOTH",
"585 458 OFFCURVE",
"594 476 OFFCURVE",
"594 490 CURVE SMOOTH",
"594 519 OFFCURVE",
"588 526 OFFCURVE",
"577 526 CURVE SMOOTH",
"563 526 OFFCURVE",
"515 501 OFFCURVE",
"492 501 CURVE SMOOTH",
"453 501 OFFCURVE",
"393 563 OFFCURVE",
"370 563 CURVE SMOOTH",
"329 563 OFFCURVE",
"315 519 OFFCURVE",
"271 486 CURVE",
"262 478 OFFCURVE",
"226 418 OFFCURVE",
"214 418 CURVE SMOOTH",
"195 418 OFFCURVE",
"171 433 OFFCURVE",
"156 460 CURVE SMOOTH",
"140 487 OFFCURVE",
"134 525 OFFCURVE",
"134 551 CURVE SMOOTH",
"134 580 OFFCURVE",
"175 616 OFFCURVE",
"212 616 CURVE SMOOTH",
"234 616 OFFCURVE",
"254 600 OFFCURVE",
"273 600 CURVE SMOOTH",
"290 600 OFFCURVE",
"309 604 OFFCURVE",
"309 641 CURVE SMOOTH",
"309 671 OFFCURVE",
"270 682 OFFCURVE",
"217 682 CURVE SMOOTH",
"144 682 OFFCURVE",
"20 585 OFFCURVE",
"20 513 CURVE SMOOTH"
);
},
{
closed = 1;
nodes = (
"124 69 OFFCURVE",
"114 76 OFFCURVE",
"114 79 CURVE SMOOTH",
"114 84 OFFCURVE",
"124 92 OFFCURVE",
"130 97 CURVE",
"193 142 OFFCURVE",
"253 214 OFFCURVE",
"253 278 CURVE SMOOTH",
"253 315 OFFCURVE",
"233 335 OFFCURVE",
"233 362 CURVE SMOOTH",
"233 390 OFFCURVE",
"261 423 OFFCURVE",
"311 423 CURVE SMOOTH",
"339 423 OFFCURVE",
"350 393 OFFCURVE",
"370 393 CURVE SMOOTH",
"387 393 OFFCURVE",
"398 402 OFFCURVE",
"417 402 CURVE SMOOTH",
"424 402 OFFCURVE",
"445 395 OFFCURVE",
"445 385 CURVE SMOOTH",
"445 363 OFFCURVE",
"414 313 OFFCURVE",
"414 282 CURVE SMOOTH",
"414 246 OFFCURVE",
"454 189 OFFCURVE",
"454 156 CURVE SMOOTH",
"454 145 OFFCURVE",
"448 134 OFFCURVE",
"432 134 CURVE SMOOTH",
"410 134 OFFCURVE",
"371 167 OFFCURVE",
"350 167 CURVE SMOOTH",
"289 167 OFFCURVE",
"177 69 OFFCURVE",
"130 69 CURVE SMOOTH"
);
}
);
width = 618;
}
);
unicode = 0056;
},
{
glyphname = W;
layers = (
{
layerId = "BA838D9B-820F-4674-98D0-BE3E112EAB76";
paths = (
{
closed = 1;
nodes = (
"700 537 OFFCURVE",
"754 524 OFFCURVE",
"754 460 CURVE SMOOTH",
"754 376 LINE",
"525 376 LINE",
"520 408 OFFCURVE",
"517 440 OFFCURVE",
"517 471 CURVE SMOOTH",
"517 535 OFFCURVE",
"525 597 OFFCURVE",
"525 657 CURVE SMOOTH",
"525 671 OFFCURVE",
"517 707 OFFCURVE",
"500 707 CURVE SMOOTH",
"475 707 OFFCURVE",
"422 683 OFFCURVE",
"383 672 CURVE SMOOTH",
"333 658 OFFCURVE",
"282 652 OFFCURVE",
"249 652 CURVE SMOOTH",
"202 652 OFFCURVE",
"165 672 OFFCURVE",
"121 672 CURVE SMOOTH",
"112 672 OFFCURVE",
"105 672 OFFCURVE",
"101 665 CURVE SMOOTH",
"85 635 OFFCURVE",
"59 619 OFFCURVE",
"37 592 CURVE SMOOTH",
"20 572 OFFCURVE",
"2 558 OFFCURVE",
"2 546 CURVE SMOOTH",
"2 530 OFFCURVE",
"16 527 OFFCURVE",
"26 527 CURVE SMOOTH",
"34 527 OFFCURVE",
"49 533 OFFCURVE",
"68 546 CURVE SMOOTH",
"101 568 OFFCURVE",
"155 557 OFFCURVE",
"208 574 CURVE SMOOTH",
"264 591 OFFCURVE",
"322 629 OFFCURVE",
"357 629 CURVE SMOOTH",
"378 629 OFFCURVE",
"401 617 OFFCURVE",
"404 591 CURVE SMOOTH",
"405 583 LINE",
"386 574 OFFCURVE",
"362 561 OFFCURVE",
"338 549 CURVE SMOOTH",
"230 496 OFFCURVE",
"158 357 OFFCURVE",
"158 234 CURVE SMOOTH",
"158 98 OFFCURVE",
"289 -14 OFFCURVE",
"489 -14 CURVE SMOOTH",
"558 -14 OFFCURVE",
"617 11 OFFCURVE",
"661 47 CURVE SMOOTH",
"688 69 OFFCURVE",
"714 89 OFFCURVE",
"737 99 CURVE",
"742 31 OFFCURVE",
"838 -14 OFFCURVE",
"885 -14 CURVE SMOOTH",
"907 -14 OFFCURVE",
"923 -3 OFFCURVE",
"937 9 CURVE SMOOTH",
"960 30 OFFCURVE",
"982 47 OFFCURVE",
"1004 47 CURVE SMOOTH",
"1032 47 OFFCURVE",
"1037 11 OFFCURVE",
"1066 -16 CURVE",
"1077 -25 OFFCURVE",
"1088 -39 OFFCURVE",
"1104 -39 CURVE SMOOTH",
"1138 -39 OFFCURVE",
"1151 -3 OFFCURVE",
"1180 19 CURVE",
"1186 23 OFFCURVE",
"1204 37 OFFCURVE",
"1204 42 CURVE SMOOTH",
"1204 56 OFFCURVE",
"1196 66 OFFCURVE",
"1185 72 CURVE SMOOTH",
"1168 81 OFFCURVE",
"1137 83 OFFCURVE",
"1137 140 CURVE SMOOTH",
"1137 471 LINE SMOOTH",
"1137 513 OFFCURVE",
"1160 532 OFFCURVE",
"1160 557 CURVE SMOOTH",
"1160 587 OFFCURVE",
"1127 613 OFFCURVE",
"1083 621 CURVE SMOOTH",
"1034 630 OFFCURVE",
"1004 675 OFFCURVE",
"960 675 CURVE SMOOTH",
"942 675 OFFCURVE",
"924 655 OFFCURVE",
"924 635 CURVE SMOOTH",
"924 612 OFFCURVE",
"906 583 OFFCURVE",
"885 583 CURVE SMOOTH",
"839 583 OFFCURVE",
"795 610 OFFCURVE",
"759 636 CURVE SMOOTH",
"728 660 OFFCURVE",
"704 682 OFFCURVE",
"665 682 CURVE SMOOTH",
"644 682 OFFCURVE",
"580 615 OFFCURVE",
"580 585 CURVE SMOOTH",
"580 558 OFFCURVE",
"573 549 OFFCURVE",
"558 532 CURVE",
"552 526 OFFCURVE",
"545 522 OFFCURVE",
"545 513 CURVE SMOOTH",
"545 505 OFFCURVE",
"551 499 OFFCURVE",
"558 499 CURVE SMOOTH",
"566 499 OFFCURVE",
"570 509 OFFCURVE",
"576 513 CURVE",
"601 532 OFFCURVE",
"625 537 OFFCURVE",
"651 537 CURVE SMOOTH"
);
},
{
closed = 1;
nodes = (
"420 306 OFFCURVE",
"411 234 OFFCURVE",
"410 193 CURVE SMOOTH",
"410 176 OFFCURVE",
"388 152 OFFCURVE",
"388 136 CURVE SMOOTH",
"388 129 OFFCURVE",
"399 128 OFFCURVE",
"406 128 CURVE SMOOTH",
"416 128 OFFCURVE",
"491 177 OFFCURVE",
"522 186 CURVE SMOOTH",
"537 190 OFFCURVE",
"544 215 OFFCURVE",
"544 226 CURVE SMOOTH",
"544 234 LINE",
"754 234 LINE",
"754 200 LINE SMOOTH",
"754 193 OFFCURVE",
"753 186 OFFCURVE",
"752 180 CURVE",
"685 128 OFFCURVE",
"588 70 OFFCURVE",
"517 70 CURVE SMOOTH",
"453 70 OFFCURVE",
"387 80 OFFCURVE",
"340 111 CURVE SMOOTH",
"293 142 OFFCURVE",
"264 194 OFFCURVE",
"264 265 CURVE SMOOTH",
"264 321 OFFCURVE",
"282 422 OFFCURVE",
"318 483 CURVE SMOOTH",
"335 512 OFFCURVE",
"354 534 OFFCURVE",
"381 534 CURVE SMOOTH",
"390 534 OFFCURVE",
"402 528 OFFCURVE",
"414 521 CURVE",
"419 455 OFFCURVE",
"420 367 OFFCURVE",
"420 345 CURVE SMOOTH"
);
},
{
closed = 1;
nodes = (
"856 385 LINE SMOOTH",
"856 418 OFFCURVE",
"857 462 OFFCURVE",
"872 492 CURVE SMOOTH",
"884 516 OFFCURVE",
"905 529 OFFCURVE",
"931 529 CURVE SMOOTH",
"973 529 OFFCURVE",
"1034 502 OFFCURVE",
"1034 460 CURVE SMOOTH",
"1034 376 LINE",
"856 376 LINE"
);
},
{
closed = 1;
nodes = (
"924 83 OFFCURVE",
"856 92 OFFCURVE",
"856 156 CURVE SMOOTH",
"856 234 LINE",
"1034 234 LINE",
"1034 181 LINE SMOOTH",
"1034 115 OFFCURVE",
"982 83 OFFCURVE",
"954 83 CURVE SMOOTH"
);
},
{
closed = 1;
nodes = (
"754 328 LINE",
"754 282 LINE",
"539 282 LINE",
"537 296 OFFCURVE",
"535 312 OFFCURVE",
"532 328 CURVE"
);
},
{
closed = 1;
nodes = (
"856 328 LINE",
"1034 328 LINE",
"1034 282 LINE",
"856 282 LINE"
);
}
);
width = 1222;
}
);
unicode = 0057;
},
{
glyphname = X;
lastChange = "2015-02-26 08:56:59 +0000";
layers = (
{
layerId = "BA838D9B-820F-4674-98D0-BE3E112EAB76";
paths = (
{
closed = 1;
nodes = (
"56 682 OFFCURVE",
"36 679 OFFCURVE",
"36 668 CURVE SMOOTH",
"36 654 OFFCURVE",
"64 632 OFFCURVE",
"68 627 CURVE",
"81 618 OFFCURVE",
"148 540 OFFCURVE",
"206 468 CURVE SMOOTH",
"235 432 OFFCURVE",
"272 391 OFFCURVE",
"310 347 CURVE",
"278 304 OFFCURVE",
"266 281 OFFCURVE",
"247 257 CURVE SMOOTH",
"183 181 OFFCURVE",
"112 81 OFFCURVE",
"50 42 CURVE",
"42 38 OFFCURVE",
"20 19 OFFCURVE",
"20 13 CURVE SMOOTH",
"20 -11 OFFCURVE",
"39 -14 OFFCURVE",
"62 -14 CURVE SMOOTH",
"82 -14 OFFCURVE",
"121 -4 OFFCURVE",
"142 -4 CURVE SMOOTH",
"164 -4 OFFCURVE",
"190 -14 OFFCURVE",
"217 -14 CURVE SMOOTH",
"240 -14 OFFCURVE",
"259 -7 OFFCURVE",
"259 2 CURVE SMOOTH",
"259 49 OFFCURVE",
"189 35 OFFCURVE",
"189 71 CURVE SMOOTH",
"189 81 OFFCURVE",
"242 170 OFFCURVE",
"248 180 CURVE",
"280 222 OFFCURVE",
"315 261 OFFCURVE",
"351 301 CURVE",
"409 234 OFFCURVE",
"437 199 OFFCURVE",
"467 136 CURVE SMOOTH",
"474 122 OFFCURVE",
"501 71 OFFCURVE",
"501 55 CURVE SMOOTH",
"501 33 OFFCURVE",
"458 41 OFFCURVE",
"444 22 CURVE SMOOTH",
"438 14 OFFCURVE",
"435 9 OFFCURVE",
"435 0 CURVE SMOOTH",
"435 -8 OFFCURVE",
"440 -14 OFFCURVE",
"452 -14 CURVE SMOOTH",
"467 -14 OFFCURVE",
"487 -10 OFFCURVE",
"506 -5 CURVE SMOOTH",
"523 -1 OFFCURVE",
"539 3 OFFCURVE",
"552 3 CURVE SMOOTH",
"569 3 OFFCURVE",
"581 1 OFFCURVE",
"592 -1 CURVE",
"601 -3 OFFCURVE",
"609 -4 OFFCURVE",
"618 -4 CURVE SMOOTH",
"630 -4 OFFCURVE",
"655 7 OFFCURVE",
"655 18 CURVE SMOOTH",
"655 109 OFFCURVE",
"529 248 OFFCURVE",
"411 371 CURVE",
"436 400 OFFCURVE",
"461 431 OFFCURVE",
"486 465 CURVE SMOOTH",
"504 489 OFFCURVE",
"574 557 OFFCURVE",
"605 608 CURVE SMOOTH",
"616 627 OFFCURVE",
"628 640 OFFCURVE",
"628 661 CURVE SMOOTH",
"628 669 OFFCURVE",
"622 693 OFFCURVE",
"607 693 CURVE SMOOTH",
"586 693 OFFCURVE",
"555 672 OFFCURVE",
"538 672 CURVE SMOOTH",
"501 672 OFFCURVE",
"480 693 OFFCURVE",
"444 693 CURVE SMOOTH",
"429 693 OFFCURVE",
"382 686 OFFCURVE",
"382 666 CURVE SMOOTH",
"382 651 OFFCURVE",
"395 648 OFFCURVE",
"410 648 CURVE SMOOTH",
"422 648 OFFCURVE",
"437 651 OFFCURVE",
"446 651 CURVE",
"462 650 OFFCURVE",
"474 638 OFFCURVE",
"474 616 CURVE SMOOTH",
"474 552 OFFCURVE",
"430 487 OFFCURVE",
"367 417 CURVE",
"302 485 OFFCURVE",
"228 576 OFFCURVE",
"226 580 CURVE",
"221 601 LINE",
"223 607 OFFCURVE",
"237 612 OFFCURVE",
"245 612 CURVE SMOOTH",
"254 612 OFFCURVE",
"271 621 OFFCURVE",
"277 624 CURVE SMOOTH",
"290 630 OFFCURVE",
"318 651 OFFCURVE",
"318 666 CURVE SMOOTH",
"318 679 OFFCURVE",
"304 693 OFFCURVE",
"287 693 CURVE SMOOTH",
"238 693 OFFCURVE",
"186 671 OFFCURVE",
"140 671 CURVE SMOOTH",
"124 671 OFFCURVE",
"110 673 OFFCURVE",
"96 676 CURVE SMOOTH",
"85 678 OFFCURVE",
"74 682 OFFCURVE",
"61 682 CURVE SMOOTH"
);
}
);
width = 675;
}
);
unicode = 0058;
},
{
glyphname = Y;
lastChange = "2021-03-11 14:05:41 +0000";
layers = (
{
anchors = (
{
name = ogonek;
position = "{820, -10}";
},
{
name = top;
position = "{656, 619}";
},
{
name = top_acute;
position = "{213, 649}";
},
{
name = top_caron;
position = "{268, 649}";
}
);
backgroundImage = {
imagePath = "../../psaltarium/uusi-pikku-y.png";
locked = "1";
transform = "{1.0647, 0, 0, 1.0647, -446, -1888}";
};
layerId = "BA838D9B-820F-4674-98D0-BE3E112EAB76";
paths = (
{
closed = 1;
nodes = (
"223 565 OFFCURVE",
"231 537 OFFCURVE",
"265 537 CURVE SMOOTH",
"292 537 OFFCURVE",
"306 495 OFFCURVE",
"306 447 CURVE SMOOTH",
"306 416 OFFCURVE",
"303 314 OFFCURVE",
"293 285 CURVE SMOOTH",
"284 258 OFFCURVE",
"228 148 OFFCURVE",
"219 148 CURVE SMOOTH",
"188 148 OFFCURVE",
"176 174 OFFCURVE",
"176 204 CURVE SMOOTH",
"176 513 OFFCURVE",
"170 551 OFFCURVE",
"112 601 CURVE SMOOTH",
"97 614 OFFCURVE",
"82 638 OFFCURVE",
"68 638 CURVE SMOOTH",
"45 638 OFFCURVE",
"-20 567 OFFCURVE",
"-20 548 CURVE SMOOTH",
"-20 520 OFFCURVE",
"-4 512 OFFCURVE",
"15 512 CURVE SMOOTH",
"34 512 OFFCURVE",
"65 371 OFFCURVE",
"70 338 CURVE SMOOTH",
"81 266 OFFCURVE",
"77 188 OFFCURVE",
"77 116 CURVE SMOOTH",
"77 -8 LINE SMOOTH",
"77 -137 OFFCURVE",
"182 -180 OFFCURVE",
"289 -180 CURVE SMOOTH",
"345 -180 OFFCURVE",
"439 -126 OFFCURVE",
"439 -93 CURVE SMOOTH",
"439 -76 OFFCURVE",
"433 -64 OFFCURVE",
"412 -64 CURVE SMOOTH",
"383 -64 OFFCURVE",
"351 -141 OFFCURVE",
"272 -141 CURVE SMOOTH",
"200 -141 OFFCURVE",
"184 -83 OFFCURVE",
"184 -8 CURVE SMOOTH",
"184 24 OFFCURVE",
"228 93 OFFCURVE",
"237 109 CURVE SMOOTH",
"376 355 LINE SMOOTH",
"389 378 OFFCURVE",
"436 444 OFFCURVE",
"436 484 CURVE SMOOTH",
"436 542 OFFCURVE",
"411 581 OFFCURVE",
"388 606 CURVE SMOOTH",
"374 621 OFFCURVE",
"331 660 OFFCURVE",
"314 660 CURVE SMOOTH",
"303 660 OFFCURVE",
"284 643 OFFCURVE",
"273 634 CURVE SMOOTH",
"261 624 OFFCURVE",
"223 590 OFFCURVE",
"223 570 CURVE SMOOTH"
);
}
);
width = 423;
}
);
unicode = 0059;
},
{
glyphname = Z;
layers = (
{
layerId = "BA838D9B-820F-4674-98D0-BE3E112EAB76";
paths = (
{
closed = 1;
nodes = (
"33 620 OFFCURVE",
"43 619 OFFCURVE",
"57 619 CURVE SMOOTH",
"66 619 OFFCURVE",
"80 628 OFFCURVE",
"93 628 CURVE SMOOTH",
"138 628 OFFCURVE",
"167 575 OFFCURVE",
"167 499 CURVE SMOOTH",
"167 460 OFFCURVE",
"142 410 OFFCURVE",
"113 383 CURVE SMOOTH",
"88 359 OFFCURVE",
"30 320 OFFCURVE",
"30 287 CURVE SMOOTH",
"30 273 OFFCURVE",
"35 269 OFFCURVE",
"52 269 CURVE SMOOTH",
"75 269 OFFCURVE",
"106 293 OFFCURVE",
"123 293 CURVE SMOOTH",
"195 293 OFFCURVE",
"283 189 OFFCURVE",
"283 118 CURVE SMOOTH",
"283 83 OFFCURVE",
"243 22 OFFCURVE",
"186 22 CURVE SMOOTH",
"156 22 OFFCURVE",
"127 52 OFFCURVE",
"107 52 CURVE SMOOTH",
"82 52 OFFCURVE",
"92 47 OFFCURVE",
"57 24 CURVE SMOOTH",
"37 10 OFFCURVE",
"20 -6 OFFCURVE",
"20 -24 CURVE SMOOTH",
"20 -34 OFFCURVE",
"27 -45 OFFCURVE",
"37 -45 CURVE SMOOTH",
"48 -45 OFFCURVE",
"60 -39 OFFCURVE",
"71 -33 CURVE",
"81 -28 OFFCURVE",
"90 -24 OFFCURVE",
"96 -24 CURVE SMOOTH",
"128 -24 OFFCURVE",
"146 -51 OFFCURVE",
"177 -51 CURVE SMOOTH",
"208 -51 OFFCURVE",
"216 -32 OFFCURVE",
"246 -10 CURVE",
"318 49 OFFCURVE",
"382 118 OFFCURVE",
"382 217 CURVE SMOOTH",
"382 283 OFFCURVE",
"345 342 OFFCURVE",
"256 377 CURVE",
"235 384 OFFCURVE",
"207 404 OFFCURVE",
"207 424 CURVE SMOOTH",
"207 433 OFFCURVE",
"238 468 OFFCURVE",
"247 480 CURVE",
"283 523 OFFCURVE",
"313 540 OFFCURVE",
"313 595 CURVE SMOOTH",
"313 677 OFFCURVE",
"207 748 OFFCURVE",
"155 748 CURVE SMOOTH",
"131 748 OFFCURVE",
"106 729 OFFCURVE",
"82 708 CURVE SMOOTH",
"57 687 OFFCURVE",
"33 662 OFFCURVE",
"33 645 CURVE SMOOTH"
);
}
);
width = 402;
}
);
unicode = 005A;
},
{
glyphname = grave;
lastChange = "2014-01-21 14:56:24 +0000";
layers = (
{
anchors = (
{
name = _top;
position = "{122, 546}";
}
);
layerId = "BA838D9B-820F-4674-98D0-BE3E112EAB76";
paths = (
{
closed = 1;
nodes = (
"32 659 OFFCURVE",
"41 619 OFFCURVE",
"61 619 CURVE SMOOTH",
"71 619 OFFCURVE",
"82 621 OFFCURVE",
"89 622 CURVE SMOOTH",
"156 632 LINE SMOOTH",
"171 634 OFFCURVE",
"184 637 OFFCURVE",
"196 648 CURVE",
"215 664 OFFCURVE",
"212 686 OFFCURVE",
"212 707 CURVE SMOOTH",
"212 730 OFFCURVE",
"201 743 OFFCURVE",
"179 743 CURVE SMOOTH",
"167 743 OFFCURVE",
"152 728 OFFCURVE",
"139 726 CURVE SMOOTH",
"120 723 OFFCURVE",
"32 706 OFFCURVE",
"32 685 CURVE SMOOTH"
);
}
);
width = 241;
}
);
unicode = 0060;
},
{
glyphname = a;
lastChange = "2015-02-26 08:50:12 +0000";
layers = (
{
anchors = (
{
name = ogonek;
position = "{402, 10}";
},
{
name = top;
position = "{247, 546}";
},
{
name = top_acute;
position = "{120, 546}";
},
{
name = top_caron;
position = "{278, 546}";
},
{
name = top_dieresis;
position = "{223, 546}";
},
{
name = top_dot;
position = "{292, 546}";
},
{
name = top_macron;
position = "{247, 546}";
}
);
layerId = "BA838D9B-820F-4674-98D0-BE3E112EAB76";
paths = (
{
closed = 1;
nodes = (
"63 256 OFFCURVE",
"24 223 OFFCURVE",
"24 209 CURVE SMOOTH",
"24 185 OFFCURVE",
"28 183 OFFCURVE",
"32 173 CURVE",
"32 128 LINE SMOOTH",
"32 83 OFFCURVE",
"20 75 OFFCURVE",
"20 64 CURVE SMOOTH",
"20 34 OFFCURVE",
"32 31 OFFCURVE",
"52 17 CURVE SMOOTH",
"70 5 OFFCURVE",
"82 -14 OFFCURVE",
"107 -14 CURVE SMOOTH",
"116 -14 OFFCURVE",
"137 6 OFFCURVE",
"151 23 CURVE SMOOTH",
"160 34 OFFCURVE",
"176 50 OFFCURVE",
"191 50 CURVE SMOOTH",
"227 50 LINE SMOOTH",
"245 50 OFFCURVE",
"265 33 OFFCURVE",
"285 16 CURVE SMOOTH",
"303 1 OFFCURVE",
"321 -13 OFFCURVE",
"341 -14 CURVE",
"350 -14 OFFCURVE",
"369 5 OFFCURVE",
"389 19 CURVE SMOOTH",
"410 33 OFFCURVE",
"427 40 OFFCURVE",
"427 61 CURVE SMOOTH",
"427 72 OFFCURVE",
"417 83 OFFCURVE",
"410 83 CURVE SMOOTH",
"397 83 OFFCURVE",
"370 98 OFFCURVE",
"370 132 CURVE SMOOTH",
"370 374 LINE SMOOTH",
"370 437 OFFCURVE",
"405 438 OFFCURVE",
"405 457 CURVE SMOOTH",
"405 487 OFFCURVE",
"386 502 OFFCURVE",
"366 507 CURVE SMOOTH",
"358 509 OFFCURVE",
"324 513 OFFCURVE",
"288 526 CURVE SMOOTH",
"247 540 OFFCURVE",
"204 568 OFFCURVE",
"191 568 CURVE SMOOTH",
"179 568 OFFCURVE",
"126 522 OFFCURVE",
"105 508 CURVE SMOOTH",
"74 487 OFFCURVE",
"32 445 OFFCURVE",
"32 408 CURVE SMOOTH",
"32 362 OFFCURVE",
"65 313 OFFCURVE",
"105 297 CURVE"
);
},
{
closed = 1;
nodes = (
"71 450 OFFCURVE",
"102 471 OFFCURVE",
"163 471 CURVE SMOOTH",
"202 471 OFFCURVE",
"261 447 OFFCURVE",
"261 413 CURVE SMOOTH",
"261 380 LINE SMOOTH",
"261 334 OFFCURVE",
"238 325 OFFCURVE",
"213 325 CURVE SMOOTH",
"171 325 LINE SMOOTH",
"142 325 OFFCURVE",
"109 336 OFFCURVE",
"98 348 CURVE SMOOTH",
"82 366 OFFCURVE",
"71 381 OFFCURVE",
"71 412 CURVE SMOOTH"
);
},
{
closed = 1;
nodes = (
"134 264 LINE SMOOTH",
"134 276 OFFCURVE",
"143 294 OFFCURVE",
"157 294 CURVE SMOOTH",
"236 294 LINE SMOOTH",
"256 294 OFFCURVE",
"261 274 OFFCURVE",
"261 263 CURVE SMOOTH",
"261 139 LINE SMOOTH",
"261 115 OFFCURVE",
"251 86 OFFCURVE",
"238 86 CURVE SMOOTH",
"197 86 LINE SMOOTH",
"169 86 OFFCURVE",
"134 109 OFFCURVE",
"134 143 CURVE SMOOTH"
);
}
);
width = 447;
}
);
unicode = 0061;
},
{
glyphname = b;
lastChange = "2014-01-22 20:26:04 +0000";
layers = (
{
layerId = "BA838D9B-820F-4674-98D0-BE3E112EAB76";
paths = (
{
closed = 1;
nodes = (
"161 559 OFFCURVE",
"162 629 OFFCURVE",
"168 649 CURVE",
"170 654 OFFCURVE",
"173 660 OFFCURVE",
"173 677 CURVE SMOOTH",
"173 691 OFFCURVE",
"153 707 OFFCURVE",
"143 707 CURVE SMOOTH",
"137 707 OFFCURVE",
"128 702 OFFCURVE",
"118 679 CURVE",
"114 666 OFFCURVE",
"94 654 OFFCURVE",
"86 654 CURVE SMOOTH",
"79 654 OFFCURVE",
"72 658 OFFCURVE",
"65 668 CURVE SMOOTH",
"62 672 OFFCURVE",
"58 677 OFFCURVE",
"51 677 CURVE SMOOTH",
"44 677 OFFCURVE",
"42 668 OFFCURVE",
"42 655 CURVE SMOOTH",
"42 629 OFFCURVE",
"52 587 OFFCURVE",
"52 579 CURVE SMOOTH",
"52 532 LINE SMOOTH",
"52 507 OFFCURVE",
"20 493 OFFCURVE",
"20 473 CURVE SMOOTH",
"20 459 OFFCURVE",
"52 448 OFFCURVE",
"52 393 CURVE SMOOTH",
"52 103 LINE SMOOTH",
"52 58 OFFCURVE",
"20 68 OFFCURVE",
"20 57 CURVE SMOOTH",
"20 31 OFFCURVE",
"55 20 OFFCURVE",
"72 20 CURVE SMOOTH",
"92 20 OFFCURVE",
"187 -31 OFFCURVE",
"212 -31 CURVE SMOOTH",
"226 -31 OFFCURVE",
"281 9 OFFCURVE",
"301 23 CURVE SMOOTH",
"338 50 OFFCURVE",
"426 58 OFFCURVE",
"426 114 CURVE SMOOTH",
"426 125 OFFCURVE",
"413 140 OFFCURVE",
"406 140 CURVE SMOOTH",
"396 140 OFFCURVE",
"379 156 OFFCURVE",
"379 190 CURVE SMOOTH",
"379 343 LINE SMOOTH",
"379 406 OFFCURVE",
"413 407 OFFCURVE",
"413 426 CURVE SMOOTH",
"413 456 OFFCURVE",
"396 468 OFFCURVE",
"377 484 CURVE SMOOTH",
"346 509 OFFCURVE",
"318 546 OFFCURVE",
"282 546 CURVE SMOOTH",
"274 546 OFFCURVE",
"257 523 OFFCURVE",
"239 504 CURVE SMOOTH",
"225 490 OFFCURVE",
"207 487 OFFCURVE",
"193 487 CURVE SMOOTH",
"176 487 OFFCURVE",
"161 507 OFFCURVE",
"161 537 CURVE SMOOTH"
);
},
{
closed = 1;
nodes = (
"161 390 LINE SMOOTH",
"161 417 OFFCURVE",
"182 439 OFFCURVE",
"203 439 CURVE SMOOTH",
"232 439 OFFCURVE",
"270 398 OFFCURVE",
"270 379 CURVE SMOOTH",
"270 154 LINE SMOOTH",
"270 111 OFFCURVE",
"248 78 OFFCURVE",
"226 78 CURVE SMOOTH",
"196 78 OFFCURVE",
"161 101 OFFCURVE",
"161 154 CURVE SMOOTH"
);
}
);
width = 446;
}
);
unicode = 0062;
},
{
glyphname = c;
lastChange = "2014-01-22 20:26:19 +0000";
layers = (
{
anchors = (
{
name = bottom;
position = "{156, 0}";
},
{
name = top;
position = "{176, 546}";
},
{
name = top_acute;
position = "{131, 546}";
},
{
name = top_caron;
position = "{158, 546}";
},
{
name = top_dot;
position = "{204, 576}";
}
);
layerId = "BA838D9B-820F-4674-98D0-BE3E112EAB76";
paths = (
{
closed = 1;
nodes = (
"292 514 OFFCURVE",
"271 532 OFFCURVE",
"246 536 CURVE SMOOTH",
"228 539 OFFCURVE",
"198 563 OFFCURVE",
"173 563 CURVE SMOOTH",
"153 563 OFFCURVE",
"139 535 OFFCURVE",
"108 514 CURVE",
"90 504 OFFCURVE",
"66 496 OFFCURVE",
"58 491 CURVE SMOOTH",
"37 477 OFFCURVE",
"22 466 OFFCURVE",
"22 446 CURVE SMOOTH",
"22 432 OFFCURVE",
"37 408 OFFCURVE",
"37 354 CURVE SMOOTH",
"37 154 LINE SMOOTH",
"37 109 OFFCURVE",
"20 70 OFFCURVE",
"20 59 CURVE SMOOTH",
"20 29 OFFCURVE",
"42 26 OFFCURVE",
"62 26 CURVE SMOOTH",
"83 26 OFFCURVE",
"153 -25 OFFCURVE",
"178 -25 CURVE SMOOTH",
"195 -25 OFFCURVE",
"223 -7 OFFCURVE",
"243 7 CURVE SMOOTH",
"264 22 OFFCURVE",
"284 39 OFFCURVE",
"284 59 CURVE SMOOTH",
"284 70 OFFCURVE",
"267 85 OFFCURVE",
"259 85 CURVE SMOOTH",
"242 85 OFFCURVE",
"232 79 OFFCURVE",
"211 79 CURVE SMOOTH",
"181 79 OFFCURVE",
"146 139 OFFCURVE",
"146 159 CURVE SMOOTH",
"146 369 LINE SMOOTH",
"146 427 OFFCURVE",
"175 436 OFFCURVE",
"206 436 CURVE SMOOTH",
"220 436 OFFCURVE",
"236 419 OFFCURVE",
"248 419 CURVE SMOOTH",
"271 419 OFFCURVE",
"292 449 OFFCURVE",
"292 485 CURVE SMOOTH"
);
}
);
width = 312;
}
);
unicode = 0063;
},
{
glyphname = d;
lastChange = "2014-01-21 16:40:34 +0000";
layers = (
{
anchors = (
{
name = center;
position = "{226, 273}";
},
{
name = top;
position = "{244, 610}";
},
{
name = top_acute;
position = "{324, 586}";
},
{
name = top_dot;
position = "{318, 544}";
},
{
name = topright;
position = "{432, 546}";
}
);
layerId = "BA838D9B-820F-4674-98D0-BE3E112EAB76";
paths = (
{
closed = 1;
nodes = (
"432 493 OFFCURVE",
"421 499 OFFCURVE",
"401 508 CURVE SMOOTH",
"390 513 OFFCURVE",
"306 535 OFFCURVE",
"232 563 CURVE SMOOTH",
"181 583 OFFCURVE",
"136 615 OFFCURVE",
"125 615 CURVE SMOOTH",
"115 615 OFFCURVE",
"87 595 OFFCURVE",
"67 581 CURVE SMOOTH",
"46 567 OFFCURVE",
"20 561 OFFCURVE",
"20 541 CURVE SMOOTH",
"20 527 OFFCURVE",
"29 529 OFFCURVE",
"37 526 CURVE",
"121 502 LINE",
"106 496 OFFCURVE",
"94 490 OFFCURVE",
"81 490 CURVE SMOOTH",
"61 490 OFFCURVE",
"39 466 OFFCURVE",
"39 446 CURVE SMOOTH",
"39 432 OFFCURVE",
"59 421 OFFCURVE",
"59 366 CURVE SMOOTH",
"59 140 LINE SMOOTH",
"59 95 OFFCURVE",
"33 62 OFFCURVE",
"33 51 CURVE SMOOTH",
"33 39 OFFCURVE",
"59 23 OFFCURVE",
"79 23 CURVE SMOOTH",
"100 23 OFFCURVE",
"196 -25 OFFCURVE",
"221 -25 CURVE SMOOTH",
"235 -25 OFFCURVE",
"307 5 OFFCURVE",
"329 15 CURVE SMOOTH",
"371 34 OFFCURVE",
"432 56 OFFCURVE",
"432 81 CURVE SMOOTH",
"432 112 OFFCURVE",
"426 107 OFFCURVE",
"421 118 CURVE SMOOTH",
"416 129 OFFCURVE",
"415 157 OFFCURVE",
"415 196 CURVE SMOOTH",
"415 390 LINE SMOOTH",
"415 410 OFFCURVE",
"432 454 OFFCURVE",
"432 463 CURVE SMOOTH"
);
},
{
closed = 1;
nodes = (
"221 473 LINE SMOOTH",
"262 460 OFFCURVE",
"306 459 OFFCURVE",
"306 401 CURVE SMOOTH",
"306 161 LINE SMOOTH",
"306 89 OFFCURVE",
"277 84 OFFCURVE",
"249 84 CURVE SMOOTH",
"220 84 OFFCURVE",
"168 108 OFFCURVE",
"168 161 CURVE SMOOTH",
"168 488 LINE"
);
}
);
width = 452;
}
);
unicode = 0064;
},
{
glyphname = e;
lastChange = "2014-01-22 20:26:41 +0000";
layers = (
{
anchors = (
{
name = bottom;
position = "{184, 0}";
},
{
name = ogonek;
position = "{331, 10}";
},
{
name = top;
position = "{184, 546}";
},
{
name = top_acute;
position = "{121, 556}";
},
{
name = top_caron;
position = "{242, 546}";
},
{
name = top_dot;
position = "{216, 576}";
},
{
name = top_ring;
position = "{279, 546}";
},
{
name = top_tilde;
position = "{212, 548}";
}
);
layerId = "BA838D9B-820F-4674-98D0-BE3E112EAB76";
paths = (
{
closed = 1;
nodes = (
"348 464 OFFCURVE",
"290 510 OFFCURVE",
"265 521 CURVE",
"246 528 OFFCURVE",
"212 563 OFFCURVE",
"187 563 CURVE SMOOTH",
"167 563 OFFCURVE",
"156 538 OFFCURVE",
"125 518 CURVE SMOOTH",
"108 507 OFFCURVE",
"79 491 OFFCURVE",
"72 486 CURVE SMOOTH",
"51 472 OFFCURVE",
"20 466 OFFCURVE",
"20 446 CURVE SMOOTH",
"20 424 OFFCURVE",
"52 416 OFFCURVE",
"52 362 CURVE SMOOTH",
"52 162 LINE SMOOTH",
"52 117 OFFCURVE",
"25 78 OFFCURVE",
"25 67 CURVE SMOOTH",
"25 37 OFFCURVE",
"56 34 OFFCURVE",
"76 34 CURVE SMOOTH",
"90 34 OFFCURVE",
"123 26 OFFCURVE",
"153 14 CURVE SMOOTH",
"173 6 OFFCURVE",
"193 -8 OFFCURVE",
"204 -8 CURVE SMOOTH",
"221 -8 OFFCURVE",
"253 17 OFFCURVE",
"273 31 CURVE SMOOTH",
"293 45 OFFCURVE",
"317 62 OFFCURVE",
"317 82 CURVE SMOOTH",
"317 93 OFFCURVE",
"299 109 OFFCURVE",
"292 109 CURVE SMOOTH",
"274 109 OFFCURVE",
"246 87 OFFCURVE",
"225 87 CURVE SMOOTH",
"195 87 OFFCURVE",
"161 99 OFFCURVE",
"161 135 CURVE SMOOTH",
"161 235 LINE SMOOTH",
"161 274 OFFCURVE",
"211 297 OFFCURVE",
"231 311 CURVE SMOOTH",
"286 348 OFFCURVE",
"348 378 OFFCURVE",
"348 435 CURVE SMOOTH"
);
},
{
closed = 1;
nodes = (
"195 332 OFFCURVE",
"184 327 OFFCURVE",
"178 327 CURVE SMOOTH",
"170 327 OFFCURVE",
"161 333 OFFCURVE",
"161 347 CURVE SMOOTH",
"161 386 LINE SMOOTH",
"161 410 OFFCURVE",
"168 433 OFFCURVE",
"195 433 CURVE SMOOTH",
"229 433 OFFCURVE",
"251 419 OFFCURVE",
"251 399 CURVE SMOOTH",
"251 382 OFFCURVE",
"239 359 OFFCURVE",
"209 341 CURVE SMOOTH"
);
}
);
width = 368;
}
);
unicode = 0065;
},
{
glyphname = f;
lastChange = "2014-01-22 20:35:10 +0000";
layers = (
{
layerId = "BA838D9B-820F-4674-98D0-BE3E112EAB76";
paths = (
{
closed = 1;
nodes = (
"160 394 LINE SMOOTH",
"160 411 OFFCURVE",
"168 426 OFFCURVE",
"180 426 CURVE SMOOTH",
"230 426 LINE SMOOTH",
"248 426 OFFCURVE",
"257 455 OFFCURVE",
"257 473 CURVE SMOOTH",
"257 501 OFFCURVE",
"251 519 OFFCURVE",
"232 519 CURVE SMOOTH",
"187 519 LINE SMOOTH",
"174 519 OFFCURVE",
"160 528 OFFCURVE",
"160 545 CURVE SMOOTH",
"160 582 LINE SMOOTH",
"160 598 OFFCURVE",
"171 611 OFFCURVE",
"193 611 CURVE SMOOTH",
"232 611 LINE SMOOTH",
"263 611 OFFCURVE",
"277 645 OFFCURVE",
"277 667 CURVE SMOOTH",
"277 682 OFFCURVE",
"268 707 OFFCURVE",
"252 707 CURVE SMOOTH",
"238 707 OFFCURVE",
"223 700 OFFCURVE",
"215 700 CURVE SMOOTH",
"191 700 OFFCURVE",
"168 712 OFFCURVE",
"159 712 CURVE SMOOTH",
"152 712 OFFCURVE",
"124 710 OFFCURVE",
"115 687 CURVE SMOOTH",
"110 675 OFFCURVE",
"93 659 OFFCURVE",
"85 659 CURVE SMOOTH",
"54 659 OFFCURVE",
"32 653 OFFCURVE",
"32 628 CURVE SMOOTH",
"32 614 OFFCURVE",
"51 606 OFFCURVE",
"51 584 CURVE SMOOTH",
"51 519 LINE SMOOTH",
"51 504 OFFCURVE",
"20 494 OFFCURVE",
"20 473 CURVE SMOOTH",
"20 459 OFFCURVE",
"51 446 OFFCURVE",
"51 426 CURVE SMOOTH",
"51 137 LINE SMOOTH",
"51 92 OFFCURVE",
"39 75 OFFCURVE",
"39 64 CURVE SMOOTH",
"39 34 OFFCURVE",
"68 31 OFFCURVE",
"88 17 CURVE SMOOTH",
"106 4 OFFCURVE",
"137 -14 OFFCURVE",
"162 -14 CURVE SMOOTH",
"171 -14 OFFCURVE",
"188 11 OFFCURVE",
"209 26 CURVE",
"229 42 OFFCURVE",
"243 51 OFFCURVE",
"243 71 CURVE SMOOTH",
"243 82 OFFCURVE",
"226 95 OFFCURVE",
"218 95 CURVE SMOOTH",
"205 95 OFFCURVE",
"160 107 OFFCURVE",
"160 142 CURVE SMOOTH"
);
}
);
width = 297;
}
);
unicode = 0066;
},
{
glyphname = g;
lastChange = "2014-01-22 20:27:05 +0000";
layers = (
{
anchors = (
{
name = top;
position = "{254, 546}";
},
{
name = top_acute;
position = "{152, 546}";
},
{
name = top_caron;
position = "{297, 546}";
}
);
layerId = "BA838D9B-820F-4674-98D0-BE3E112EAB76";
paths = (
{
closed = 1;
nodes = (
"395 362 LINE SMOOTH",
"395 405 OFFCURVE",
"408 420 OFFCURVE",
"419 420 CURVE SMOOTH",
"467 420 LINE SMOOTH",
"485 420 OFFCURVE",
"491 446 OFFCURVE",
"491 462 CURVE SMOOTH",
"491 473 OFFCURVE",
"491 510 OFFCURVE",
"477 510 CURVE SMOOTH",
"474 510 OFFCURVE",
"469 508 OFFCURVE",
"464 507 CURVE SMOOTH",
"459 506 OFFCURVE",
"453 505 OFFCURVE",
"447 505 CURVE SMOOTH",
"419 505 LINE",
"338 513 OFFCURVE",
"272 535 OFFCURVE",
"191 535 CURVE SMOOTH",
"174 535 OFFCURVE",
"182 531 OFFCURVE",
"151 510 CURVE",
"133 499 OFFCURVE",
"80 483 OFFCURVE",
"73 479 CURVE",
"52 464 OFFCURVE",
"29 466 OFFCURVE",
"29 446 CURVE SMOOTH",
"29 425 OFFCURVE",
"43 401 OFFCURVE",
"43 346 CURVE SMOOTH",
"43 177 LINE SMOOTH",
"43 132 OFFCURVE",
"26 109 OFFCURVE",
"26 98 CURVE SMOOTH",
"26 82 OFFCURVE",
"52 78 OFFCURVE",
"77 64 CURVE SMOOTH",
"94 54 OFFCURVE",
"110 32 OFFCURVE",
"123 32 CURVE SMOOTH",
"152 32 OFFCURVE",
"282 124 OFFCURVE",
"294 128 CURVE",
"307 90 OFFCURVE",
"321 45 OFFCURVE",
"321 11 CURVE SMOOTH",
"321 -27 OFFCURVE",
"313 -50 OFFCURVE",
"272 -50 CURVE SMOOTH",
"227 -50 OFFCURVE",
"203 -37 OFFCURVE",
"186 -22 CURVE SMOOTH",
"163 -2 OFFCURVE",
"151 21 OFFCURVE",
"119 21 CURVE SMOOTH",
"107 21 OFFCURVE",
"93 -2 OFFCURVE",
"68 -30 CURVE SMOOTH",
"48 -53 OFFCURVE",
"20 -82 OFFCURVE",
"20 -88 CURVE SMOOTH",
"20 -92 OFFCURVE",
"38 -100 OFFCURVE",
"46 -100 CURVE SMOOTH",
"63 -100 OFFCURVE",
"87 -64 OFFCURVE",
"107 -64 CURVE SMOOTH",
"129 -64 OFFCURVE",
"152 -80 OFFCURVE",
"183 -102 CURVE",
"202 -114 OFFCURVE",
"201 -138 OFFCURVE",
"211 -138 CURVE SMOOTH",
"258 -138 OFFCURVE",
"422 -21 OFFCURVE",
"422 17 CURVE SMOOTH",
"422 68 OFFCURVE",
"395 110 OFFCURVE",
"395 173 CURVE SMOOTH"
);
},
{
closed = 1;
nodes = (
"286 190 LINE SMOOTH",
"286 168 OFFCURVE",
"260 140 OFFCURVE",
"243 140 CURVE SMOOTH",
"193 140 OFFCURVE",
"152 162 OFFCURVE",
"152 182 CURVE SMOOTH",
"152 346 LINE SMOOTH",
"152 404 OFFCURVE",
"180 439 OFFCURVE",
"211 439 CURVE SMOOTH",
"222 439 OFFCURVE",
"262 435 OFFCURVE",
"275 429 CURVE",
"283 421 OFFCURVE",
"286 352 OFFCURVE",
"286 323 CURVE SMOOTH"
);
}
);
width = 507;
}
);
unicode = 0067;
},
{
glyphname = h;
lastChange = "2014-01-22 20:27:22 +0000";
layers = (
{
layerId = "BA838D9B-820F-4674-98D0-BE3E112EAB76";
paths = (
{
closed = 1;
nodes = (
"36 496 LINE SMOOTH",
"36 481 OFFCURVE",
"20 482 OFFCURVE",
"20 461 CURVE SMOOTH",
"20 447 OFFCURVE",
"36 444 OFFCURVE",
"36 424 CURVE SMOOTH",
"36 128 LINE SMOOTH",
"36 83 OFFCURVE",
"23 75 OFFCURVE",
"23 64 CURVE SMOOTH",
"23 34 OFFCURVE",
"36 31 OFFCURVE",
"56 17 CURVE SMOOTH",
"73 5 OFFCURVE",
"90 -14 OFFCURVE",
"115 -14 CURVE SMOOTH",
"125 -14 OFFCURVE",
"140 5 OFFCURVE",
"161 19 CURVE SMOOTH",
"181 33 OFFCURVE",
"193 40 OFFCURVE",
"193 61 CURVE SMOOTH",
"193 72 OFFCURVE",
"184 83 OFFCURVE",
"176 83 CURVE SMOOTH",
"164 83 OFFCURVE",
"145 98 OFFCURVE",
"145 132 CURVE SMOOTH",
"145 402 LINE SMOOTH",
"145 416 OFFCURVE",
"148 436 OFFCURVE",
"168 436 CURVE SMOOTH",
"221 436 LINE SMOOTH",
"239 436 OFFCURVE",
"247 407 OFFCURVE",
"247 374 CURVE SMOOTH",
"247 128 LINE SMOOTH",
"247 39 OFFCURVE",
"244 -49 OFFCURVE",
"203 -116 CURVE SMOOTH",
"198 -124 OFFCURVE",
"193 -130 OFFCURVE",
"193 -135 CURVE SMOOTH",
"193 -156 OFFCURVE",
"212 -160 OFFCURVE",
"221 -160 CURVE SMOOTH",
"223 -160 OFFCURVE",
"229 -158 OFFCURVE",
"235 -150 CURVE",
"260 -122 OFFCURVE",
"293 -50 OFFCURVE",
"309 -39 CURVE SMOOTH",
"329 -25 OFFCURVE",
"401 20 OFFCURVE",
"401 40 CURVE SMOOTH",
"401 50 OFFCURVE",
"395 65 OFFCURVE",
"387 65 CURVE SMOOTH",
"377 65 OFFCURVE",
"356 98 OFFCURVE",
"356 132 CURVE SMOOTH",
"356 374 LINE SMOOTH",
"356 437 OFFCURVE",
"390 438 OFFCURVE",
"390 457 CURVE SMOOTH",
"390 487 OFFCURVE",
"374 501 OFFCURVE",
"354 515 CURVE SMOOTH",
"337 527 OFFCURVE",
"320 546 OFFCURVE",
"295 546 CURVE SMOOTH",
"282 546 OFFCURVE",
"267 527 OFFCURVE",
"246 513 CURVE",
"235 505 OFFCURVE",
"225 485 OFFCURVE",
"211 485 CURVE SMOOTH",
"162 485 LINE SMOOTH",
"151 485 OFFCURVE",
"145 493 OFFCURVE",
"145 504 CURVE SMOOTH",
"145 547 LINE SMOOTH",
"145 569 OFFCURVE",
"147 629 OFFCURVE",
"153 649 CURVE",
"154 653 OFFCURVE",
"157 660 OFFCURVE",
"157 677 CURVE SMOOTH",
"157 691 OFFCURVE",
"137 707 OFFCURVE",
"128 707 CURVE SMOOTH",
"122 707 OFFCURVE",
"112 702 OFFCURVE",
"103 678 CURVE",
"98 666 OFFCURVE",
"78 653 OFFCURVE",
"70 653 CURVE SMOOTH",
"64 653 OFFCURVE",
"56 658 OFFCURVE",
"50 668 CURVE",
"47 672 OFFCURVE",
"42 677 OFFCURVE",
"36 677 CURVE SMOOTH",
"28 677 OFFCURVE",
"26 655 OFFCURVE",
"26 639 CURVE SMOOTH",
"26 625 OFFCURVE",
"36 592 OFFCURVE",
"36 571 CURVE SMOOTH"
);
}
);
width = 430;
}
);
unicode = 0068;
},
{
glyphname = i;
layers = (
{
layerId = "BA838D9B-820F-4674-98D0-BE3E112EAB76";
paths = (
{
closed = 1;
nodes = (
"215 579 OFFCURVE",
"232 624 OFFCURVE",
"232 645 CURVE SMOOTH",
"232 679 OFFCURVE",
"213 716 OFFCURVE",
"162 716 CURVE SMOOTH",
"121 716 OFFCURVE",
"78 674 OFFCURVE",
"78 645 CURVE SMOOTH",
"78 631 OFFCURVE",
"92 626 OFFCURVE",
"112 626 CURVE SMOOTH",
"125 626 OFFCURVE",
"135 635 OFFCURVE",
"146 635 CURVE SMOOTH",
"153 635 OFFCURVE",
"167 618 OFFCURVE",
"167 609 CURVE SMOOTH",
"167 596 OFFCURVE",
"174 579 OFFCURVE",
"192 579 CURVE SMOOTH"
);
},
{
closed = 1;
nodes = (
"200 487 OFFCURVE",
"184 501 OFFCURVE",
"164 515 CURVE",
"147 528 OFFCURVE",
"131 546 OFFCURVE",
"106 546 CURVE SMOOTH",
"93 546 OFFCURVE",
"78 528 OFFCURVE",
"57 514 CURVE",
"37 499 OFFCURVE",
"20 475 OFFCURVE",
"20 454 CURVE SMOOTH",
"20 440 OFFCURVE",
"57 429 OFFCURVE",
"57 375 CURVE SMOOTH",
"57 128 LINE SMOOTH",
"57 83 OFFCURVE",
"45 75 OFFCURVE",
"45 64 CURVE SMOOTH",
"45 35 OFFCURVE",
"57 31 OFFCURVE",
"78 17 CURVE SMOOTH",
"95 5 OFFCURVE",
"111 -14 OFFCURVE",
"136 -14 CURVE SMOOTH",
"145 -14 OFFCURVE",
"164 5 OFFCURVE",
"184 19 CURVE SMOOTH",
"205 33 OFFCURVE",
"222 43 OFFCURVE",
"222 61 CURVE SMOOTH",
"222 72 OFFCURVE",
"212 83 OFFCURVE",
"205 83 CURVE SMOOTH",
"192 83 OFFCURVE",
"166 99 OFFCURVE",
"166 133 CURVE SMOOTH",
"166 375 LINE SMOOTH",
"166 437 OFFCURVE",
"200 439 OFFCURVE",
"200 457 CURVE SMOOTH"
);
}
);
width = 250;
}
);
unicode = 0069;
},
{
glyphname = j;
layers = (
{
layerId = "BA838D9B-820F-4674-98D0-BE3E112EAB76";
paths = (
{
closed = 1;
nodes = (
"235 579 OFFCURVE",
"252 624 OFFCURVE",
"252 644 CURVE SMOOTH",
"252 679 OFFCURVE",
"234 716 OFFCURVE",
"182 716 CURVE SMOOTH",
"142 716 OFFCURVE",
"98 674 OFFCURVE",
"98 644 CURVE SMOOTH",
"98 630 OFFCURVE",
"114 626 OFFCURVE",
"132 626 CURVE SMOOTH",
"145 626 OFFCURVE",
"156 635 OFFCURVE",
"167 635 CURVE SMOOTH",
"173 635 OFFCURVE",
"187 618 OFFCURVE",
"187 609 CURVE SMOOTH",
"187 596 OFFCURVE",
"195 579 OFFCURVE",
"212 579 CURVE SMOOTH"
);
},
{
closed = 1;
nodes = (
"221 487 OFFCURVE",
"206 501 OFFCURVE",
"185 515 CURVE SMOOTH",
"168 527 OFFCURVE",
"151 546 OFFCURVE",
"126 546 CURVE SMOOTH",
"114 546 OFFCURVE",
"98 527 OFFCURVE",
"78 513 CURVE SMOOTH",
"57 499 OFFCURVE",
"40 474 OFFCURVE",
"40 454 CURVE SMOOTH",
"40 440 OFFCURVE",
"78 429 OFFCURVE",
"78 375 CURVE SMOOTH",
"78 128 LINE SMOOTH",
"78 39 OFFCURVE",
"54 -49 OFFCURVE",
"9 -117 CURVE",
"4 -124 OFFCURVE",
"0 -131 OFFCURVE",
"0 -135 CURVE SMOOTH",
"0 -157 OFFCURVE",
"18 -160 OFFCURVE",
"28 -160 CURVE SMOOTH",
"29 -160 OFFCURVE",
"36 -159 OFFCURVE",
"42 -151 CURVE",
"67 -123 OFFCURVE",
"115 -58 OFFCURVE",
"131 -47 CURVE SMOOTH",
"151 -33 OFFCURVE",
"232 20 OFFCURVE",
"232 41 CURVE SMOOTH",
"232 52 OFFCURVE",
"226 66 OFFCURVE",
"218 66 CURVE SMOOTH",
"209 66 OFFCURVE",
"187 98 OFFCURVE",
"187 133 CURVE SMOOTH",
"187 375 LINE SMOOTH",
"187 437 OFFCURVE",
"221 439 OFFCURVE",
"221 457 CURVE SMOOTH"
);
}
);
width = 270;
}
);
unicode = 006A;
},
{
glyphname = k;
lastChange = "2015-02-26 08:57:11 +0000";
layers = (
{
layerId = "BA838D9B-820F-4674-98D0-BE3E112EAB76";
paths = (
{
closed = 1;
nodes = (
"274 139 LINE SMOOTH",
"274 94 OFFCURVE",
"254 86 OFFCURVE",
"254 75 CURVE SMOOTH",
"254 45 OFFCURVE",
"274 42 OFFCURVE",
"294 28 CURVE SMOOTH",
"311 16 OFFCURVE",
"328 -3 OFFCURVE",
"353 -3 CURVE SMOOTH",
"363 -3 OFFCURVE",
"391 33 OFFCURVE",
"411 47 CURVE SMOOTH",
"431 61 OFFCURVE",
"444 62 OFFCURVE",
"444 83 CURVE SMOOTH",
"444 94 OFFCURVE",
"430 104 OFFCURVE",
"422 104 CURVE SMOOTH",
"410 104 OFFCURVE",
"383 109 OFFCURVE",
"383 143 CURVE SMOOTH",
"383 198 LINE SMOOTH",
"383 225 OFFCURVE",
"397 271 OFFCURVE",
"397 298 CURVE SMOOTH",
"397 328 OFFCURVE",
"381 342 OFFCURVE",
"361 356 CURVE SMOOTH",
"344 368 OFFCURVE",
"321 390 OFFCURVE",
"296 390 CURVE SMOOTH",
"286 390 OFFCURVE",
"260 335 OFFCURVE",
"211 335 CURVE SMOOTH",
"191 335 LINE SMOOTH",
"165 335 OFFCURVE",
"160 346 OFFCURVE",
"160 359 CURVE SMOOTH",
"160 402 LINE SMOOTH",
"160 434 OFFCURVE",
"169 454 OFFCURVE",
"179 456 CURVE SMOOTH",
"225 464 LINE",
"240 449 LINE",
"264 424 LINE",
"277 412 OFFCURVE",
"286 399 OFFCURVE",
"310 399 CURVE SMOOTH",
"321 399 OFFCURVE",
"335 412 OFFCURVE",
"352 426 CURVE",
"371 438 OFFCURVE",
"385 455 OFFCURVE",
"385 474 CURVE SMOOTH",
"385 490 OFFCURVE",
"369 488 OFFCURVE",
"336 527 CURVE",
"324 540 OFFCURVE",
"313 550 OFFCURVE",
"291 550 CURVE SMOOTH",
"277 550 OFFCURVE",
"263 536 OFFCURVE",
"250 520 CURVE SMOOTH",
"239 507 OFFCURVE",
"228 495 OFFCURVE",
"216 494 CURVE SMOOTH",
"186 491 LINE",
"176 491 LINE SMOOTH",
"167 491 OFFCURVE",
"160 495 OFFCURVE",
"160 512 CURVE SMOOTH",
"160 548 LINE SMOOTH",
"160 569 OFFCURVE",
"162 629 OFFCURVE",
"168 649 CURVE",
"169 654 OFFCURVE",
"172 660 OFFCURVE",
"172 677 CURVE SMOOTH",
"172 691 OFFCURVE",
"152 707 OFFCURVE",
"143 707 CURVE SMOOTH",
"137 707 OFFCURVE",
"127 702 OFFCURVE",
"118 679 CURVE SMOOTH",
"113 666 OFFCURVE",
"93 654 OFFCURVE",
"85 654 CURVE SMOOTH",
"79 654 OFFCURVE",
"71 658 OFFCURVE",
"65 668 CURVE",
"62 672 OFFCURVE",
"57 677 OFFCURVE",
"51 677 CURVE SMOOTH",
"43 677 OFFCURVE",
"41 655 OFFCURVE",
"41 640 CURVE SMOOTH",
"41 626 OFFCURVE",
"51 601 OFFCURVE",
"51 579 CURVE SMOOTH",
"51 532 LINE SMOOTH",
"51 507 OFFCURVE",
"20 493 OFFCURVE",
"20 473 CURVE SMOOTH",
"20 459 OFFCURVE",
"51 448 OFFCURVE",
"51 393 CURVE SMOOTH",
"51 128 LINE SMOOTH",
"51 83 OFFCURVE",
"38 75 OFFCURVE",
"38 64 CURVE SMOOTH",
"38 34 OFFCURVE",
"51 31 OFFCURVE",
"71 17 CURVE SMOOTH",
"88 5 OFFCURVE",
"105 -14 OFFCURVE",
"130 -14 CURVE SMOOTH",
"140 -14 OFFCURVE",
"165 5 OFFCURVE",
"185 19 CURVE SMOOTH",
"205 33 OFFCURVE",
"229 41 OFFCURVE",
"229 61 CURVE SMOOTH",
"229 72 OFFCURVE",
"219 83 OFFCURVE",
"211 83 CURVE SMOOTH",
"199 83 OFFCURVE",
"160 98 OFFCURVE",
"160 133 CURVE SMOOTH",
"160 220 LINE SMOOTH",
"160 248 OFFCURVE",
"172 286 OFFCURVE",
"191 286 CURVE",
"221 286 LINE SMOOTH",
"250 286 OFFCURVE",
"274 240 OFFCURVE",
"274 198 CURVE SMOOTH"
);
}
);
width = 464;
}
);
unicode = 006B;
},
{
glyphname = l;
lastChange = "2014-01-22 20:27:52 +0000";
layers = (
{
layerId = "BA838D9B-820F-4674-98D0-BE3E112EAB76";
paths = (
{
closed = 1;
nodes = (
"51 532 LINE SMOOTH",
"51 507 OFFCURVE",
"20 493 OFFCURVE",
"20 473 CURVE SMOOTH",
"20 459 OFFCURVE",
"51 448 OFFCURVE",
"51 393 CURVE SMOOTH",
"51 128 LINE SMOOTH",
"51 83 OFFCURVE",
"39 75 OFFCURVE",
"39 64 CURVE SMOOTH",
"39 34 OFFCURVE",
"51 31 OFFCURVE",
"72 17 CURVE SMOOTH",
"89 5 OFFCURVE",
"106 -14 OFFCURVE",
"131 -14 CURVE SMOOTH",
"140 -14 OFFCURVE",
"165 5 OFFCURVE",
"186 19 CURVE SMOOTH",
"206 33 OFFCURVE",
"229 41 OFFCURVE",
"229 61 CURVE SMOOTH",
"229 72 OFFCURVE",
"220 83 OFFCURVE",
"212 83 CURVE SMOOTH",
"200 83 OFFCURVE",
"160 98 OFFCURVE",
"160 133 CURVE SMOOTH",
"160 548 LINE SMOOTH",
"160 569 OFFCURVE",
"162 629 OFFCURVE",
"168 649 CURVE",
"170 654 OFFCURVE",
"173 660 OFFCURVE",
"173 677 CURVE SMOOTH",
"173 691 OFFCURVE",
"153 707 OFFCURVE",
"143 707 CURVE SMOOTH",
"137 707 OFFCURVE",
"128 702 OFFCURVE",
"118 679 CURVE",
"114 666 OFFCURVE",
"94 654 OFFCURVE",
"86 654 CURVE SMOOTH",
"79 654 OFFCURVE",
"72 658 OFFCURVE",
"65 668 CURVE SMOOTH",
"62 672 OFFCURVE",
"58 677 OFFCURVE",
"51 677 CURVE SMOOTH",
"43 677 OFFCURVE",
"42 655 OFFCURVE",
"42 640 CURVE SMOOTH",
"42 626 OFFCURVE",
"51 601 OFFCURVE",
"51 579 CURVE SMOOTH"
);
}
);
width = 248;
}
);
unicode = 006C;
},
{
glyphname = m;
lastChange = "2014-01-22 20:24:28 +0000";
layers = (
{
anchors = (
{
name = top;
position = "{327, 546}";
},
{
name = top_acute;
position = "{464, 546}";
},
{
name = top_caron;
position = "{518, 546}";
}
);
layerId = "BA838D9B-820F-4674-98D0-BE3E112EAB76";
paths = (
{
closed = 1;
nodes = (
"382 374 LINE SMOOTH",
"382 410 OFFCURVE",
"389 436 OFFCURVE",
"418 436 CURVE SMOOTH",
"462 436 LINE SMOOTH",
"495 436 OFFCURVE",
"502 407 OFFCURVE",
"502 374 CURVE SMOOTH",
"502 143 LINE SMOOTH",
"502 98 OFFCURVE",
"479 85 OFFCURVE",
"479 74 CURVE SMOOTH",
"479 45 OFFCURVE",
"502 31 OFFCURVE",
"523 17 CURVE",
"540 4 OFFCURVE",
"557 -14 OFFCURVE",
"582 -14 CURVE SMOOTH",
"591 -14 OFFCURVE",
"610 4 OFFCURVE",
"630 18 CURVE SMOOTH",
"651 32 OFFCURVE",
"663 43 OFFCURVE",
"663 63 CURVE SMOOTH",
"663 89 OFFCURVE",
"611 79 OFFCURVE",
"611 148 CURVE SMOOTH",
"611 374 LINE SMOOTH",
"611 436 OFFCURVE",
"646 438 OFFCURVE",
"646 457 CURVE SMOOTH",
"646 486 OFFCURVE",
"630 500 OFFCURVE",
"610 514 CURVE",
"593 527 OFFCURVE",
"576 546 OFFCURVE",
"551 546 CURVE SMOOTH",
"538 546 OFFCURVE",
"524 527 OFFCURVE",
"503 513 CURVE",
"492 505 OFFCURVE",
"481 485 OFFCURVE",
"459 485 CURVE SMOOTH",
"424 485 LINE SMOOTH",
"395 485 OFFCURVE",
"393 504 OFFCURVE",
"381 513 CURVE SMOOTH",
"364 526 OFFCURVE",
"346 546 OFFCURVE",
"321 546 CURVE SMOOTH",
"309 546 OFFCURVE",
"293 527 OFFCURVE",
"273 513 CURVE SMOOTH",
"262 505 OFFCURVE",
"251 485 OFFCURVE",
"229 485 CURVE SMOOTH",
"197 485 LINE SMOOTH",
"167 485 OFFCURVE",
"164 504 OFFCURVE",
"151 513 CURVE",
"134 526 OFFCURVE",
"117 546 OFFCURVE",
"92 546 CURVE SMOOTH",
"66 546 OFFCURVE",
"23 498 OFFCURVE",
"23 473 CURVE SMOOTH",
"23 459 OFFCURVE",
"44 429 OFFCURVE",
"44 374 CURVE SMOOTH",
"44 157 LINE SMOOTH",
"44 112 OFFCURVE",
"20 88 OFFCURVE",
"20 78 CURVE SMOOTH",
"20 48 OFFCURVE",
"38 37 OFFCURVE",
"58 23 CURVE",
"75 10 OFFCURVE",
"81 -12 OFFCURVE",
"106 -14 CURVE",
"126 -14 OFFCURVE",
"142 3 OFFCURVE",
"161 26 CURVE SMOOTH",
"175 43 OFFCURVE",
"194 62 OFFCURVE",
"194 78 CURVE SMOOTH",
"194 109 OFFCURVE",
"153 90 OFFCURVE",
"153 157 CURVE SMOOTH",
"153 374 LINE SMOOTH",
"153 410 OFFCURVE",
"161 436 OFFCURVE",
"190 436 CURVE SMOOTH",
"233 436 LINE SMOOTH",
"250 436 OFFCURVE",
"273 407 OFFCURVE",
"273 374 CURVE SMOOTH",
"273 173 LINE SMOOTH",
"273 112 OFFCURVE",
"242 88 OFFCURVE",
"242 78 CURVE SMOOTH",
"242 48 OFFCURVE",
"267 37 OFFCURVE",
"287 23 CURVE",
"304 10 OFFCURVE",
"311 -12 OFFCURVE",
"335 -14 CURVE",
"356 -14 OFFCURVE",
"371 3 OFFCURVE",
"390 26 CURVE SMOOTH",
"404 43 OFFCURVE",
"423 62 OFFCURVE",
"423 78 CURVE SMOOTH",
"423 112 OFFCURVE",
"382 90 OFFCURVE",
"382 157 CURVE SMOOTH"
);
}
);
width = 682;
}
);
unicode = 006D;
},
{
glyphname = n;
lastChange = "2014-01-21 20:40:33 +0000";
layers = (
{
anchors = (
{
name = bottom;
position = "{226, 0}";
},
{
name = top;
position = "{256, 546}";
},
{
name = top_dieresis;
position = "{227, 546}";
}
);
layerId = "BA838D9B-820F-4674-98D0-BE3E112EAB76";
paths = (
{
closed = 1;
nodes = (
"416 487 OFFCURVE",
"400 501 OFFCURVE",
"380 515 CURVE SMOOTH",
"363 527 OFFCURVE",
"346 546 OFFCURVE",
"321 546 CURVE SMOOTH",
"308 546 OFFCURVE",
"293 527 OFFCURVE",
"272 513 CURVE SMOOTH",
"261 506 OFFCURVE",
"250 485 OFFCURVE",
"229 485 CURVE SMOOTH",
"196 485 LINE SMOOTH",
"166 485 OFFCURVE",
"163 506 OFFCURVE",
"151 515 CURVE",
"133 527 OFFCURVE",
"116 546 OFFCURVE",
"91 546 CURVE SMOOTH",
"65 546 OFFCURVE",
"23 498 OFFCURVE",
"23 473 CURVE SMOOTH",
"23 459 OFFCURVE",
"43 429 OFFCURVE",
"43 374 CURVE SMOOTH",
"43 158 LINE SMOOTH",
"43 112 OFFCURVE",
"20 89 OFFCURVE",
"20 78 CURVE SMOOTH",
"20 48 OFFCURVE",
"37 38 OFFCURVE",
"57 23 CURVE SMOOTH",
"74 11 OFFCURVE",
"80 -14 OFFCURVE",
"105 -14 CURVE SMOOTH",
"126 -14 OFFCURVE",
"141 3 OFFCURVE",
"160 27 CURVE SMOOTH",
"174 44 OFFCURVE",
"193 62 OFFCURVE",
"193 78 CURVE SMOOTH",
"193 112 OFFCURVE",
"152 91 OFFCURVE",
"152 158 CURVE SMOOTH",
"152 374 LINE SMOOTH",
"152 410 OFFCURVE",
"158 436 OFFCURVE",
"188 436 CURVE SMOOTH",
"232 436 LINE SMOOTH",
"264 436 OFFCURVE",
"272 407 OFFCURVE",
"272 374 CURVE SMOOTH",
"272 144 LINE SMOOTH",
"272 98 OFFCURVE",
"249 86 OFFCURVE",
"249 75 CURVE SMOOTH",
"249 45 OFFCURVE",
"272 31 OFFCURVE",
"293 17 CURVE SMOOTH",
"310 5 OFFCURVE",
"327 -14 OFFCURVE",
"352 -14 CURVE SMOOTH",
"361 -14 OFFCURVE",
"380 5 OFFCURVE",
"400 19 CURVE SMOOTH",
"420 33 OFFCURVE",
"433 44 OFFCURVE",
"433 64 CURVE SMOOTH",
"433 91 OFFCURVE",
"381 80 OFFCURVE",
"381 148 CURVE SMOOTH",
"381 374 LINE SMOOTH",
"381 437 OFFCURVE",
"416 438 OFFCURVE",
"416 457 CURVE SMOOTH"
);
}
);
width = 452;
}
);
unicode = 006E;
},
{
glyphname = o;
lastChange = "2014-01-21 20:44:11 +0000";
layers = (
{
anchors = (
{
name = top;
position = "{227, 546}";
},
{
name = top_acute;
position = "{145, 546}";
},
{
name = top_dot;
position = "{296, 546}";
}
);
layerId = "BA838D9B-820F-4674-98D0-BE3E112EAB76";
paths = (
{
closed = 1;
nodes = (
"48 490 OFFCURVE",
"26 466 OFFCURVE",
"26 446 CURVE SMOOTH",
"26 432 OFFCURVE",
"46 410 OFFCURVE",
"46 355 CURVE SMOOTH",
"46 140 LINE SMOOTH",
"46 95 OFFCURVE",
"20 62 OFFCURVE",
"20 51 CURVE SMOOTH",
"20 39 OFFCURVE",
"46 23 OFFCURVE",
"66 23 CURVE SMOOTH",
"87 23 OFFCURVE",
"182 -25 OFFCURVE",
"207 -25 CURVE SMOOTH",
"220 -25 OFFCURVE",
"266 3 OFFCURVE",
"315 28 CURVE SMOOTH",
"373 58 OFFCURVE",
"434 87 OFFCURVE",
"434 98 CURVE SMOOTH",
"434 109 OFFCURVE",
"425 129 OFFCURVE",
"417 129 CURVE SMOOTH",
"408 129 OFFCURVE",
"402 162 OFFCURVE",
"402 196 CURVE SMOOTH",
"402 360 LINE SMOOTH",
"402 423 OFFCURVE",
"411 427 OFFCURVE",
"411 446 CURVE SMOOTH",
"411 476 OFFCURVE",
"388 490 OFFCURVE",
"369 490 CURVE SMOOTH",
"336 490 OFFCURVE",
"339 490 OFFCURVE",
"282 518 CURVE SMOOTH",
"264 527 OFFCURVE",
"239 557 OFFCURVE",
"227 557 CURVE SMOOTH",
"207 557 OFFCURVE",
"163 518 OFFCURVE",
"151 510 CURVE",
"133 499 OFFCURVE",
"88 490 OFFCURVE",
"68 490 CURVE SMOOTH"
);
},
{
closed = 1;
nodes = (
"155 376 LINE SMOOTH",
"155 402 OFFCURVE",
"180 437 OFFCURVE",
"225 437 CURVE SMOOTH",
"258 437 OFFCURVE",
"283 421 OFFCURVE",
"288 399 CURVE SMOOTH",
"291 384 OFFCURVE",
"293 357 OFFCURVE",
"293 338 CURVE SMOOTH",
"293 160 LINE SMOOTH",
"293 117 OFFCURVE",
"258 84 OFFCURVE",
"236 84 CURVE SMOOTH",
"207 84 OFFCURVE",
"155 107 OFFCURVE",
"155 160 CURVE SMOOTH"
);
}
);
width = 454;
}
);
unicode = 006F;
},
{
glyphname = p;
lastChange = "2015-02-26 08:57:27 +0000";
layers = (
{
anchors = (
{
name = top;
position = "{226, 546}";
},
{
name = top_tilde;
position = "{271, 546}";
}
);
layerId = "BA838D9B-820F-4674-98D0-BE3E112EAB76";
paths = (
{
closed = 1;
nodes = (
"445 486 OFFCURVE",
"430 500 OFFCURVE",
"410 514 CURVE SMOOTH",
"392 527 OFFCURVE",
"355 546 OFFCURVE",
"330 546 CURVE SMOOTH",
"315 546 OFFCURVE",
"300 530 OFFCURVE",
"287 515 CURVE SMOOTH",
"274 500 OFFCURVE",
"261 485 OFFCURVE",
"252 485 CURVE SMOOTH",
"208 485 LINE SMOOTH",
"179 485 OFFCURVE",
"177 505 OFFCURVE",
"165 514 CURVE SMOOTH",
"147 527 OFFCURVE",
"130 546 OFFCURVE",
"105 546 CURVE SMOOTH",
"93 546 OFFCURVE",
"77 527 OFFCURVE",
"57 513 CURVE SMOOTH",
"37 499 OFFCURVE",
"20 494 OFFCURVE",
"20 473 CURVE SMOOTH",
"20 456 OFFCURVE",
"57 429 OFFCURVE",
"57 374 CURVE SMOOTH",
"57 170 LINE SMOOTH",
"57 138 OFFCURVE",
"43 87 OFFCURVE",
"43 71 CURVE SMOOTH",
"43 67 OFFCURVE",
"48 57 OFFCURVE",
"52 53 CURVE SMOOTH",
"54 51 OFFCURVE",
"57 45 OFFCURVE",
"57 40 CURVE SMOOTH",
"57 -32 LINE SMOOTH",
"57 -77 OFFCURVE",
"45 -85 OFFCURVE",
"45 -96 CURVE SMOOTH",
"45 -142 OFFCURVE",
"82 -160 OFFCURVE",
"116 -160 CURVE SMOOTH",
"143 -160 OFFCURVE",
"179 -127 OFFCURVE",
"179 -99 CURVE SMOOTH",
"179 -88 OFFCURVE",
"166 -85 OFFCURVE",
"166 -32 CURVE SMOOTH",
"166 25 LINE",
"276 11 OFFCURVE",
"313 0 OFFCURVE",
"330 0 CURVE SMOOTH",
"350 0 OFFCURVE",
"369 23 OFFCURVE",
"389 39 CURVE SMOOTH",
"411 56 OFFCURVE",
"436 70 OFFCURVE",
"436 92 CURVE SMOOTH",
"436 113 OFFCURVE",
"411 121 OFFCURVE",
"411 195 CURVE SMOOTH",
"411 374 LINE SMOOTH",
"411 436 OFFCURVE",
"445 438 OFFCURVE",
"445 457 CURVE SMOOTH"
);
},
{
closed = 1;
nodes = (
"166 374 LINE SMOOTH",
"166 410 OFFCURVE",
"172 436 OFFCURVE",
"202 436 CURVE SMOOTH",
"261 436 LINE SMOOTH",
"286 436 OFFCURVE",
"302 407 OFFCURVE",
"302 374 CURVE SMOOTH",
"302 190 LINE SMOOTH",
"302 168 OFFCURVE",
"299 146 OFFCURVE",
"296 129 CURVE",
"294 123 OFFCURVE",
"288 118 OFFCURVE",
"280 118 CURVE",
"191 134 LINE",
"182 135 OFFCURVE",
"166 134 OFFCURVE",
"166 184 CURVE SMOOTH"
);
}
);
width = 465;
}
);
unicode = 0070;
},
{
glyphname = q;
lastChange = "2014-01-22 08:50:10 +0000";
layers = (
{
anchors = (
{
name = top;
position = "{233, 546}";
},
{
name = top_acute;
position = "{160, 546}";
},
{
name = top_caron;
position = "{297, 546}";
},
{
name = top_ring;
position = "{340, 546}";
},
{
name = top_tilde;
position = "{261, 546}";
}
);
layerId = "BA838D9B-820F-4674-98D0-BE3E112EAB76";
paths = (
{
closed = 1;
nodes = (
"419 376 LINE SMOOTH",
"419 425 OFFCURVE",
"415 519 OFFCURVE",
"363 519 CURVE SMOOTH",
"320 519 OFFCURVE",
"279 546 OFFCURVE",
"235 546 CURVE SMOOTH",
"215 546 OFFCURVE",
"190 536 OFFCURVE",
"159 516 CURVE SMOOTH",
"136 501 OFFCURVE",
"21 488 OFFCURVE",
"21 446 CURVE SMOOTH",
"21 426 OFFCURVE",
"51 405 OFFCURVE",
"51 350 CURVE SMOOTH",
"51 151 LINE SMOOTH",
"51 105 OFFCURVE",
"34 66 OFFCURVE",
"34 55 CURVE SMOOTH",
"34 26 OFFCURVE",
"56 20 OFFCURVE",
"76 20 CURVE SMOOTH",
"97 20 OFFCURVE",
"125 -14 OFFCURVE",
"150 -14 CURVE SMOOTH",
"167 -14 OFFCURVE",
"185 -8 OFFCURVE",
"206 6 CURVE",
"213 12 OFFCURVE",
"257 42 OFFCURVE",
"276 49 CURVE SMOOTH",
"310 61 LINE",
"310 -32 LINE SMOOTH",
"310 -77 OFFCURVE",
"298 -85 OFFCURVE",
"298 -96 CURVE SMOOTH",
"298 -142 OFFCURVE",
"335 -160 OFFCURVE",
"370 -160 CURVE SMOOTH",
"396 -160 OFFCURVE",
"432 -127 OFFCURVE",
"432 -99 CURVE SMOOTH",
"432 -88 OFFCURVE",
"419 -85 OFFCURVE",
"419 -32 CURVE SMOOTH"
);
},
{
closed = 1;
nodes = (
"310 124 LINE SMOOTH",
"310 102 OFFCURVE",
"268 88 OFFCURVE",
"251 88 CURVE SMOOTH",
"201 88 OFFCURVE",
"160 135 OFFCURVE",
"160 155 CURVE SMOOTH",
"160 366 LINE SMOOTH",
"160 424 OFFCURVE",
"189 433 OFFCURVE",
"220 433 CURVE SMOOTH",
"231 433 OFFCURVE",
"274 425 OFFCURVE",
"299 410 CURVE",
"307 402 OFFCURVE",
"310 388 OFFCURVE",
"310 358 CURVE SMOOTH"
);
}
);
width = 452;
}
);
unicode = 0071;
},
{
glyphname = r;
lastChange = "2014-01-22 20:33:28 +0000";
layers = (
{
anchors = (
{
name = bottom;
position = "{187, 0}";
},
{
name = top;
position = "{187, 546}";
},
{
name = top_acute;
position = "{253, 546}";
},
{
name = top_tilde;
position = "{210, 546}";
}
);
layerId = "BA838D9B-820F-4674-98D0-BE3E112EAB76";
paths = (
{
closed = 1;
nodes = (
"289 533 OFFCURVE",
"278 546 OFFCURVE",
"253 546 CURVE SMOOTH",
"231 546 OFFCURVE",
"195 485 OFFCURVE",
"181 485 CURVE SMOOTH",
"170 485 LINE SMOOTH",
"151 485 OFFCURVE",
"151 508 OFFCURVE",
"145 519 CURVE SMOOTH",
"136 535 OFFCURVE",
"120 546 OFFCURVE",
"95 546 CURVE SMOOTH",
"83 546 OFFCURVE",
"72 532 OFFCURVE",
"51 518 CURVE SMOOTH",
"31 504 OFFCURVE",
"17 494 OFFCURVE",
"17 473 CURVE SMOOTH",
"17 459 OFFCURVE",
"55 433 OFFCURVE",
"55 379 CURVE SMOOTH",
"55 109 LINE SMOOTH",
"55 64 OFFCURVE",
"23 72 OFFCURVE",
"23 61 CURVE SMOOTH",
"23 31 OFFCURVE",
"55 23 OFFCURVE",
"75 23 CURVE SMOOTH",
"95 23 OFFCURVE",
"190 -25 OFFCURVE",
"215 -25 CURVE SMOOTH",
"225 -25 OFFCURVE",
"254 17 OFFCURVE",
"274 31 CURVE SMOOTH",
"295 45 OFFCURVE",
"320 61 OFFCURVE",
"320 76 CURVE SMOOTH",
"320 87 OFFCURVE",
"306 95 OFFCURVE",
"298 95 CURVE SMOOTH",
"289 95 OFFCURVE",
"268 84 OFFCURVE",
"245 84 CURVE SMOOTH",
"211 84 OFFCURVE",
"164 107 OFFCURVE",
"164 160 CURVE SMOOTH",
"164 436 LINE",
"175 436 LINE SMOOTH",
"184 436 OFFCURVE",
"195 432 OFFCURVE",
"198 429 CURVE",
"214 416 OFFCURVE",
"248 387 OFFCURVE",
"273 387 CURVE SMOOTH",
"285 387 OFFCURVE",
"298 405 OFFCURVE",
"318 419 CURVE SMOOTH",
"338 433 OFFCURVE",
"351 444 OFFCURVE",
"351 465 CURVE SMOOTH",
"351 477 OFFCURVE",
"340 476 OFFCURVE",
"303 519 CURVE"
);
}
);
width = 374;
}
);
unicode = 0072;
},
{
glyphname = s;
layers = (
{
layerId = "BA838D9B-820F-4674-98D0-BE3E112EAB76";
paths = (
{
closed = 1;
nodes = (
"288 374 LINE SMOOTH",
"288 390 OFFCURVE",
"309 422 OFFCURVE",
"321 433 CURVE",
"356 460 OFFCURVE",
"366 499 OFFCURVE",
"366 510 CURVE SMOOTH",
"366 535 OFFCURVE",
"362 536 OFFCURVE",
"352 536 CURVE SMOOTH",
"345 536 OFFCURVE",
"342 521 OFFCURVE",
"337 514 CURVE",
"331 503 OFFCURVE",
"317 503 OFFCURVE",
"299 503 CURVE SMOOTH",
"276 503 OFFCURVE",
"248 511 OFFCURVE",
"226 522 CURVE SMOOTH",
"206 532 OFFCURVE",
"194 546 OFFCURVE",
"186 546 CURVE SMOOTH",
"163 546 OFFCURVE",
"152 526 OFFCURVE",
"123 503 CURVE SMOOTH",
"112 494 OFFCURVE",
"86 478 OFFCURVE",
"65 477 CURVE",
"45 475 OFFCURVE",
"20 466 OFFCURVE",
"20 446 CURVE SMOOTH",
"20 432 OFFCURVE",
"34 418 OFFCURVE",
"34 363 CURVE SMOOTH",
"34 319 LINE SMOOTH",
"34 274 OFFCURVE",
"22 266 OFFCURVE",
"22 255 CURVE SMOOTH",
"22 226 OFFCURVE",
"42 226 OFFCURVE",
"62 212 CURVE SMOOTH",
"73 204 OFFCURVE",
"76 191 OFFCURVE",
"83 184 CURVE",
"84 181 OFFCURVE",
"86 153 OFFCURVE",
"86 149 CURVE SMOOTH",
"86 129 OFFCURVE",
"70 107 OFFCURVE",
"61 94 CURVE",
"33 60 OFFCURVE",
"23 52 OFFCURVE",
"23 41 CURVE SMOOTH",
"23 16 OFFCURVE",
"30 11 OFFCURVE",
"37 11 CURVE SMOOTH",
"56 11 OFFCURVE",
"42 24 OFFCURVE",
"89 24 CURVE SMOOTH",
"112 24 OFFCURVE",
"137 13 OFFCURVE",
"159 2 CURVE",
"179 -7 OFFCURVE",
"201 -14 OFFCURVE",
"207 -14 CURVE SMOOTH",
"251 -14 OFFCURVE",
"254 33 OFFCURVE",
"329 40 CURVE",
"349 41 OFFCURVE",
"376 58 OFFCURVE",
"376 79 CURVE SMOOTH",
"376 93 OFFCURVE",
"362 107 OFFCURVE",
"362 161 CURVE SMOOTH",
"362 208 LINE SMOOTH",
"362 253 OFFCURVE",
"370 283 OFFCURVE",
"370 294 CURVE SMOOTH",
"370 312 OFFCURVE",
"365 314 OFFCURVE",
"356 317 CURVE SMOOTH",
"332 325 OFFCURVE",
"288 336 OFFCURVE",
"288 364 CURVE SMOOTH"
);
},
{
closed = 1;
nodes = (
"203 72 OFFCURVE",
"175 77 OFFCURVE",
"142 107 CURVE",
"129 118 OFFCURVE",
"100 129 OFFCURVE",
"100 146 CURVE SMOOTH",
"100 155 OFFCURVE",
"100 176 OFFCURVE",
"106 182 CURVE",
"115 193 OFFCURVE",
"129 220 OFFCURVE",
"145 230 CURVE",
"159 240 OFFCURVE",
"176 247 OFFCURVE",
"186 247 CURVE SMOOTH",
"223 247 OFFCURVE",
"260 218 OFFCURVE",
"260 182 CURVE SMOOTH",
"260 161 LINE SMOOTH",
"260 122 OFFCURVE",
"259 104 OFFCURVE",
"257 91 CURVE",
"243 80 OFFCURVE",
"225 72 OFFCURVE",
"212 72 CURVE SMOOTH"
);
},
{
closed = 1;
nodes = (
"274 315 OFFCURVE",
"248 293 OFFCURVE",
"222 282 CURVE SMOOTH",
"208 276 OFFCURVE",
"192 273 OFFCURVE",
"178 273 CURVE SMOOTH",
"154 273 OFFCURVE",
"136 299 OFFCURVE",
"136 324 CURVE SMOOTH",
"136 394 LINE SMOOTH",
"136 421 OFFCURVE",
"147 446 OFFCURVE",
"168 446 CURVE SMOOTH",
"178 446 OFFCURVE",
"190 439 OFFCURVE",
"243 410 CURVE SMOOTH",
"267 396 OFFCURVE",
"274 374 OFFCURVE",
"274 358 CURVE SMOOTH"
);
}
);
width = 396;
}
);
unicode = 0073;
},
{
glyphname = t;
lastChange = "2014-01-22 20:35:32 +0000";
layers = (
{
anchors = (
{
name = bottom;
position = "{155, 0}";
},
{
name = center;
position = "{155, 273}";
},
{
name = top;
position = "{133, 566}";
},
{
name = top_acute;
position = "{108, 586}";
},
{
name = top_caron;
position = "{160, 596}";
}
);
layerId = "BA838D9B-820F-4674-98D0-BE3E112EAB76";
paths = (
{
closed = 1;
nodes = (
"190 520 LINE SMOOTH",
"172 520 OFFCURVE",
"152 539 OFFCURVE",
"152 565 CURVE SMOOTH",
"152 595 LINE SMOOTH",
"152 603 OFFCURVE",
"146 615 OFFCURVE",
"137 615 CURVE SMOOTH",
"124 615 OFFCURVE",
"74 536 OFFCURVE",
"54 522 CURVE SMOOTH",
"34 507 OFFCURVE",
"20 493 OFFCURVE",
"20 473 CURVE SMOOTH",
"20 459 OFFCURVE",
"57 445 OFFCURVE",
"57 390 CURVE SMOOTH",
"57 135 LINE SMOOTH",
"57 89 OFFCURVE",
"34 61 OFFCURVE",
"34 50 CURVE SMOOTH",
"34 33 OFFCURVE",
"42 29 OFFCURVE",
"53 29 CURVE SMOOTH",
"60 29 OFFCURVE",
"69 33 OFFCURVE",
"77 33 CURVE SMOOTH",
"88 33 OFFCURVE",
"138 27 OFFCURVE",
"171 15 CURVE",
"197 4 OFFCURVE",
"207 -14 OFFCURVE",
"218 -14 CURVE SMOOTH",
"233 -14 OFFCURVE",
"282 52 OFFCURVE",
"282 71 CURVE SMOOTH",
"282 86 OFFCURVE",
"269 100 OFFCURVE",
"254 100 CURVE SMOOTH",
"244 100 OFFCURVE",
"224 94 OFFCURVE",
"201 94 CURVE SMOOTH",
"166 94 OFFCURVE",
"166 117 OFFCURVE",
"166 171 CURVE SMOOTH",
"166 348 LINE SMOOTH",
"166 373 OFFCURVE",
"167 427 OFFCURVE",
"205 427 CURVE SMOOTH",
"264 427 LINE SMOOTH",
"286 427 OFFCURVE",
"289 456 OFFCURVE",
"289 478 CURVE SMOOTH",
"289 498 OFFCURVE",
"285 520 OFFCURVE",
"263 520 CURVE SMOOTH"
);
}
);
width = 309;
}
);
unicode = 0074;
},
{
glyphname = u;
lastChange = "2014-01-22 20:28:48 +0000";
layers = (
{
anchors = (
{
name = ogonek;
position = "{408, 10}";
},
{
name = top;
position = "{227, 546}";
},
{
name = top_dot;
position = "{253, 546}";
}
);
layerId = "BA838D9B-820F-4674-98D0-BE3E112EAB76";
paths = (
{
closed = 1;
nodes = (
"402 536 OFFCURVE",
"402 546 OFFCURVE",
"390 546 CURVE SMOOTH",
"377 546 OFFCURVE",
"330 516 OFFCURVE",
"304 511 CURVE SMOOTH",
"279 507 OFFCURVE",
"273 494 OFFCURVE",
"273 474 CURVE SMOOTH",
"273 460 OFFCURVE",
"280 429 OFFCURVE",
"280 374 CURVE SMOOTH",
"280 127 LINE SMOOTH",
"280 115 OFFCURVE",
"269 98 OFFCURVE",
"262 98 CURVE SMOOTH",
"193 98 LINE SMOOTH",
"174 98 OFFCURVE",
"160 117 OFFCURVE",
"160 132 CURVE SMOOTH",
"160 374 LINE SMOOTH",
"160 436 OFFCURVE",
"187 429 OFFCURVE",
"187 448 CURVE SMOOTH",
"187 477 OFFCURVE",
"176 491 OFFCURVE",
"156 505 CURVE SMOOTH",
"138 517 OFFCURVE",
"124 546 OFFCURVE",
"99 546 CURVE SMOOTH",
"87 546 OFFCURVE",
"79 522 OFFCURVE",
"59 508 CURVE SMOOTH",
"39 494 OFFCURVE",
"20 475 OFFCURVE",
"20 454 CURVE SMOOTH",
"20 440 OFFCURVE",
"51 429 OFFCURVE",
"51 374 CURVE SMOOTH",
"51 127 LINE SMOOTH",
"51 82 OFFCURVE",
"39 74 OFFCURVE",
"39 63 CURVE SMOOTH",
"39 34 OFFCURVE",
"51 31 OFFCURVE",
"71 17 CURVE",
"88 4 OFFCURVE",
"106 -14 OFFCURVE",
"131 -14 CURVE SMOOTH",
"140 -14 OFFCURVE",
"159 4 OFFCURVE",
"179 18 CURVE SMOOTH",
"195 29 OFFCURVE",
"201 49 OFFCURVE",
"230 49 CURVE SMOOTH",
"252 49 LINE SMOOTH",
"277 49 OFFCURVE",
"283 28 OFFCURVE",
"301 17 CURVE",
"318 4 OFFCURVE",
"335 -14 OFFCURVE",
"360 -14 CURVE SMOOTH",
"369 -14 OFFCURVE",
"380 12 OFFCURVE",
"400 26 CURVE SMOOTH",
"421 40 OFFCURVE",
"433 40 OFFCURVE",
"433 60 CURVE SMOOTH",
"433 71 OFFCURVE",
"430 82 OFFCURVE",
"422 82 CURVE SMOOTH",
"414 82 OFFCURVE",
"389 98 OFFCURVE",
"389 132 CURVE SMOOTH",
"389 374 LINE SMOOTH",
"389 452 OFFCURVE",
"402 453 OFFCURVE",
"402 513 CURVE SMOOTH"
);
}
);
width = 453;
}
);
unicode = 0075;
},
{
glyphname = v;
lastChange = "2014-01-22 13:22:19 +0000";
layers = (
{
anchors = (
{
name = top;
position = "{232, 546}";
},
{
name = top_dot;
position = "{276, 546}";
}
);
layerId = "BA838D9B-820F-4674-98D0-BE3E112EAB76";
paths = (
{
closed = 1;
nodes = (
"411 374 LINE SMOOTH",
"411 410 OFFCURVE",
"427 433 OFFCURVE",
"427 461 CURVE SMOOTH",
"427 479 OFFCURVE",
"410 482 OFFCURVE",
"389 503 CURVE",
"377 518 OFFCURVE",
"364 546 OFFCURVE",
"346 546 CURVE SMOOTH",
"336 546 OFFCURVE",
"318 533 OFFCURVE",
"297 514 CURVE SMOOTH",
"277 496 OFFCURVE",
"249 482 OFFCURVE",
"249 461 CURVE SMOOTH",
"249 447 OFFCURVE",
"271 438 OFFCURVE",
"279 438 CURVE SMOOTH",
"299 438 OFFCURVE",
"302 390 OFFCURVE",
"302 374 CURVE SMOOTH",
"302 149 LINE",
"300 107 OFFCURVE",
"297 71 OFFCURVE",
"257 71 CURVE SMOOTH",
"222 71 OFFCURVE",
"182 84 OFFCURVE",
"182 148 CURVE SMOOTH",
"182 374 LINE SMOOTH",
"182 410 OFFCURVE",
"197 433 OFFCURVE",
"197 461 CURVE SMOOTH",
"197 479 OFFCURVE",
"180 482 OFFCURVE",
"160 503 CURVE",
"148 518 OFFCURVE",
"135 546 OFFCURVE",
"116 546 CURVE SMOOTH",
"107 546 OFFCURVE",
"88 533 OFFCURVE",
"68 514 CURVE SMOOTH",
"48 496 OFFCURVE",
"20 482 OFFCURVE",
"20 461 CURVE SMOOTH",
"20 447 OFFCURVE",
"41 438 OFFCURVE",
"49 438 CURVE SMOOTH",
"70 438 OFFCURVE",
"73 390 OFFCURVE",
"73 374 CURVE SMOOTH",
"73 134 LINE SMOOTH",
"73 89 OFFCURVE",
"41 71 OFFCURVE",
"41 59 CURVE SMOOTH",
"41 37 OFFCURVE",
"73 26 OFFCURVE",
"93 20 CURVE SMOOTH",
"113 14 OFFCURVE",
"208 -32 OFFCURVE",
"233 -32 CURVE SMOOTH",
"258 -32 OFFCURVE",
"293 3 OFFCURVE",
"330 31 CURVE SMOOTH",
"374 64 OFFCURVE",
"421 93 OFFCURVE",
"421 113 CURVE SMOOTH",
"421 134 OFFCURVE",
"411 162 OFFCURVE",
"411 182 CURVE SMOOTH"
);
}
);
width = 447;
}
);
unicode = 0076;
},
{
glyphname = w;
lastChange = "2014-01-22 13:24:44 +0000";
layers = (
{
anchors = (
{
name = top;
position = "{348, 546}";
},
{
name = top_acute;
position = "{456, 546}";
},
{
name = top_caron;
position = "{512, 545}";
},
{
name = top_tilde;
position = "{288, 546}";
}
);
layerId = "BA838D9B-820F-4674-98D0-BE3E112EAB76";
paths = (
{
closed = 1;
nodes = (
"360 9 OFFCURVE",
"432 -31 OFFCURVE",
"457 -31 CURVE SMOOTH",
"466 -31 OFFCURVE",
"496 11 OFFCURVE",
"516 25 CURVE",
"538 39 LINE",
"563 23 OFFCURVE",
"580 20 OFFCURVE",
"605 20 CURVE SMOOTH",
"615 20 OFFCURVE",
"633 39 OFFCURVE",
"654 53 CURVE SMOOTH",
"674 67 OFFCURVE",
"686 78 OFFCURVE",
"686 98 CURVE SMOOTH",
"686 125 OFFCURVE",
"635 114 OFFCURVE",
"635 182 CURVE SMOOTH",
"635 374 LINE SMOOTH",
"635 437 OFFCURVE",
"674 438 OFFCURVE",
"674 457 CURVE SMOOTH",
"674 477 OFFCURVE",
"650 487 OFFCURVE",
"630 501 CURVE SMOOTH",
"613 513 OFFCURVE",
"599 546 OFFCURVE",
"574 546 CURVE SMOOTH",
"561 546 OFFCURVE",
"549 513 OFFCURVE",
"529 499 CURVE SMOOTH",
"518 491 OFFCURVE",
"504 485 OFFCURVE",
"482 485 CURVE SMOOTH",
"448 485 LINE SMOOTH",
"418 485 OFFCURVE",
"402 493 OFFCURVE",
"390 502 CURVE SMOOTH",
"373 515 OFFCURVE",
"366 546 OFFCURVE",
"342 546 CURVE SMOOTH",
"329 546 OFFCURVE",
"315 518 OFFCURVE",
"304 504 CURVE",
"296 493 OFFCURVE",
"274 485 OFFCURVE",
"253 485 CURVE SMOOTH",
"220 485 LINE SMOOTH",
"179 485 OFFCURVE",
"161 546 OFFCURVE",
"112 546 CURVE SMOOTH",
"103 546 OFFCURVE",
"79 540 OFFCURVE",
"59 526 CURVE SMOOTH",
"39 512 OFFCURVE",
"20 471 OFFCURVE",
"20 451 CURVE SMOOTH",
"20 437 OFFCURVE",
"36 438 OFFCURVE",
"44 438 CURVE SMOOTH",
"63 438 OFFCURVE",
"67 390 OFFCURVE",
"67 374 CURVE SMOOTH",
"67 134 LINE SMOOTH",
"67 89 OFFCURVE",
"36 67 OFFCURVE",
"36 56 CURVE SMOOTH",
"36 33 OFFCURVE",
"67 21 OFFCURVE",
"87 21 CURVE SMOOTH",
"108 21 OFFCURVE",
"203 -31 OFFCURVE",
"228 -31 CURVE SMOOTH",
"237 -31 OFFCURVE",
"265 9 OFFCURVE",
"285 23 CURVE",
"296 23 OFFCURVE",
"330 16 OFFCURVE",
"340 14 CURVE"
);
},
{
closed = 1;
nodes = (
"452 78 OFFCURVE",
"405 101 OFFCURVE",
"405 154 CURVE SMOOTH",
"405 374 LINE SMOOTH",
"405 410 OFFCURVE",
"412 436 OFFCURVE",
"441 436 CURVE SMOOTH",
"485 436 LINE SMOOTH",
"518 436 OFFCURVE",
"526 407 OFFCURVE",
"526 374 CURVE SMOOTH",
"526 112 LINE SMOOTH",
"526 98 OFFCURVE",
"524 90 OFFCURVE",
"521 84 CURVE",
"512 81 OFFCURVE",
"499 78 OFFCURVE",
"487 78 CURVE SMOOTH"
);
},
{
closed = 1;
nodes = (
"296 118 LINE SMOOTH",
"296 101 OFFCURVE",
"292 90 OFFCURVE",
"287 83 CURVE",
"278 79 OFFCURVE",
"268 78 OFFCURVE",
"257 78 CURVE SMOOTH",
"223 78 OFFCURVE",
"176 101 OFFCURVE",
"176 154 CURVE SMOOTH",
"176 374 LINE SMOOTH",
"176 410 OFFCURVE",
"185 436 OFFCURVE",
"215 436 CURVE SMOOTH",
"256 436 LINE SMOOTH",
"273 436 OFFCURVE",
"296 407 OFFCURVE",
"296 374 CURVE SMOOTH"
);
}
);
width = 706;
}
);
unicode = 0077;
},
{
glyphname = x;
lastChange = "2014-01-22 14:10:58 +0000";
layers = (
{
anchors = (
{
name = top;
position = "{187, 546}";
},
{
name = top_acute;
position = "{248, 546}";
},
{
name = top_caron;
position = "{226, 546}";
}
);
layerId = "BA838D9B-820F-4674-98D0-BE3E112EAB76";
paths = (
{
closed = 1;
nodes = (
"103 47 OFFCURVE",
"143 -14 OFFCURVE",
"168 -14 CURVE SMOOTH",
"196 -14 OFFCURVE",
"240 -8 OFFCURVE",
"254 12 CURVE SMOOTH",
"268 32 OFFCURVE",
"312 65 OFFCURVE",
"312 85 CURVE SMOOTH",
"312 96 OFFCURVE",
"306 99 OFFCURVE",
"298 99 CURVE SMOOTH",
"288 99 OFFCURVE",
"259 68 OFFCURVE",
"235 68 CURVE SMOOTH",
"201 68 OFFCURVE",
"184 107 OFFCURVE",
"184 160 CURVE SMOOTH",
"184 196 LINE SMOOTH",
"184 210 OFFCURVE",
"201 223 OFFCURVE",
"223 223 CURVE SMOOTH",
"251 223 LINE SMOOTH",
"279 223 OFFCURVE",
"285 213 OFFCURVE",
"302 213 CURVE SMOOTH",
"310 213 OFFCURVE",
"323 249 OFFCURVE",
"323 268 CURVE SMOOTH",
"323 288 OFFCURVE",
"320 301 OFFCURVE",
"302 301 CURVE SMOOTH",
"237 301 LINE SMOOTH",
"220 301 OFFCURVE",
"184 302 OFFCURVE",
"184 322 CURVE SMOOTH",
"184 430 LINE",
"226 430 LINE SMOOTH",
"235 430 OFFCURVE",
"249 427 OFFCURVE",
"253 424 CURVE",
"268 411 OFFCURVE",
"271 402 OFFCURVE",
"293 402 CURVE SMOOTH",
"315 402 OFFCURVE",
"335 436 OFFCURVE",
"335 464 CURVE SMOOTH",
"335 468 OFFCURVE",
"329 546 OFFCURVE",
"281 546 CURVE SMOOTH",
"270 546 OFFCURVE",
"265 525 OFFCURVE",
"254 508 CURVE SMOOTH",
"243 492 OFFCURVE",
"231 478 OFFCURVE",
"217 478 CURVE SMOOTH",
"190 478 LINE SMOOTH",
"171 478 OFFCURVE",
"154 497 OFFCURVE",
"148 508 CURVE SMOOTH",
"139 524 OFFCURVE",
"137 546 OFFCURVE",
"112 546 CURVE SMOOTH",
"100 546 OFFCURVE",
"87 516 OFFCURVE",
"67 502 CURVE SMOOTH",
"47 488 OFFCURVE",
"22 477 OFFCURVE",
"22 457 CURVE SMOOTH",
"22 443 OFFCURVE",
"75 433 OFFCURVE",
"75 379 CURVE SMOOTH",
"75 335 LINE SMOOTH",
"75 305 OFFCURVE",
"59 297 OFFCURVE",
"53 293 CURVE",
"40 283 OFFCURVE",
"22 274 OFFCURVE",
"22 263 CURVE SMOOTH",
"22 244 OFFCURVE",
"44 235 OFFCURVE",
"64 235 CURVE SMOOTH",
"70 235 OFFCURVE",
"75 213 OFFCURVE",
"75 202 CURVE SMOOTH",
"75 156 OFFCURVE",
"64 122 OFFCURVE",
"50 92 CURVE SMOOTH",
"32 52 OFFCURVE",
"11 19 OFFCURVE",
"11 -22 CURVE SMOOTH",
"11 -39 OFFCURVE",
"20 -75 OFFCURVE",
"29 -89 CURVE SMOOTH",
"64 -141 OFFCURVE",
"107 -171 OFFCURVE",
"170 -171 CURVE SMOOTH",
"215 -171 OFFCURVE",
"263 -152 OFFCURVE",
"298 -122 CURVE",
"306 -116 OFFCURVE",
"306 -110 OFFCURVE",
"306 -99 CURVE SMOOTH",
"306 -93 OFFCURVE",
"295 -89 OFFCURVE",
"285 -89 CURVE SMOOTH",
"278 -89 OFFCURVE",
"195 -124 OFFCURVE",
"156 -124 CURVE SMOOTH",
"98 -124 OFFCURVE",
"51 -80 OFFCURVE",
"51 -10 CURVE SMOOTH",
"51 12 OFFCURVE",
"56 47 OFFCURVE",
"83 47 CURVE SMOOTH"
);
}
);
width = 355;
}
);
unicode = 0078;
},
{
glyphname = y;
lastChange = "2014-01-22 14:07:46 +0000";
layers = (
{
anchors = (
{
name = top;
position = "{212, 546}";
},
{
name = top_acute;
position = "{202, 546}";
},
{
name = top_caron;
position = "{268, 546}";
}
);
layerId = "BA838D9B-820F-4674-98D0-BE3E112EAB76";
paths = (
{
closed = 1;
nodes = (
"20 440 OFFCURVE",
"34 448 OFFCURVE",
"45 432 CURVE SMOOTH",
"64 404 OFFCURVE",
"75 361 OFFCURVE",
"80 328 CURVE SMOOTH",
"91 256 OFFCURVE",
"97 178 OFFCURVE",
"97 106 CURVE SMOOTH",
"97 -18 LINE SMOOTH",
"97 -67 OFFCURVE",
"128 -101 OFFCURVE",
"169 -119 CURVE SMOOTH",
"209 -137 OFFCURVE",
"259 -140 OFFCURVE",
"289 -140 CURVE SMOOTH",
"315 -140 OFFCURVE",
"390 -126 OFFCURVE",
"390 -93 CURVE SMOOTH",
"390 -86 OFFCURVE",
"384 -84 OFFCURVE",
"373 -84 CURVE SMOOTH",
"367 -84 OFFCURVE",
"357 -100 OFFCURVE",
"339 -107 CURVE",
"323 -114 OFFCURVE",
"284 -121 OFFCURVE",
"272 -121 CURVE SMOOTH",
"236 -121 OFFCURVE",
"212 -114 OFFCURVE",
"200 -95 CURVE",
"184 -73 OFFCURVE",
"184 -53 OFFCURVE",
"184 -18 CURVE SMOOTH",
"184 14 OFFCURVE",
"228 83 OFFCURVE",
"237 99 CURVE SMOOTH",
"298 203 OFFCURVE",
"297 203 OFFCURVE",
"376 345 CURVE SMOOTH",
"389 368 OFFCURVE",
"403 434 OFFCURVE",
"403 464 CURVE SMOOTH",
"403 492 OFFCURVE",
"389 510 OFFCURVE",
"359 526 CURVE SMOOTH",
"345 534 OFFCURVE",
"321 557 OFFCURVE",
"304 557 CURVE SMOOTH",
"293 557 OFFCURVE",
"279 546 OFFCURVE",
"273 534 CURVE SMOOTH",
"261 510 OFFCURVE",
"209 474 OFFCURVE",
"183 474 CURVE SMOOTH",
"159 474 OFFCURVE",
"134 496 OFFCURVE",
"112 521 CURVE SMOOTH",
"98 537 OFFCURVE",
"92 546 OFFCURVE",
"78 546 CURVE SMOOTH",
"55 546 OFFCURVE",
"20 507 OFFCURVE",
"20 468 CURVE SMOOTH"
);
},
{
closed = 1;
nodes = (
"188 138 OFFCURVE",
"176 214 OFFCURVE",
"176 244 CURVE SMOOTH",
"176 404 LINE SMOOTH",
"176 442 OFFCURVE",
"231 467 OFFCURVE",
"253 467 CURVE SMOOTH",
"284 467 OFFCURVE",
"314 415 OFFCURVE",
"314 367 CURVE SMOOTH",
"314 336 OFFCURVE",
"303 304 OFFCURVE",
"293 275 CURVE SMOOTH",
"284 248 OFFCURVE",
"228 138 OFFCURVE",
"219 138 CURVE SMOOTH"
);
}
);
width = 423;
}
);
unicode = 0079;
},
{
glyphname = z;
lastChange = "2015-02-26 08:57:39 +0000";
layers = (
{
anchors = (
{
name = top;
position = "{165, 546}";
},
{
name = top_acute;
position = "{132, 548}";
}
);
layerId = "BA838D9B-820F-4674-98D0-BE3E112EAB76";
paths = (
{
closed = 1;
nodes = (
"31 449 OFFCURVE",
"39 448 OFFCURVE",
"50 448 CURVE SMOOTH",
"57 448 OFFCURVE",
"68 455 OFFCURVE",
"79 455 CURVE SMOOTH",
"115 455 OFFCURVE",
"138 413 OFFCURVE",
"138 352 CURVE SMOOTH",
"138 321 OFFCURVE",
"118 281 OFFCURVE",
"95 259 CURVE SMOOTH",
"75 240 OFFCURVE",
"28 209 OFFCURVE",
"28 182 CURVE SMOOTH",
"28 171 OFFCURVE",
"32 168 OFFCURVE",
"46 168 CURVE SMOOTH",
"64 168 OFFCURVE",
"89 187 OFFCURVE",
"103 187 CURVE SMOOTH",
"160 187 OFFCURVE",
"231 104 OFFCURVE",
"231 47 CURVE SMOOTH",
"231 19 OFFCURVE",
"199 -30 OFFCURVE",
"153 -30 CURVE SMOOTH",
"139 -30 OFFCURVE",
"127 -23 OFFCURVE",
"115 -16 CURVE SMOOTH",
"106 -11 OFFCURVE",
"97 -6 OFFCURVE",
"90 -6 CURVE SMOOTH",
"70 -6 OFFCURVE",
"78 -10 OFFCURVE",
"50 -28 CURVE SMOOTH",
"34 -39 OFFCURVE",
"20 -50 OFFCURVE",
"20 -64 CURVE SMOOTH",
"20 -72 OFFCURVE",
"26 -83 OFFCURVE",
"34 -83 CURVE SMOOTH",
"50 -83 OFFCURVE",
"71 -64 OFFCURVE",
"81 -64 CURVE SMOOTH",
"95 -64 OFFCURVE",
"105 -71 OFFCURVE",
"116 -77 CURVE",
"125 -83 OFFCURVE",
"134 -88 OFFCURVE",
"146 -88 CURVE SMOOTH",
"171 -88 OFFCURVE",
"177 -73 OFFCURVE",
"201 -55 CURVE",
"259 -8 OFFCURVE",
"310 47 OFFCURVE",
"310 126 CURVE SMOOTH",
"310 179 OFFCURVE",
"280 226 OFFCURVE",
"209 254 CURVE",
"192 260 OFFCURVE",
"170 276 OFFCURVE",
"170 292 CURVE SMOOTH",
"170 299 OFFCURVE",
"195 327 OFFCURVE",
"202 337 CURVE",
"231 371 OFFCURVE",
"255 385 OFFCURVE",
"255 429 CURVE SMOOTH",
"255 494 OFFCURVE",
"170 550 OFFCURVE",
"128 550 CURVE SMOOTH",
"109 550 OFFCURVE",
"89 536 OFFCURVE",
"70 519 CURVE SMOOTH",
"50 502 OFFCURVE",
"31 482 OFFCURVE",
"31 469 CURVE SMOOTH"
);
}
);
width = 330;
}
);
unicode = 007A;
},
{
glyphname = bar;
layers = (
{
layerId = "BA838D9B-820F-4674-98D0-BE3E112EAB76";
paths = (
{
closed = 1;
nodes = (
"185 526 LINE SMOOTH",
"185 536 OFFCURVE",
"175 546 OFFCURVE",
"165 546 CURVE",
"155 545 OFFCURVE",
"145 536 OFFCURVE",
"145 526 CURVE SMOOTH",
"145 6 LINE SMOOTH",
"145 -4 OFFCURVE",
"155 -14 OFFCURVE",
"165 -14 CURVE SMOOTH",
"175 -14 OFFCURVE",
"185 -4 OFFCURVE",
"185 6 CURVE SMOOTH"
);
}
);
width = 330;
}
);
unicode = 007C;
},
{
glyphname = backslash;
layers = (
{
layerId = "BA838D9B-820F-4674-98D0-BE3E112EAB76";
paths = (
{
closed = 1;
nodes = (
"20 546 LINE",
"160 10 LINE",
"230 -32 LINE",
"90 546 LINE"
);
}
);
width = 250;
}
);
unicode = 005C;
},
{
glyphname = braceleft;
layers = (
{
layerId = "BA838D9B-820F-4674-98D0-BE3E112EAB76";
paths = (
{
closed = 1;
nodes = (
"542 699 LINE",
"20 699 LINE",
"20 -135 LINE",
"542 -135 LINE"
);
},
{
closed = 1;
nodes = (
"104 89 OFFCURVE",
"155 128 OFFCURVE",
"167 140 CURVE SMOOTH",
"198 172 OFFCURVE",
"242 196 OFFCURVE",
"252 196 CURVE SMOOTH",
"275 196 OFFCURVE",
"287 161 OFFCURVE",
"287 130 CURVE SMOOTH",
"287 112 OFFCURVE",
"314 101 OFFCURVE",
"326 101 CURVE SMOOTH",
"347 101 OFFCURVE",
"374 86 OFFCURVE",
"374 68 CURVE SMOOTH",
"374 38 OFFCURVE",
"321 28 OFFCURVE",
"296 4 CURVE SMOOTH",
"264 -26 OFFCURVE",
"236 -53 OFFCURVE",
"224 -53 CURVE SMOOTH",
"209 -53 OFFCURVE",
"198 -26 OFFCURVE",
"194 -7 CURVE",
"189 13 OFFCURVE",
"167 52 OFFCURVE",
"149 52 CURVE SMOOTH",
"144 52 OFFCURVE",
"142 51 OFFCURVE",
"139 50 CURVE",
"135 49 OFFCURVE",
"132 47 OFFCURVE",
"126 47 CURVE SMOOTH",
"119 47 OFFCURVE",
"104 62 OFFCURVE",
"104 71 CURVE SMOOTH"
);
},
{
closed = 1;
nodes = (
"113 263 OFFCURVE",
"134 298 OFFCURVE",
"164 331 CURVE SMOOTH",
"183 352 OFFCURVE",
"195 387 OFFCURVE",
"236 387 CURVE SMOOTH",
"257 387 OFFCURVE",
"317 365 OFFCURVE",
"329 365 CURVE SMOOTH",
"339 365 OFFCURVE",
"348 370 OFFCURVE",
"348 380 CURVE SMOOTH",
"348 389 OFFCURVE",
"318 404 OFFCURVE",
"293 425 CURVE SMOOTH",
"270 443 OFFCURVE",
"252 467 OFFCURVE",
"252 490 CURVE SMOOTH",
"252 511 OFFCURVE",
"269 541 OFFCURVE",
"285 568 CURVE SMOOTH",
"303 599 OFFCURVE",
"324 629 OFFCURVE",
"345 629 CURVE SMOOTH",
"359 629 OFFCURVE",
"377 613 OFFCURVE",
"377 601 CURVE SMOOTH",
"377 589 OFFCURVE",
"363 577 OFFCURVE",
"363 560 CURVE SMOOTH",
"363 542 OFFCURVE",
"396 523 OFFCURVE",
"422 518 CURVE",
"461 512 OFFCURVE",
"471 482 OFFCURVE",
"471 448 CURVE SMOOTH",
"471 386 OFFCURVE",
"443 306 OFFCURVE",
"416 271 CURVE SMOOTH",
"391 239 OFFCURVE",
"299 223 OFFCURVE",
"264 223 CURVE SMOOTH",
"240 223 OFFCURVE",
"213 236 OFFCURVE",
"185 236 CURVE SMOOTH",
"164 236 OFFCURVE",
"149 229 OFFCURVE",
"138 229 CURVE SMOOTH",
"131 229 OFFCURVE",
"113 236 OFFCURVE",
"113 256 CURVE SMOOTH"
);
}
);
width = 562;
}
);
unicode = 007B;
},
{
glyphname = braceright;
layers = (
{
layerId = "BA838D9B-820F-4674-98D0-BE3E112EAB76";
paths = (
{
closed = 1;
nodes = (
"542 699 LINE",
"20 699 LINE",
"20 -135 LINE",
"542 -135 LINE"
);
},
{
closed = 1;
nodes = (
"104 89 OFFCURVE",
"155 128 OFFCURVE",
"167 140 CURVE SMOOTH",
"198 172 OFFCURVE",
"242 196 OFFCURVE",
"252 196 CURVE SMOOTH",
"275 196 OFFCURVE",
"287 161 OFFCURVE",
"287 130 CURVE SMOOTH",
"287 112 OFFCURVE",
"314 101 OFFCURVE",
"326 101 CURVE SMOOTH",
"347 101 OFFCURVE",
"374 86 OFFCURVE",
"374 68 CURVE SMOOTH",
"374 38 OFFCURVE",
"321 28 OFFCURVE",
"296 4 CURVE SMOOTH",
"264 -26 OFFCURVE",
"236 -53 OFFCURVE",
"224 -53 CURVE SMOOTH",
"209 -53 OFFCURVE",
"198 -26 OFFCURVE",
"194 -7 CURVE",
"189 13 OFFCURVE",
"167 52 OFFCURVE",
"149 52 CURVE SMOOTH",
"144 52 OFFCURVE",
"142 51 OFFCURVE",
"139 50 CURVE",
"135 49 OFFCURVE",
"132 47 OFFCURVE",
"126 47 CURVE SMOOTH",
"119 47 OFFCURVE",
"104 62 OFFCURVE",
"104 71 CURVE SMOOTH"
);
},
{
closed = 1;
nodes = (
"113 263 OFFCURVE",
"134 298 OFFCURVE",
"164 331 CURVE SMOOTH",
"183 352 OFFCURVE",
"195 387 OFFCURVE",
"236 387 CURVE SMOOTH",
"257 387 OFFCURVE",
"317 365 OFFCURVE",
"329 365 CURVE SMOOTH",
"339 365 OFFCURVE",
"348 370 OFFCURVE",
"348 380 CURVE SMOOTH",
"348 389 OFFCURVE",
"318 404 OFFCURVE",
"293 425 CURVE SMOOTH",
"270 443 OFFCURVE",
"252 467 OFFCURVE",
"252 490 CURVE SMOOTH",
"252 511 OFFCURVE",
"269 541 OFFCURVE",
"285 568 CURVE SMOOTH",
"303 599 OFFCURVE",
"324 629 OFFCURVE",
"345 629 CURVE SMOOTH",
"359 629 OFFCURVE",
"377 613 OFFCURVE",
"377 601 CURVE SMOOTH",
"377 589 OFFCURVE",
"363 577 OFFCURVE",
"363 560 CURVE SMOOTH",
"363 542 OFFCURVE",
"396 523 OFFCURVE",
"422 518 CURVE",
"461 512 OFFCURVE",
"471 482 OFFCURVE",
"471 448 CURVE SMOOTH",
"471 386 OFFCURVE",
"443 306 OFFCURVE",
"416 271 CURVE SMOOTH",
"391 239 OFFCURVE",
"299 223 OFFCURVE",
"264 223 CURVE SMOOTH",
"240 223 OFFCURVE",
"213 236 OFFCURVE",
"185 236 CURVE SMOOTH",
"164 236 OFFCURVE",
"149 229 OFFCURVE",
"138 229 CURVE SMOOTH",
"131 229 OFFCURVE",
"113 236 OFFCURVE",
"113 256 CURVE SMOOTH"
);
}
);
width = 562;
}
);
unicode = 007D;
},
{
glyphname = bracketleft;
layers = (
{
layerId = "BA838D9B-820F-4674-98D0-BE3E112EAB76";
paths = (
{
closed = 1;
nodes = (
"542 699 LINE",
"20 699 LINE",
"20 -135 LINE",
"542 -135 LINE"
);
},
{
closed = 1;
nodes = (
"104 89 OFFCURVE",
"155 128 OFFCURVE",
"167 140 CURVE SMOOTH",
"198 172 OFFCURVE",
"242 196 OFFCURVE",
"252 196 CURVE SMOOTH",
"275 196 OFFCURVE",
"287 161 OFFCURVE",
"287 130 CURVE SMOOTH",
"287 112 OFFCURVE",
"314 101 OFFCURVE",
"326 101 CURVE SMOOTH",
"347 101 OFFCURVE",
"374 86 OFFCURVE",
"374 68 CURVE SMOOTH",
"374 38 OFFCURVE",
"321 28 OFFCURVE",
"296 4 CURVE SMOOTH",
"264 -26 OFFCURVE",
"236 -53 OFFCURVE",
"224 -53 CURVE SMOOTH",
"209 -53 OFFCURVE",
"198 -26 OFFCURVE",
"194 -7 CURVE",
"189 13 OFFCURVE",
"167 52 OFFCURVE",
"149 52 CURVE SMOOTH",
"144 52 OFFCURVE",
"142 51 OFFCURVE",
"139 50 CURVE",
"135 49 OFFCURVE",
"132 47 OFFCURVE",
"126 47 CURVE SMOOTH",
"119 47 OFFCURVE",
"104 62 OFFCURVE",
"104 71 CURVE SMOOTH"
);
},
{
closed = 1;
nodes = (
"113 263 OFFCURVE",
"134 298 OFFCURVE",
"164 331 CURVE SMOOTH",
"183 352 OFFCURVE",
"195 387 OFFCURVE",
"236 387 CURVE SMOOTH",
"257 387 OFFCURVE",
"317 365 OFFCURVE",
"329 365 CURVE SMOOTH",
"339 365 OFFCURVE",
"348 370 OFFCURVE",
"348 380 CURVE SMOOTH",
"348 389 OFFCURVE",
"318 404 OFFCURVE",
"293 425 CURVE SMOOTH",
"270 443 OFFCURVE",
"252 467 OFFCURVE",
"252 490 CURVE SMOOTH",
"252 511 OFFCURVE",
"269 541 OFFCURVE",
"285 568 CURVE SMOOTH",
"303 599 OFFCURVE",
"324 629 OFFCURVE",
"345 629 CURVE SMOOTH",
"359 629 OFFCURVE",
"377 613 OFFCURVE",
"377 601 CURVE SMOOTH",
"377 589 OFFCURVE",
"363 577 OFFCURVE",
"363 560 CURVE SMOOTH",
"363 542 OFFCURVE",
"396 523 OFFCURVE",
"422 518 CURVE",
"461 512 OFFCURVE",
"471 482 OFFCURVE",
"471 448 CURVE SMOOTH",
"471 386 OFFCURVE",
"443 306 OFFCURVE",
"416 271 CURVE SMOOTH",
"391 239 OFFCURVE",
"299 223 OFFCURVE",
"264 223 CURVE SMOOTH",
"240 223 OFFCURVE",
"213 236 OFFCURVE",
"185 236 CURVE SMOOTH",
"164 236 OFFCURVE",
"149 229 OFFCURVE",
"138 229 CURVE SMOOTH",
"131 229 OFFCURVE",
"113 236 OFFCURVE",
"113 256 CURVE SMOOTH"
);
}
);
width = 562;
}
);
unicode = 005B;
},
{
glyphname = bracketright;
layers = (
{
layerId = "BA838D9B-820F-4674-98D0-BE3E112EAB76";
paths = (
{
closed = 1;
nodes = (
"542 699 LINE",
"20 699 LINE",
"20 -135 LINE",
"542 -135 LINE"
);
},
{
closed = 1;
nodes = (
"104 89 OFFCURVE",
"155 128 OFFCURVE",
"167 140 CURVE SMOOTH",
"198 172 OFFCURVE",
"242 196 OFFCURVE",
"252 196 CURVE SMOOTH",
"275 196 OFFCURVE",
"287 161 OFFCURVE",
"287 130 CURVE SMOOTH",
"287 112 OFFCURVE",
"314 101 OFFCURVE",
"326 101 CURVE SMOOTH",
"347 101 OFFCURVE",
"374 86 OFFCURVE",
"374 68 CURVE SMOOTH",
"374 38 OFFCURVE",
"321 28 OFFCURVE",
"296 4 CURVE SMOOTH",
"264 -26 OFFCURVE",
"236 -53 OFFCURVE",
"224 -53 CURVE SMOOTH",
"209 -53 OFFCURVE",
"198 -26 OFFCURVE",
"194 -7 CURVE",
"189 13 OFFCURVE",
"167 52 OFFCURVE",
"149 52 CURVE SMOOTH",
"144 52 OFFCURVE",
"142 51 OFFCURVE",
"139 50 CURVE",
"135 49 OFFCURVE",
"132 47 OFFCURVE",
"126 47 CURVE SMOOTH",
"119 47 OFFCURVE",
"104 62 OFFCURVE",
"104 71 CURVE SMOOTH"
);
},
{
closed = 1;
nodes = (
"113 263 OFFCURVE",
"134 298 OFFCURVE",
"164 331 CURVE SMOOTH",
"183 352 OFFCURVE",
"195 387 OFFCURVE",
"236 387 CURVE SMOOTH",
"257 387 OFFCURVE",
"317 365 OFFCURVE",
"329 365 CURVE SMOOTH",
"339 365 OFFCURVE",
"348 370 OFFCURVE",
"348 380 CURVE SMOOTH",
"348 389 OFFCURVE",
"318 404 OFFCURVE",
"293 425 CURVE SMOOTH",
"270 443 OFFCURVE",
"252 467 OFFCURVE",
"252 490 CURVE SMOOTH",
"252 511 OFFCURVE",
"269 541 OFFCURVE",
"285 568 CURVE SMOOTH",
"303 599 OFFCURVE",
"324 629 OFFCURVE",
"345 629 CURVE SMOOTH",
"359 629 OFFCURVE",
"377 613 OFFCURVE",
"377 601 CURVE SMOOTH",
"377 589 OFFCURVE",
"363 577 OFFCURVE",
"363 560 CURVE SMOOTH",
"363 542 OFFCURVE",
"396 523 OFFCURVE",
"422 518 CURVE",
"461 512 OFFCURVE",
"471 482 OFFCURVE",
"471 448 CURVE SMOOTH",
"471 386 OFFCURVE",
"443 306 OFFCURVE",
"416 271 CURVE SMOOTH",
"391 239 OFFCURVE",
"299 223 OFFCURVE",
"264 223 CURVE SMOOTH",
"240 223 OFFCURVE",
"213 236 OFFCURVE",
"185 236 CURVE SMOOTH",
"164 236 OFFCURVE",
"149 229 OFFCURVE",
"138 229 CURVE SMOOTH",
"131 229 OFFCURVE",
"113 236 OFFCURVE",
"113 256 CURVE SMOOTH"
);
}
);
width = 562;
}
);
unicode = 005D;
},
{
glyphname = dollar;
layers = (
{
layerId = "BA838D9B-820F-4674-98D0-BE3E112EAB76";
paths = (
{
closed = 1;
nodes = (
"542 699 LINE",
"20 699 LINE",
"20 -135 LINE",
"542 -135 LINE"
);
},
{
closed = 1;
nodes = (
"104 89 OFFCURVE",
"155 128 OFFCURVE",
"167 140 CURVE SMOOTH",
"198 172 OFFCURVE",
"242 196 OFFCURVE",
"252 196 CURVE SMOOTH",
"275 196 OFFCURVE",
"287 161 OFFCURVE",
"287 130 CURVE SMOOTH",
"287 112 OFFCURVE",
"314 101 OFFCURVE",
"326 101 CURVE SMOOTH",
"347 101 OFFCURVE",
"374 86 OFFCURVE",
"374 68 CURVE SMOOTH",
"374 38 OFFCURVE",
"321 28 OFFCURVE",
"296 4 CURVE SMOOTH",
"264 -26 OFFCURVE",
"236 -53 OFFCURVE",
"224 -53 CURVE SMOOTH",
"209 -53 OFFCURVE",
"198 -26 OFFCURVE",
"194 -7 CURVE",
"189 13 OFFCURVE",
"167 52 OFFCURVE",
"149 52 CURVE SMOOTH",
"144 52 OFFCURVE",
"142 51 OFFCURVE",
"139 50 CURVE",
"135 49 OFFCURVE",
"132 47 OFFCURVE",
"126 47 CURVE SMOOTH",
"119 47 OFFCURVE",
"104 62 OFFCURVE",
"104 71 CURVE SMOOTH"
);
},
{
closed = 1;
nodes = (
"113 263 OFFCURVE",
"134 298 OFFCURVE",
"164 331 CURVE SMOOTH",
"183 352 OFFCURVE",
"195 387 OFFCURVE",
"236 387 CURVE SMOOTH",
"257 387 OFFCURVE",
"317 365 OFFCURVE",
"329 365 CURVE SMOOTH",
"339 365 OFFCURVE",
"348 370 OFFCURVE",
"348 380 CURVE SMOOTH",
"348 389 OFFCURVE",
"318 404 OFFCURVE",
"293 425 CURVE SMOOTH",
"270 443 OFFCURVE",
"252 467 OFFCURVE",
"252 490 CURVE SMOOTH",
"252 511 OFFCURVE",
"269 541 OFFCURVE",
"285 568 CURVE SMOOTH",
"303 599 OFFCURVE",
"324 629 OFFCURVE",
"345 629 CURVE SMOOTH",
"359 629 OFFCURVE",
"377 613 OFFCURVE",
"377 601 CURVE SMOOTH",
"377 589 OFFCURVE",
"363 577 OFFCURVE",
"363 560 CURVE SMOOTH",
"363 542 OFFCURVE",
"396 523 OFFCURVE",
"422 518 CURVE",
"461 512 OFFCURVE",
"471 482 OFFCURVE",
"471 448 CURVE SMOOTH",
"471 386 OFFCURVE",
"443 306 OFFCURVE",
"416 271 CURVE SMOOTH",
"391 239 OFFCURVE",
"299 223 OFFCURVE",
"264 223 CURVE SMOOTH",
"240 223 OFFCURVE",
"213 236 OFFCURVE",
"185 236 CURVE SMOOTH",
"164 236 OFFCURVE",
"149 229 OFFCURVE",
"138 229 CURVE SMOOTH",
"131 229 OFFCURVE",
"113 236 OFFCURVE",
"113 256 CURVE SMOOTH"
);
}
);
width = 562;
}
);
unicode = 0024;
},
{
glyphname = equal;
layers = (
{
layerId = "BA838D9B-820F-4674-98D0-BE3E112EAB76";
paths = (
{
closed = 1;
nodes = (
"542 699 LINE",
"20 699 LINE",
"20 -135 LINE",
"542 -135 LINE"
);
},
{
closed = 1;
nodes = (
"104 89 OFFCURVE",
"155 128 OFFCURVE",
"167 140 CURVE SMOOTH",
"198 172 OFFCURVE",
"242 196 OFFCURVE",
"252 196 CURVE SMOOTH",
"275 196 OFFCURVE",
"287 161 OFFCURVE",
"287 130 CURVE SMOOTH",
"287 112 OFFCURVE",
"314 101 OFFCURVE",
"326 101 CURVE SMOOTH",
"347 101 OFFCURVE",
"374 86 OFFCURVE",
"374 68 CURVE SMOOTH",
"374 38 OFFCURVE",
"321 28 OFFCURVE",
"296 4 CURVE SMOOTH",
"264 -26 OFFCURVE",
"236 -53 OFFCURVE",
"224 -53 CURVE SMOOTH",
"209 -53 OFFCURVE",
"198 -26 OFFCURVE",
"194 -7 CURVE",
"189 13 OFFCURVE",
"167 52 OFFCURVE",
"149 52 CURVE SMOOTH",
"144 52 OFFCURVE",
"142 51 OFFCURVE",
"139 50 CURVE",
"135 49 OFFCURVE",
"132 47 OFFCURVE",
"126 47 CURVE SMOOTH",
"119 47 OFFCURVE",
"104 62 OFFCURVE",
"104 71 CURVE SMOOTH"
);
},
{
closed = 1;
nodes = (
"113 263 OFFCURVE",
"134 298 OFFCURVE",
"164 331 CURVE SMOOTH",
"183 352 OFFCURVE",
"195 387 OFFCURVE",
"236 387 CURVE SMOOTH",
"257 387 OFFCURVE",
"317 365 OFFCURVE",
"329 365 CURVE SMOOTH",
"339 365 OFFCURVE",
"348 370 OFFCURVE",
"348 380 CURVE SMOOTH",
"348 389 OFFCURVE",
"318 404 OFFCURVE",
"293 425 CURVE SMOOTH",
"270 443 OFFCURVE",
"252 467 OFFCURVE",
"252 490 CURVE SMOOTH",
"252 511 OFFCURVE",
"269 541 OFFCURVE",
"285 568 CURVE SMOOTH",
"303 599 OFFCURVE",
"324 629 OFFCURVE",
"345 629 CURVE SMOOTH",
"359 629 OFFCURVE",
"377 613 OFFCURVE",
"377 601 CURVE SMOOTH",
"377 589 OFFCURVE",
"363 577 OFFCURVE",
"363 560 CURVE SMOOTH",
"363 542 OFFCURVE",
"396 523 OFFCURVE",
"422 518 CURVE",
"461 512 OFFCURVE",
"471 482 OFFCURVE",
"471 448 CURVE SMOOTH",
"471 386 OFFCURVE",
"443 306 OFFCURVE",
"416 271 CURVE SMOOTH",
"391 239 OFFCURVE",
"299 223 OFFCURVE",
"264 223 CURVE SMOOTH",
"240 223 OFFCURVE",
"213 236 OFFCURVE",
"185 236 CURVE SMOOTH",
"164 236 OFFCURVE",
"149 229 OFFCURVE",
"138 229 CURVE SMOOTH",
"131 229 OFFCURVE",
"113 236 OFFCURVE",
"113 256 CURVE SMOOTH"
);
}
);
width = 562;
}
);
unicode = 003D;
},
